<?xml version="1.0" encoding="utf-8"?>
<!-- Generator: Adobe Illustrator 16.0.0, SVG Export Plug-In . SVG Version: 6.00 Build 0)  -->
<!DOCTYPE svg PUBLIC "-//W3C//DTD SVG 1.1//EN" "http://www.w3.org/Graphics/SVG/1.1/DTD/svg11.dtd">
<svg version="1.1" id="Layer_1" xmlns="http://www.w3.org/2000/svg" xmlns:xlink="http://www.w3.org/1999/xlink" x="0px" y="0px"
	 width="144px" height="72px" viewBox="0 0 144 72" enable-background="new 0 0 144 72" xml:space="preserve">
<g opacity="0.8" enable-background="new    ">
	<path fill="#FFF200" d="M17.712,47.531c-0.162,0.161-0.269,0.269-0.269,0.322c-0.162,0-0.323,0-0.484,0.107l-0.376,0.323
		c0,0-0.484,0.161-0.377,0.322c-0.054,0.108-0.054,0-0.161,0.054c-0.107,0.216-0.323,0.162-0.484,0.431
		c-0.161,0-0.161-0.054-0.376,0c-0.431,0.431-1.56-0.376-1.829,0.27c-0.054,0.054-0.054,0-0.054,0l-0.215,0.161
		c-0.323-0.161-0.431,0.054-0.592,0.107c-0.646,0.054-1.292-0.161-1.722-0.269c-0.162-0.108-0.323-0.162-0.323-0.484
		c-0.269-0.107-0.753,0-0.807-0.377c-0.323,0-0.377-0.054-0.538,0c-0.162-0.215-0.215-0.431-0.269-0.538
		c-0.323,0-0.323-0.376-0.7-0.322c0-0.27-0.269-0.323-0.484-0.377c-0.054-0.323-0.431-0.377-0.753-0.538
		c-0.054-0.054,0.054-0.054,0.054-0.107c-0.376-0.323,0.108-0.753-0.376-0.915c-0.162-0.484-0.323-1.021-0.538-1.345
		c0-0.107-0.107-0.161-0.215-0.161v-0.27c-0.054-0.107,0-0.269,0-0.592c-0.054-0.161-0.107-0.269-0.107-0.269
		c-0.107-0.538-0.107-1.076-0.162-1.561c-0.054-0.484,0-1.13,0.054-1.668c0.054-0.161,0.215-0.322,0.215-0.592v-0.269l0.162-0.431
		c0-0.054-0.054-0.161,0-0.216c0.054-0.107,0.161-0.322,0.215-0.699l0.215-0.753l0.054-0.107c0.107-0.538,0.538-0.969,0.646-1.399
		c0-0.054,0.107-0.054,0.107-0.054c0.108-0.484,0.323-0.753,0.538-1.022c-0.054-0.054-0.054-0.215-0.054-0.376l0.161,0.054
		c0.269-0.323,0.377-0.646,0.753-0.861c-0.054-0.107,0.107-0.161,0-0.161c0-0.054,0.162-0.054,0.215-0.107V32.52
		c0-0.054,0.054,0.108,0.107,0c0.269-0.107,0.269-0.376,0.431-0.538c0.161-0.054,0.269-0.162,0.323-0.376
		c0.107,0,0.215-0.162,0.215-0.323c0.323,0.108,0.43-0.269,0.538-0.43l0.108,0.054l-0.054-0.107h0.054
		c0.215-0.215,0.538-0.323,0.699-0.592v-0.323c0.215,0,0.108,0.107,0.269,0.107c0.377-0.215,0.807-0.376,1.076-0.753
		c0.376,0,0.807-0.538,1.291-0.376c0.592-0.431,1.722-0.323,2.529-0.269c0.753,0.323,1.238,0.753,1.614,1.345v0.215
		c0.107,0.269,0.161,0.484,0.376,0.592c0.054,0.538,0.538,0.646,0.377,1.453c0,0.161-0.054,0.161-0.054,0.269
		c0.054,0.216-0.054,0.484,0.108,0.646c-0.054,0.484,0,0.592-0.215,0.861c-0.107,0.592-0.753,0-0.968,0.484l-0.323-0.377
		c0-0.431-0.538-0.86-0.753-1.13c-0.054,0.054-0.215,0-0.323,0c0,0.107,0,0.215-0.162,0.215c-0.161-0.161-0.646-0.054-0.753,0.323
		c-0.323,0-0.323,0.215-0.484,0.377h-0.054l0.054,0.054c-0.484,0.538-0.807,0.914-1.076,1.506c0.107,0-0.107,0.377-0.054,0.377
		l-0.269,0.215l-0.215,0.592c-0.107,0.108-0.107,0.216-0.161,0.27l-0.484,0.753c-0.054,0.216,0,0.431,0,0.538
		c-0.107,0.161-0.269,0.27-0.376,0.538c-0.269,0.646-0.323,1.614-0.431,2.152c-0.054,0.377-0.215,0.592-0.107,0.969
		c-0.162,0.322-0.377,0.699-0.377,1.13c0,0.107,0.162,0.322,0.162,0.43c0.054,0.107-0.107,0.107-0.107,0.162
		c-0.054,0.054,0.107,0.161,0.107,0.215c-0.107,0-0.215,0.054-0.269,0.323c0,0.107,0,0.269,0.054,0.376
		c0.054,0.054-0.054,0.054-0.054,0.107c0.107,0.216,0.107,0.431,0.376,0.484c-0.054,0.107,0.323,0.377,0.215,0.646
		c-0.054,0.107-0.215,0.054-0.323,0.054c0.107,0.377,0.484,0.431,0.592,1.022h0.269v0.107l0.054-0.054
		c0,0.27,0.323-0.054,0.323,0.162c0.108-0.055,0.269-0.055,0.431,0.107c0.107-0.107,0.054-0.27,0.161-0.27
		c0.162,0.054,0.323,0.107,0.431-0.054h0.054v-0.054c0.107,0.107,0.107,0.215,0.162,0.215c0.215-0.054,0.269-0.43,0.484-0.322
		c-0.107-0.107,0,0,0.054,0c-0.054-0.107,0.323-0.107,0.323-0.27h0.269c0.215-0.322,0.699-0.054,0.861-0.483
		c0.538,0,0.646-0.377,0.699-0.646c0-0.054,0.162,0.108,0.269,0c0-0.054-0.215,0-0.107-0.107c0.107-0.161,0.215,0,0.376,0.054
		c0-0.161,0.215-0.376,0.269-0.592c0.484,0.27,0.484-0.483,0.699-0.646c0-0.161,0.753-0.86,0.807-0.86
		c0.753-0.162,0.376-0.808,0.915-0.915c0.054-0.269,0.538-0.807,0.807-0.914c0.054,0,0,0.054,0,0.161
		c0.054,0,0.107-0.054,0.162-0.107l0.215-0.27c0.108-0.269,0.215-0.538,0.431-0.592c0.107-0.054,0-0.054,0.054-0.215
		c0.162,0,0.269-0.107,0.376-0.162l0.108-0.215l0.269-0.269c0.107-0.162,0.215-0.377,0.43-0.484
		c0.323-0.377,0.646-0.808,1.076-1.076V37.9c0-0.323,0.7-0.377,0.646-0.754c0.215-0.107,0.86-0.592,0.807-0.753
		c-0.161-0.161,0.107-0.054,0.161-0.054c0.323-0.107,0.538-0.377,0.915-0.215c0.054,0.215-0.054,0.43-0.054,0.538
		c-0.054,0.269-0.054,0.538-0.216,0.699l-0.269,0.161c-0.107,0.215-0.107,0.484-0.215,0.699c-0.162,0-0.108,0.162-0.27,0.054
		c-0.107,0.377-0.322,0.377-0.538,0.592c-0.054,0.108,0.054,0.162,0.054,0.27c-0.215-0.054-0.269,0.161-0.376,0.161l-0.162,0.323
		c-0.323,0.107-0.538,0.753-0.915,0.914c0,0.054,0.054,0.108,0.054,0.216c-0.323,0.107-0.538,0.484-0.7,0.753
		c-0.054,0.107-0.054,0.161-0.054,0.269h-0.215c0,0.108,0.054,0.108,0,0.162c-0.054,0-0.054,0.054-0.107,0.054l-0.054,0.269
		c-0.054,0.054-0.162,0.054-0.269,0.054c-0.162,0.538-0.484,0.969-0.7,1.399c-0.107,0.054-0.215,0.054-0.323,0.161v0.054H20.94
		c-0.162,0.162-0.323,0.377-0.376,0.538c-0.108,0.054-0.162,0.107-0.215,0.107c-0.162,0.27-0.323,0.646-0.592,0.754l-0.054,0.269
		c-0.162,0.054-0.269,0.27-0.484,0.215c-0.215,0.593-0.753,1.346-1.076,1.723c-0.107-0.055-0.161,0-0.215,0l-0.161,0.161
		L17.712,47.531z"/>
	<path fill="#FFF200" d="M35.575,46.401l-0.108,0.537c-1.021,0.431-1.99,1.83-3.497,1.185c-0.215,0-0.215,0.376-0.322,0.537
		c-0.216,0.055-0.216-0.215-0.431-0.269c-0.431,0.107-0.915,0.377-1.453,0.323c-0.376-0.055-0.753-0.377-1.13-0.592
		c-0.269-0.055-0.215,0.161-0.43,0c-0.377-0.162-1.184-0.27-1.561-0.646c-0.323-0.215-0.538-0.646-0.699-0.86
		c-0.161,0-0.27-0.054-0.377-0.161c0-0.054,0.054-0.054,0.107-0.108c-0.107-0.107-0.215-0.322-0.484-0.376
		c-0.269-0.592-0.376-1.291-0.646-1.722c-0.054-0.538-0.107-0.969-0.376-1.291c-0.054-0.861-0.323-1.83-0.269-2.798
		c0-0.969,0-1.775,0.162-2.529l0.107-0.699c0-0.161,0.054-0.215,0.108-0.431c0.215-0.376,0.161-0.86,0.484-1.13v-0.322
		c0-0.107,0.107-0.162,0.161-0.27c0-0.699,0.431-1.398,0.699-2.044c0.27-0.431,0.377-0.861,0.754-1.076
		c-0.055-0.215,0-0.215,0-0.377c0.269-0.161,0.322-0.538,0.483-0.753l0.538-0.7c0.27-0.592,0.592-1.022,0.969-1.453
		c-0.054-0.484,0.269-0.484,0.323-0.807c0.161,0,0.161,0.108,0.215,0.108c0.215-0.807,0.86-0.861,1.237-1.614
		c0.377,0.054,0.592,0.269,0.861,0.269c0.215,0.054,0.322,0.376,0.538,0.484c0.322,0.323,0.968,0.161,1.291,0.646
		c0.161-0.107,0.215-0.323,0.269-0.484c0.431,0.108,0.754,0.484,1.292,0.215c0,0.484,0.483,0.376,0.483,0.861
		c0.162,0,0.27,0.054,0.377,0.054c0.323,0.646,0.915,1.076,0.861,2.152c-0.27,0.269-0.27,0.699-0.377,1.022
		c0.538-0.484,1.829-1.022,1.937,0.215c0.538-0.054,0.699,0.269,1.022,0.054c0.215,0.377,0.592,0.646,0.969,0.753
		c0.054,0.646,0.592,1.184,0.646,1.883s-0.161,1.507,0.269,1.991c-0.161,0.43-0.269,0.914,0,1.13
		c0.484-0.538,0.431-0.162,0.861-0.808c0.646,0.107,0.807-0.646,1.398-0.699c0.216-0.215,0.808-0.807,1.076-0.915
		c0.107-0.161,0.377-0.215,0.484-0.161c0.431-0.215,0.86-0.431,1.13-0.753c0.377,0.054,0.646-0.215,1.13,0
		c0.054,0,0.107,0.054,0.107,0.107c-0.107,0.323-0.484,0.646-0.753,1.076c-0.431,0.215-0.699,0.592-1.076,0.807
		c-0.646,0.484-1.076,0.754-1.668,1.668c-0.161,0.216-0.592,0.431-0.753,0.646c-0.754,0.054-0.7,0.108-1.076,0.538
		c-0.323,0-0.538,0.323-0.808,0.431c-0.215,0.27-0.483,0.215-0.538,0.323c-0.215,0.322,0,0.699-0.161,1.076
		c-0.054,0.269-0.269,0.43-0.376,0.646c-0.162,0.483-0.108,0.914-0.323,1.021c0.107,0.861-0.538,0.861-0.592,1.561
		c-0.699,0.377-1.076,1.13-1.829,1.453c-0.162,0.107-0.323,0.376-0.592,0.43l-0.27,0.592C35.79,46.239,35.79,46.401,35.575,46.401z
		 M31.485,40.752c0.055,0.376-0.054,0.699,0.162,1.021c-0.107,0.108-0.107,0.377-0.216,0.484c0.054,0.162,0.323,0.162,0.323,0.323
		c-0.377,0.269-0.054,0.807-0.215,0.86c0.269,0.162,0.269,0.538,0.322,1.022c0.161,0.107,0.377-0.215,0.377,0.107
		c0.107,0.216-0.054,0.216,0,0.377c0.107,0,0.807,0.161,0.753,0.431c0.323-0.054,1.022,0.054,1.184-0.323
		c0.107,0.161,0.107,0.27,0.27,0.216c0.107-0.27,0.054-0.323,0.161-0.592c0.161,0.376,0.592,0.215,0.807,0
		c0-0.055-0.215-0.162,0-0.27c0.107,0,0.054,0.215,0.216,0.215c0-0.215,0.269-0.322,0.484-0.43l0.107-0.484
		c0.269-0.377,1.022-0.753,0.646-1.399h0.269c0.162-0.86,0.7-1.506,0.754-2.689c-0.108,0.161-0.054-0.162-0.216-0.107
		c-0.322,0.322-0.753-0.323-1.184-0.055c-0.054-0.322-0.646-0.646-1.022-0.43c0.054-0.216-0.699-0.754-0.592-0.861
		c-0.807-0.376-0.376-0.646-0.968-1.184c0-0.161-0.7-1.184-0.646-1.345c-0.323,0.215-0.592,1.937-1.022,1.99v0.323
		c-0.431,0.269-0.27,1.076-0.538,1.452c0.107,0.377-0.054,0.592-0.161,1.076v0.054l0.107,0.108
		C31.647,40.698,31.54,40.752,31.485,40.752z M37.458,34.564c-0.107-0.107-0.27,0-0.484,0c-0.215,0.753-0.646,2.421,0.27,2.959
		c0-0.054,0-0.161,0.054-0.215c0.054,0.054,0.054,0.215,0.161,0.376c0.215-0.215,0.161,0.323,0.431,0.323
		c0-0.807,0.107-1.883-0.108-2.583C37.458,35.425,37.351,35.049,37.458,34.564z"/>
	<path fill="#FFF200" d="M62.422,45.809l0.323-0.483c0.054-0.054,0.215-0.054,0.322-0.108v-0.322c0.162,0,0.108-0.215,0.27-0.215
		c0-0.162,0.054-0.216,0.054-0.377c0.215-0.27,0.377-0.592,0.431-1.076c0.322-0.431,0.592-0.915,0.914-1.453
		c0-0.161-0.054-0.161-0.054-0.269c0.054,0,0.107,0,0.107-0.054c0.216-0.699,0.431-0.969,0.861-1.614l0.054-0.322
		c0.484-0.7,0.807-1.561,1.398-2.152c0-0.054-0.054-0.107-0.054-0.107c0-0.323,0.646-0.538,0.484-0.915
		c0.216-0.107,0.754-0.753,0.646-0.861c-0.161-0.107,0.108-0.107,0.162-0.107c0.269-0.161,0.43-0.43,0.86-0.376
		c0.054,0.161,0.054,0.376,0.054,0.538c0,0.269,0.054,0.483-0.107,0.753c-0.054,0.054-0.161,0.107-0.161,0.161
		c-0.107,0.27-0.054,0.538-0.107,0.754c-0.162,0-0.108,0.161-0.27,0.107c0,0.376-0.215,0.43-0.377,0.699
		c-0.054,0.107,0.055,0.161,0.055,0.269c-0.216-0.054-0.216,0.162-0.323,0.216l-0.054,0.322c-0.323,0.216-0.377,0.861-0.699,1.076
		c0,0.054,0.054,0.107,0.054,0.216c-0.377,0.215-0.431,0.914-0.699,1.13c-0.055,0.107,0.054,0.161,0,0.215
		c-0.323,0.161-0.377,0.592-0.592,0.86c0,0.108,0.107,0.162,0.054,0.323c-0.108,0.323-0.162,0.323-0.323,0.538
		c0,0.484-0.107,0.054-0.107,0.538c-0.161,0.054-0.27,0.107-0.27,0.377c-0.376,0.269-0.322,0.968-0.699,1.237v0.269
		c-0.161,0.107-0.215,0.323-0.431,0.323c-0.107,0.646-0.538,0.86-0.753,1.345l-0.322,0.807c-0.216,0.377-0.592,0.646-0.7,1.022
		c-0.269,0.054-0.43,0.592-0.592,0.754c-0.269-0.055-0.538,0-0.592,0.215c-0.484-0.107-0.86,0.322-1.291,0.431
		c-0.753,0.215-1.668-0.431-2.475-0.377c-0.377-0.161-0.808-0.538-1.237-0.699c-0.055-0.054,0-0.162,0-0.216
		c-0.108-0.054-0.108-0.161-0.377-0.161c-0.161-0.377-0.377-0.699-0.538-1.184c-0.215-0.269-0.269-0.431-0.323-0.86
		c-0.054-0.216-0.215-0.377-0.269-0.538c-0.054-0.484-0.054-0.808-0.161-1.292c0-0.107-0.108-0.215-0.108-0.269
		c-0.107-0.377-0.107-0.807-0.107-1.13c-0.054-0.484-0.107-0.861-0.107-1.291c0-0.162,0.107-0.323,0.107-0.431
		c0-0.861,0-1.829,0.107-2.528c0-0.216,0.055-0.27,0.108-0.377c0.107-0.323,0.054-0.646,0.161-0.915
		c0.054-0.269,0.161-0.484,0.269-0.753c0-0.107,0-0.377,0.055-0.484c0-0.107,0.107-0.215,0.107-0.269l0.269-0.915
		c0.107-0.269,0.107-0.484,0.216-0.753c0.107-0.162,0.054-0.431,0.107-0.754c0.054-0.161,0.161-0.215,0.215-0.269
		c0-0.592,0.431-0.915,0.323-1.453c-0.162-0.107-0.162,0.323-0.484,0.323c-0.216,0.269-0.323,0.807-0.699,1.022
		c0,0.484-0.162,0.86-0.431,0.968c-0.054,0.592-0.484,1.13-0.646,1.614c-0.107,0.27-0.054,0.754-0.323,0.969
		c0,0.377-0.269,0.699-0.054,1.022c-0.323,0.646-0.699,1.291-0.969,1.99c-0.054,0.377-0.054,0.808-0.161,1.13
		c-0.107,0.431-0.377,0.646-0.431,0.915c-0.054,0.269,0.054,0.646-0.107,0.86c0,0.162-0.269,0.216-0.161,0.484
		c-0.484,0.431-0.323,1.668-0.538,2.206c0.161,0.269,0.054,0.484,0.107,0.699c0.107,0.431,0.323,0.699,0.323,0.808
		c0,0.376-0.323,0.592-0.431,0.914c-0.538-0.107-1.453,0.107-2.099-0.054l-0.376-0.215c-0.592-0.27-1.184-0.107-1.561-0.484
		c-0.161,0.215-0.538,0.215-0.753,0.322c-0.108-0.107-0.162-0.322-0.431-0.215c-0.699-0.699-0.915-1.561-1.022-2.582
		c-0.054-0.754-0.054-1.614,0-2.476l0.161-2.367l0.162-2.69l0.161-1.398l0.054-1.291l0.161-0.538c0-0.161-0.054-0.216-0.054-0.377
		c0-0.107,0.107-0.269,0.107-0.376c0-0.861-0.269-1.453-0.269-2.26c0.215-0.107,0.914-0.43,1.184-0.161
		c0.161-0.162,0.269-0.215,0.377-0.269c0.161,0.107,0.322,0.054,0.43,0.107c0.754-0.484,1.775,0,2.26,0.484
		c0.216,0.538,0.216,1.345,0.431,2.044v1.507c0.054,0.323-0.269,1.076-0.107,1.937c0.161,0.861,0.269,2.905,0.215,3.175
		c0.377-0.377,1.076-2.905,1.184-3.443c0.377-0.431,0.216-1.561,0.754-1.937c0.107-0.538,0.376-0.861,0.538-1.453
		c0.699-0.538,0.592-1.937,1.345-2.475c0.161-0.43,0.107-0.807,0.592-0.915c-0.054-0.215,0.161-0.161,0.054-0.43
		c0.592,0,0.377-0.646,0.861-0.538c0.107-0.484,0.699-0.538,0.86-0.807c0.107-0.161,0.107-0.323,0.161-0.592
		c0.162-0.269,1.13-0.054,1.13-0.538c0.646-0.161,1.13-0.054,1.775-0.269c0.323,0.215,1.022,0.054,1.507,0.108
		c0.161,0.107,0.269,0.107,0.592,0.161c0.054,0.107,0.215,0.323,0.27,0.484c0.483,0.054,1.075,0.646,0.968,1.453
		c-0.054,0.269-0.376,0.484-0.376,0.753c-0.108,0.699,0.215,1.398-0.108,1.829l0.108,0.376c-0.055,0.807-0.377,1.453-0.431,2.314
		c-0.054,0.538,0.054,1.291,0.054,2.044c0,0.107,0.054,0.107,0.107,0.216c0,0.322-0.107,0.807-0.161,1.184
		c0,0.161-0.161,0.376-0.161,0.538c-0.055,0.376,0.054,0.86-0.055,1.291c-0.107,0.269-0.269,0.431-0.269,0.646
		c0,0.161,0.054,0.377,0.054,0.592l-0.161,0.377c-0.054,0.269,0.054,0.538,0.054,0.807c0,0.107-0.107,0.269-0.161,0.377
		c-0.055,0.538,0.107,1.076-0.108,1.506c0,0.162,0.108,0.27,0.108,0.484c0.054,0.27-0.108,0.216-0.108,0.377
		c0.162,0.646-0.054,0.592,0.216,1.13c0.376,0,0.376,0.484,0.431,0.376C61.884,46.239,62.207,45.917,62.422,45.809z"/>
	<path fill="#FFF200" d="M77.272,45.54c0-0.054,0.054-0.107,0.107-0.215c0.054-0.054,0.215-0.054,0.323-0.108v-0.322
		c0.161,0,0.107-0.215,0.269-0.215c0-0.162,0.054-0.216,0.054-0.377c0.216-0.27,0.377-0.592,0.431-1.076
		c0.322-0.431,0.592-0.915,0.914-1.453c0-0.161-0.054-0.161-0.054-0.269c0.054,0,0.108,0,0.108-0.054
		c0.215-0.699,0.43-0.969,0.86-1.614l0.054-0.322c0.484-0.7,0.808-1.561,1.399-2.152c0-0.054-0.054-0.107-0.054-0.107
		c0-0.323,0.646-0.538,0.483-0.915c0.216-0.107,0.754-0.753,0.646-0.861c-0.161-0.107,0.108-0.107,0.162-0.107
		c0.269-0.161,0.43-0.43,0.86-0.376c0.054,0.161,0.054,0.376,0.054,0.538c0,0.269,0.054,0.483-0.107,0.753
		c-0.054,0.054-0.161,0.107-0.161,0.161c-0.107,0.27-0.054,0.538-0.107,0.754c-0.162,0-0.108,0.161-0.27,0.107
		c0,0.376-0.215,0.43-0.376,0.699c-0.055,0.107,0.054,0.161,0.054,0.269c-0.216-0.054-0.216,0.162-0.323,0.216l-0.054,0.322
		c-0.323,0.216-0.377,0.861-0.699,1.076c0,0.054,0.054,0.107,0.054,0.216c-0.377,0.215-0.431,0.914-0.699,1.13
		c-0.054,0.107,0.054,0.161,0,0.215c-0.323,0.161-0.377,0.592-0.592,0.86c0,0.108,0.107,0.162,0.054,0.323
		c-0.107,0.323-0.162,0.323-0.323,0.538c0,0.484-0.107,0.054-0.107,0.538c-0.161,0.054-0.27,0.107-0.27,0.377
		c-0.376,0.269-0.322,0.968-0.699,1.237v0.269c-0.161,0.107-0.215,0.323-0.43,0.323c-0.108,0.646-0.538,0.86-0.754,1.345h-0.107
		l-0.161,0.161v0.27c-0.431,0.054-0.216,0.431-0.592,0.646c-0.162,0.107-0.377,0.107-0.538,0.215
		c-0.107,0.054-0.162,0.162-0.27,0.27c-0.107,0.054-0.43,0.161-0.538,0.269c-0.161,0.161-0.161,0.054-0.269,0.161l-0.431,0.27
		l-0.376,0.107c-0.484,0.161-1.185,0.592-1.776,0.377l-0.43,0.161c-0.162,0-0.216-0.107-0.27-0.215
		c-0.914,0.054-1.506-0.431-2.206-0.754c-0.161-0.269-0.43-0.538-0.753-0.646c-0.161-0.484-0.592-0.699-0.753-1.184
		c-0.484-0.431-0.646-1.237-0.915-1.99c-0.161-0.377-0.377-0.808-0.484-1.184c-0.376-1.346-0.322-2.959-0.484-4.52
		c-0.054-0.431-0.054-0.861-0.054-1.237c0-0.377-0.107-0.7-0.107-1.076c0.054-0.161,0.161-0.377,0.161-0.592
		c0.055-0.484,0-0.915,0-1.453c0-0.484,0.108-0.914,0.108-1.398c0.054-0.377-0.054-0.699,0-1.022c0-0.107,0.054-0.215,0.054-0.323
		c0-0.215,0.054-1.667,0.054-1.829c0-0.376,0.376-1.453,0.484-1.883c0.161-1.237,0.054-1.022,0.538-2.044
		c0-0.592,0-0.753,0.161-1.238c-0.377-0.107-1.13,0.323-1.453,0c-0.161,0-1.345,0-1.452,0.054c-0.538-0.269-0.699,0.054-1.399-0.054
		c-0.161-0.269-0.592-0.323-0.753-0.592c-0.431,0-0.161-0.592-0.377-0.538c-0.107-0.108-0.161-0.377-0.054-0.538
		c0.162-0.269,0.484-0.431,0.754-0.431c0-0.107,0.269,0,0.215-0.215c0.161,0.108,0.323-0.054,0.484-0.107
		c0.054,0,0.107,0.054,0.161,0.054s0.161,0,0.216-0.054c0.107,0,0.215-0.161,0.376,0c0.161-0.323,0.592-0.107,0.753-0.43
		c0.431,0.107,1.022-0.269,1.453-0.108l1.184-0.484c0.27,0.108,0.27-0.161,0.592-0.054c0.054,0,0.107-0.107,0.161-0.107
		c0.323-0.431,0.27-0.915,0.377-1.506c0.107-0.054,0.107-0.108,0.215-0.215l0.216-0.269c0.161-0.646,0.269-1.883,0.699-2.421
		c0.054-0.108-0.161-0.215,0.107-0.215c-0.161-0.269,0.107-0.484-0.054-0.753c0.323-0.107,0.161-0.376,0.431-0.538
		c0-0.215,0.054-0.376,0.107-0.538c0.377,0.054,0.484-0.107,0.646-0.269c0.161,0.215,0.592,0.108,0.646,0.108
		c0.216,0.215,0.538,0.376,0.699,0.592c0.646,0.054,0.754,0.592,1.185,0.861c0.107,0.323,0.107,0.807,0.269,1.291
		c0,0.054,0.107,0.162,0.107,0.269c0.054,0.269,0,0.592,0,0.861c0.054,0.323,0.216,0.646,0.162,0.861
		c0,0.162-0.108,0.215-0.162,0.377c-0.107,0.43,0.054,0.915,0.107,1.291c0.27,0.054,0.861-0.215,1.13,0
		c0.216-0.215,0.646-0.161,0.969-0.215c0.107,0,0.161-0.107,0.215-0.107h0.431c0.107,0,0.161-0.054,0.27-0.054
		c0.054-0.054,0.107,0,0.215,0c0.215-0.054,0.377-0.107,0.646-0.107c0.27-0.108,0.538-0.054,0.861-0.054
		c0.054,0,0.161,0,0.269-0.054c0.107,0,0.107,0.108,0.215,0.108c0.162,0,0.484-0.162,0.646-0.054l0.161-0.161
		c0.431,0.054,0.484,0.215,0.753,0.161c0.054-0.054,0.107-0.054,0.107-0.054c0.162-0.054,0.377-0.054,0.538-0.054
		c0.592-0.054,0.592,0,1.292-0.107c0.376-0.054,1.184,0.215,1.452,0.107c0.054,0,0.107-0.054,0.161-0.054
		c0.055-0.054,0.055,0,0.108,0v-0.054h0.269c0.054,0,0.107-0.108,0.161-0.108c0.108-0.054,0.162,0,0.216,0
		c0.215-0.107,0.484-0.054,0.592-0.161h0.161c0.215-0.108,0.646,0.269,0.807,0.323c0.055,0.107,0.323,0.376,0.323,0.43
		c-0.161,0.054,0.054,0.162,0,0.269c-0.377,0.162-0.646,0.323-0.915,0.484c-0.107-0.054-0.161,0-0.215,0.054
		c-0.054,0-0.054,0.054-0.054,0.107c-0.161,0-0.27,0.108-0.431,0.108c-0.054,0.054-0.107,0.107-0.107,0.269
		c-0.107,0-0.107-0.054-0.107-0.108c-0.107,0.054-0.216,0.054-0.27,0.108c-0.215-0.054-0.483,0.215-0.699,0.215
		c-0.054,0,0,0.107-0.054,0.161c-0.161,0.054-0.107-0.107-0.215-0.054c-0.108,0-0.162,0.054-0.216,0.107
		c-0.215,0.108-0.484,0.108-0.592,0.269c-0.107,0-0.215,0-0.322,0.054l-0.108,0.054c-0.054,0.054-0.161,0-0.215,0.054l-0.215,0.107
		c-0.107,0.054-0.27,0-0.377,0c-0.161,0.054-0.322,0.162-0.484,0.162c-0.054,0-0.484,0.107-0.914,0.269
		c-0.484,0.161-0.969,0.161-1.076,0.161l-1.184,0.323c-0.323,0.108-0.699,0.215-1.184,0.215c-0.27,0-0.484,0.107-0.7,0.107
		c-0.269,0-0.538,0.108-0.86,0.162c-0.215,0-0.377,0.107-0.592,0.054c-0.215,0-0.646,0-0.915,0.108l-0.215,0.807
		c-0.054,0.162-0.161,0.215-0.215,0.323c0,0.484,0.054,0.538,0,0.968c-0.108,0.376,0,1.076-0.216,1.399
		c-0.054,0.376-0.161,1.345-0.054,1.722c0.107,0.376,0,0.753,0.215,0.968c-0.107,1.238,0.055,2.475-0.107,3.605
		c0.162,0.269,0.054,0.592,0.107,1.076c0,0.161,0.108,0.269,0.162,0.43c0.054,0.538-0.054,1.238,0.054,1.83
		c0.054,0.215,0.215,0.43,0.215,0.646c0.107,0.431,0.107,1.022,0,1.452c-0.054,0.27-0.054,1.022-0.107,1.507
		c0.699,0.915-0.054,1.561,0.538,2.421c-0.054,0.054,0.323,1.022,0.323,1.13c0,0.054,0.054,0.054,0.054,0.107
		c0.107,0.27,0.699,0.162,0.592,0.484c0.161,0.054,0.215,0.216,0.322,0.216c0.107,0.161,0.161-0.27,0.323-0.216
		c0.431-0.215,0.376-0.269,0.538-0.699L77.272,45.54z"/>
	<path fill="#FFF200" d="M93.789,32.628c0-0.108-0.161-0.216-0.377-0.27c-0.269-0.107-0.538-0.161-0.646-0.323
		c-0.054,0.162-0.538,0.108-0.322,0c-0.107-0.162-0.107,0.108-0.216,0.108c-0.753,0.376-2.044,0.86-2.367,1.614
		c-0.215,0.161-0.376,0.43-0.431,0.753c-0.161-0.054-0.107,0.054-0.215,0c-0.215,0.376-0.107,0.968-0.538,1.022
		c-0.161,0.322-0.538,0.538-0.592,0.914l-0.107,0.699c-0.269,0-0.323,0.323-0.484,0.484c0.054,0.323-0.269,0.592-0.215,0.915
		c-0.27,0.054-0.107,0.269-0.27,0.484l-0.107,0.054l0.054,0.054c-0.054,0.054-0.054,0.054-0.107,0.054
		c-0.054,0.215,0.215-0.054,0.161,0.215c-0.054,0.108-0.161-0.107-0.215,0c0.054,0.054,0.054,0.108,0.054,0.27
		c-0.107-0.054-0.107,0.054-0.161,0.054c-0.107,0.646-0.054,1.452-0.216,1.883c0.054,0.161,0.216,0.592,0.162,0.861
		c0,0.107-0.216,0.161-0.108,0.215c-0.161,0-0.215,0.161-0.215,0.27c0.377,0.322,0.107,0.807,0.431,1.184
		c0.107,0,0.054-0.054,0.161,0v0.215c0.377,0.054,0.107,0.592,0.323,0.753c-0.216,0.054-0.108,0.377-0.108,0.592
		c-0.215,0.162,0.431,0.538,0.538,0.754c0.323-0.108,0.431,0.054,0.915,0c0.215-0.108,0.215-0.431,0.484-0.484
		c0-0.107-0.054-0.107,0-0.216c0.322,0.162,0.431-0.269,0.699-0.322c0-0.27,0.161-0.323,0.215-0.538
		c0.592-0.323,0.646-1.076,0.484-1.775c0-0.054-0.054-0.054-0.054-0.161c-0.054,0,0.054-0.055,0-0.162
		c0-0.054-0.054-0.215-0.054-0.376c0-0.162,0.054-0.27,0.054-0.377c0-0.161-0.161-0.377,0.054-0.377
		c0.054-0.107-0.107,0-0.054-0.161c0.161-0.269-0.161-0.323,0.054-0.538c-0.054,0-0.054-0.054-0.054-0.107
		c0.323-0.538,0-1.399,0.538-1.722c-0.054-0.431,0.216-0.646,0.216-1.13c0.161-0.054,0.107-0.27,0.161-0.484
		c0.269-0.807,0.914-1.398,1.184-2.206c0.107,0,0.161,0.054,0.161-0.107h-0.161l0.484-0.161l0.968-0.538l0.108,0.161l0.592-0.377
		h0.699l0.215,0.108l0.377,0.215v0.215c0.322,0.162,0.269,0.646,0.699,0.7c-0.215,0.376,0,0.753,0.054,1.291
		c0.054,0.215,0.054,0.538,0.216,0.646c0.107,0.431-0.216,0.86-0.108,1.291c0,0.107-0.161,0.107-0.161,0.161
		c0.107,0.431-0.107,0.646,0.054,1.022c-0.161,0.162-0.107,0.27-0.215,0.592l-0.054-0.054v0.054c-0.108,0.054,0,0.484-0.108,0.646
		c-0.054,0.162,0.108,0.108,0.108,0.216c-0.216,0.161-0.27,0.646-0.162,1.022c-0.43,0.215-0.43,0.646-0.322,1.075
		c-0.216,0.108,0,0.431-0.323,0.538c0.054,0,0.054,0.055,0.054,0.108h-0.054v0.054c-0.107,0.322,0.162,0.538,0.162,1.021
		c0,0.055-0.108,0.108-0.108,0.108c-0.054,0.322,0,0.807,0.054,0.914c0.108,0.27,0.108,0.323,0.431,0.377
		c-0.161,0.161,0,0.269,0.107,0.269c0.054,0.162-0.161,0.054-0.107,0.216c0,0.107,0.216-0.054,0.161,0.107
		c0.055,0,0-0.107,0.108-0.107c0.107,0.054-0.108,0.161-0.108,0.161c0,0.161,0.323,0.215,0.484,0.377
		c0.054-0.054-0.054-0.27,0.162-0.216c0.161-0.054,0.054,0.216,0.107,0.216c0.215,0,0.161-0.216,0.054-0.27l0.215-0.161
		c-0.054-0.054-0.107-0.107-0.215-0.107c0.054-0.107,0.107,0,0.215,0c0.107-0.107,0-0.216,0-0.27
		c0.054-0.054,0.162-0.107,0.162-0.107c0-0.054-0.055-0.161,0-0.161c0.054-0.107,0.161-0.054,0.215-0.161
		c0-0.055,0.054-0.108,0.107-0.162l0.107-0.107c0.162-0.215,0.27-0.538,0.431-0.807c0,0,0.054-0.054,0.107-0.054l0.216-0.162v-0.215
		c0.161,0,0.107-0.215,0.269-0.215c0-0.162,0.054-0.216,0.054-0.377c0.216-0.27,0.377-0.592,0.431-1.076
		c0.161-0.215,0.377-0.484,0.538-0.807l0.054-0.216l0.107-0.107c0-0.054,0.054-0.054,0.054-0.107l0.107-0.323v-0.161h0.055
		l0.376-1.022c0.107-0.215,0.216-0.269,0.323-0.322c0.054-0.108,0.107-0.216,0.215-0.323l0.054-0.322l0.107-0.216
		c0.431-0.646,0.754-1.398,1.292-1.937c0-0.054-0.054-0.107-0.054-0.107c0-0.323,0.646-0.538,0.483-0.915
		c0.216-0.107,0.754-0.753,0.646-0.861c-0.162-0.107,0.107-0.107,0.161-0.107c0.269-0.161,0.431-0.43,0.86-0.376
		c0.054,0.161,0.054,0.376,0.054,0.538c0,0.269,0.055,0.483-0.107,0.753c-0.054,0.054-0.161,0.107-0.161,0.161
		c-0.107,0.27-0.054,0.538-0.107,0.754c-0.162,0-0.107,0.161-0.27,0.107c0,0.376-0.215,0.43-0.376,0.699
		c-0.054,0.107,0.054,0.161,0.054,0.269c-0.216-0.054-0.216,0.162-0.323,0.216l-0.054,0.322c-0.323,0.216-0.377,0.861-0.699,1.076
		c0,0.054,0.054,0.107,0.054,0.216c-0.107,0.054-0.161,0.161-0.215,0.215l-0.055,0.054c-0.215,0.484-0.646,1.722-0.753,2.206
		l-0.322,0.431c-0.27,0.699-0.323,1.398-0.592,1.883l-0.216,0.107c0.161,0.323-0.161,0.592-0.054,0.915
		c-0.107-0.054-0.161,0.054-0.215,0.054c-0.27,0.807-0.7,1.291-0.969,1.99c-0.538,0.216-0.538,0.969-1.237,1.022
		c-0.323,0.161-1.022,0.484-1.722,0.538h-0.915c-0.322-0.054-0.592-0.27-0.86-0.323c-0.592,0-1.346-0.269-1.722-0.646
		c-0.054,0-0.107,0-0.107,0.054c-0.216-0.322-0.538-0.538-0.915-0.699c-0.107-0.269-0.323-0.538-0.592-0.699
		c-0.107-0.161-0.161-0.323-0.323-0.377c0.108-0.161-0.054-0.269-0.054-0.376c-0.215,0.322-0.646,0.699-0.914,1.13
		c-0.216,0.054-0.484,0.054-0.592,0.215c-0.592,0.107-1.022,0.269-1.507,0.431c-0.161,0.269-0.431,0.43-0.646,0.592
		c-0.484-0.054-0.753,0.054-1.076,0c-0.054,0.107-0.107,0.161-0.269,0.161c-0.216-0.107-0.216-0.323-0.538-0.269l-0.162-0.27
		c-0.107,0.107-0.483,0.107-0.43-0.107h-0.27c-0.054-0.161-0.161-0.107-0.322-0.161l-0.162-0.216
		c-0.107-0.054-0.269-0.054-0.376-0.161l-0.27-0.215c-0.269-0.108-0.484,0-0.699-0.108c-0.107-0.054-0.161-0.215-0.27-0.269h-0.107
		c-0.107-0.054-0.269-0.215-0.376-0.323c-0.108-0.054-0.108-0.161-0.323-0.161c0-0.269-0.215-0.322-0.377-0.431
		c-0.269-0.376-0.43-0.807-0.753-1.13c-0.431-1.345-0.914-2.582-0.807-4.465c0.161-1.884,0.914-3.874,1.506-5.273
		c0.27-0.161,0.431-0.538,0.538-0.914c0.699-0.753,1.022-1.883,1.775-2.583c0-0.054-0.054-0.054-0.054-0.162
		c0.107-0.054,0.216-0.161,0.27-0.323l0.376-0.323c0.055-0.215,0.216-0.377,0.431-0.431c0.107-0.376,0.27-0.646,0.753-0.699
		c0.216-0.215,0.484-0.269,0.7-0.484c0.376-0.269,0.538-0.699,1.13-0.753h0.322c0.162-0.108,0.646-0.162,0.915-0.323
		c0.054,0,0.054-0.107,0.107-0.107l0.538-0.107c0.107-0.054,0.215,0.054,0.322,0.054c0.108-0.054,0.216,0.107,0.323,0.107
		l0.215-0.161c0.162-0.054,0.27,0.376,0.27,0.161c0.161,0.162,0.215,0,0.377-0.054c0.054,0.054,0.107,0.107,0.161,0.107
		c0.322-0.269,0.646,0,0.969,0.054c0.86-0.054,1.452,0.538,2.098,0.807c0.484,0.753,1.614,0.646,1.453,1.883
		c0,0.376-0.216,0.699-0.27,1.13l-0.269,0.054l-0.054,0.215L93.789,32.628z M93.036,35.533c0-0.055,0-0.162-0.054-0.162
		l-0.162,0.162h-0.054v0.054c-0.054,0-0.107,0.054-0.107,0.161c0.107,0,0.161-0.054,0.161-0.161h0.054v-0.054H93.036z
		 M93.358,35.103l-0.107-0.054l0.054,0.107c-0.215,0-0.054,0.322,0.054,0.161c-0.161-0.054,0-0.107,0-0.161h0.054L93.358,35.103z
		 M94.704,32.036c0-0.054,0-0.162-0.054-0.162l-0.162,0.162h-0.054v0.054c-0.054,0-0.107,0.054-0.107,0.162
		c0.107,0,0.161-0.054,0.161-0.162h0.054v-0.054H94.704z M95.026,31.605l-0.107-0.054l0.054,0.108c-0.215,0-0.054,0.323,0.054,0.161
		c-0.161-0.054,0-0.107,0-0.161h0.054L95.026,31.605z"/>
	<path fill="#FFF200" d="M114.128,47.531c-0.161,0.161-0.27,0.269-0.27,0.322c-0.161,0-0.322,0-0.483,0.107l-0.377,0.323
		c0,0-0.484,0.161-0.377,0.322c-0.054,0.108-0.054,0-0.161,0.054c-0.107,0.216-0.323,0.162-0.484,0.431
		c-0.161,0-0.161-0.054-0.377,0c-0.43,0.431-1.56-0.376-1.829,0.27c-0.054,0.054-0.054,0-0.054,0l-0.215,0.161
		c-0.323-0.161-0.431,0.054-0.592,0.107c-0.646,0.054-1.291-0.161-1.722-0.269c-0.161-0.108-0.323-0.162-0.323-0.484
		c-0.269-0.107-0.753,0-0.807-0.377c-0.323,0-0.377-0.054-0.538,0c-0.161-0.215-0.216-0.431-0.27-0.538
		c-0.322,0-0.322-0.376-0.699-0.322c0-0.27-0.269-0.323-0.484-0.377c-0.054-0.323-0.43-0.377-0.753-0.538
		c-0.054-0.054,0.054-0.054,0.054-0.107c-0.377-0.323,0.107-0.753-0.377-0.915c-0.161-0.484-0.322-1.021-0.537-1.345
		c0-0.107-0.108-0.161-0.216-0.161v-0.27c-0.054-0.107,0-0.269,0-0.592c-0.054-0.161-0.107-0.269-0.107-0.269
		c-0.107-0.538-0.107-1.076-0.161-1.561s0-1.13,0.054-1.668c0.054-0.161,0.215-0.322,0.215-0.592v-0.269l0.161-0.431
		c0-0.054-0.054-0.161,0-0.216c0.055-0.107,0.162-0.322,0.216-0.699l0.215-0.753l0.054-0.107c0.107-0.538,0.538-0.969,0.646-1.399
		c0-0.054,0.108-0.054,0.108-0.054c0.107-0.484,0.322-0.753,0.538-1.022c-0.055-0.054-0.055-0.215-0.055-0.376l0.162,0.054
		c0.269-0.323,0.376-0.646,0.753-0.861c-0.054-0.107,0.107-0.161,0-0.161c0-0.054,0.161-0.054,0.215-0.107V32.52
		c0-0.054,0.054,0.108,0.108,0c0.269-0.107,0.269-0.376,0.43-0.538c0.162-0.054,0.27-0.162,0.323-0.376
		c0.107,0,0.215-0.162,0.215-0.323c0.323,0.108,0.431-0.269,0.538-0.43l0.107,0.054l-0.054-0.107h0.054
		c0.216-0.215,0.538-0.323,0.7-0.592v-0.323c0.215,0,0.107,0.107,0.269,0.107c0.377-0.215,0.807-0.376,1.076-0.753
		c0.377,0,0.807-0.538,1.291-0.376c0.592-0.431,1.722-0.323,2.529-0.269c0.753,0.323,1.237,0.753,1.613,1.345v0.215
		c0.108,0.269,0.162,0.484,0.377,0.592c0.054,0.538,0.538,0.646,0.377,1.453c0,0.161-0.054,0.161-0.054,0.269
		c0.054,0.216-0.054,0.484,0.107,0.646c-0.054,0.484,0,0.592-0.216,0.861c-0.107,0.592-0.753,0-0.968,0.484l-0.323-0.377
		c0-0.431-0.538-0.86-0.753-1.13c-0.054,0.054-0.215,0-0.323,0c0,0.107,0,0.215-0.161,0.215c-0.161-0.161-0.646-0.054-0.753,0.323
		c-0.323,0-0.323,0.215-0.484,0.377h-0.054l0.054,0.054c-0.484,0.538-0.807,0.914-1.076,1.506c0.107,0-0.107,0.377-0.054,0.377
		l-0.27,0.215l-0.215,0.592c-0.107,0.108-0.107,0.216-0.161,0.27l-0.484,0.753c-0.054,0.216,0,0.431,0,0.538
		c-0.107,0.161-0.27,0.27-0.377,0.538c-0.269,0.646-0.322,1.614-0.43,2.152c-0.055,0.377-0.216,0.592-0.108,0.969
		c-0.161,0.322-0.376,0.699-0.376,1.13c0,0.107,0.161,0.322,0.161,0.43c0.054,0.107-0.107,0.107-0.107,0.162
		c-0.054,0.054,0.107,0.161,0.107,0.215c-0.107,0-0.215,0.054-0.269,0.323c0,0.107,0,0.269,0.054,0.376
		c0.054,0.054-0.054,0.054-0.054,0.107c0.107,0.216,0.107,0.431,0.376,0.484c-0.054,0.107,0.323,0.377,0.216,0.646
		c-0.055,0.107-0.216,0.054-0.323,0.054c0.107,0.377,0.484,0.431,0.592,1.022h0.269v0.107l0.055-0.054
		c0,0.27,0.322-0.054,0.322,0.162c0.107-0.055,0.27-0.055,0.431,0.107c0.107-0.107,0.054-0.27,0.161-0.27
		c0.161,0.054,0.323,0.107,0.431-0.054h0.054v-0.054c0.107,0.107,0.107,0.215,0.161,0.215c0.216-0.054,0.27-0.43,0.484-0.322
		c-0.107-0.107,0,0,0.054,0c-0.054-0.107,0.323-0.107,0.323-0.27h0.269c0.216-0.322,0.699-0.054,0.861-0.483
		c0.538,0,0.646-0.377,0.699-0.646c0-0.054,0.161,0.108,0.269,0c0-0.054-0.215,0-0.107-0.107c0.107-0.161,0.216,0,0.377,0.054
		c0-0.161,0.215-0.376,0.269-0.592c0.484,0.27,0.484-0.483,0.7-0.646c0-0.161,0.753-0.86,0.807-0.86
		c0.753-0.162,0.377-0.808,0.915-0.915c0.054-0.269,0.538-0.807,0.807-0.914c0.054,0,0,0.054,0,0.161
		c0.054,0,0.107-0.054,0.161-0.107l0.216-0.27c0.107-0.269,0.215-0.538,0.43-0.592c0.108-0.054,0-0.054,0.055-0.215
		c0.161,0,0.269-0.107,0.376-0.162l0.107-0.215l0.27-0.269c0.107-0.162,0.215-0.377,0.431-0.484
		c0.322-0.377,0.646-0.808,1.075-1.076V37.9c0-0.323,0.7-0.377,0.646-0.754c0.215-0.107,0.86-0.592,0.807-0.753
		c-0.161-0.161,0.107-0.054,0.161-0.054c0.323-0.107,0.538-0.377,0.915-0.215c0.054,0.215-0.054,0.43-0.054,0.538
		c-0.054,0.269-0.054,0.538-0.216,0.699l-0.269,0.161c-0.107,0.215-0.107,0.484-0.215,0.699c-0.162,0-0.108,0.162-0.27,0.054
		c-0.107,0.377-0.322,0.377-0.538,0.592c-0.054,0.108,0.054,0.162,0.054,0.27c-0.215-0.054-0.269,0.161-0.376,0.161l-0.162,0.323
		c-0.322,0.107-0.538,0.753-0.914,0.914c0,0.054,0.054,0.108,0.054,0.216c-0.323,0.107-0.538,0.484-0.699,0.753
		c-0.055,0.107-0.055,0.161-0.055,0.269h-0.215c0,0.108,0.054,0.108,0,0.162c-0.054,0-0.054,0.054-0.107,0.054l-0.054,0.269
		c-0.054,0.054-0.161,0.054-0.27,0.054c-0.161,0.538-0.483,0.969-0.699,1.399c-0.107,0.054-0.215,0.054-0.322,0.161v0.054h-0.054
		c-0.162,0.162-0.323,0.377-0.377,0.538c-0.107,0.054-0.161,0.107-0.216,0.107c-0.161,0.27-0.322,0.646-0.592,0.754l-0.054,0.269
		c-0.161,0.054-0.269,0.27-0.484,0.215c-0.215,0.593-0.753,1.346-1.075,1.723c-0.108-0.055-0.162,0-0.216,0l-0.161,0.161
		L114.128,47.531z"/>
	<path fill="#FFF200" d="M130.968,45.54c0-0.054,0.054-0.107,0.107-0.215c0.054-0.054,0.215-0.054,0.323-0.108v-0.322
		c0.161,0,0.107-0.215,0.269-0.215c0-0.162,0.054-0.216,0.054-0.377c0.216-0.27,0.377-0.592,0.431-1.076
		c0.322-0.431,0.592-0.915,0.914-1.453c0-0.161-0.054-0.161-0.054-0.269c0.054,0,0.108,0,0.108-0.054
		c0.215-0.699,0.43-0.969,0.86-1.614l0.054-0.322c0.484-0.7,0.808-1.561,1.399-2.152c0-0.054-0.054-0.107-0.054-0.107
		c0-0.323,0.646-0.538,0.483-0.915c0.216-0.107,0.754-0.753,0.646-0.861c-0.161-0.107,0.108-0.107,0.162-0.107
		c0.269-0.161,0.43-0.43,0.86-0.376c0.054,0.161,0.054,0.376,0.054,0.538c0,0.269,0.054,0.483-0.107,0.753
		c-0.054,0.054-0.161,0.107-0.161,0.161c-0.107,0.27-0.054,0.538-0.107,0.754c-0.162,0-0.108,0.161-0.27,0.107
		c0,0.376-0.215,0.43-0.376,0.699c-0.055,0.107,0.054,0.161,0.054,0.269c-0.216-0.054-0.216,0.162-0.323,0.216l-0.054,0.322
		c-0.323,0.216-0.377,0.861-0.699,1.076c0,0.054,0.054,0.107,0.054,0.216c-0.377,0.215-0.431,0.914-0.699,1.13
		c-0.054,0.107,0.054,0.161,0,0.215c-0.323,0.161-0.377,0.592-0.592,0.86c0,0.108,0.107,0.162,0.054,0.323
		c-0.107,0.323-0.162,0.323-0.323,0.538c0,0.484-0.107,0.054-0.107,0.538c-0.161,0.054-0.27,0.107-0.27,0.377
		c-0.376,0.269-0.322,0.968-0.699,1.237v0.269c-0.161,0.107-0.215,0.323-0.43,0.323c-0.108,0.646-0.538,0.86-0.754,1.345h-0.107
		l-0.161,0.161v0.27c-0.431,0.054-0.216,0.431-0.592,0.646c-0.162,0.107-0.377,0.107-0.538,0.215
		c-0.107,0.054-0.162,0.162-0.27,0.27c-0.107,0.054-0.43,0.161-0.538,0.269c-0.161,0.161-0.161,0.054-0.269,0.161l-0.431,0.27
		l-0.376,0.107c-0.484,0.161-1.185,0.592-1.776,0.377l-0.43,0.161c-0.162,0-0.216-0.107-0.27-0.215
		c-0.914,0.054-1.506-0.431-2.206-0.754c-0.161-0.269-0.43-0.538-0.753-0.646c-0.161-0.484-0.592-0.699-0.753-1.184
		c-0.484-0.431-0.646-1.237-0.915-1.99c-0.161-0.377-0.377-0.808-0.484-1.184c-0.376-1.346-0.322-2.959-0.484-4.52
		c-0.054-0.431-0.054-0.861-0.054-1.237c0-0.377-0.107-0.7-0.107-1.076c0.054-0.161,0.161-0.377,0.161-0.592
		c0.055-0.484,0-0.915,0-1.453c0-0.484,0.108-0.914,0.108-1.398c0.054-0.377-0.054-0.699,0-1.022c0-0.107,0.054-0.215,0.054-0.323
		c0-0.215,0.054-1.667,0.054-1.829c0-0.376,0.376-1.453,0.484-1.883c0.161-1.237,0.054-1.022,0.538-2.044
		c0-0.592,0-0.753,0.161-1.238c-0.377-0.107-1.13,0.323-1.453,0c-0.161,0-1.345,0-1.452,0.054c-0.538-0.269-0.699,0.054-1.399-0.054
		c-0.161-0.269-0.592-0.323-0.753-0.592c-0.431,0-0.161-0.592-0.377-0.538c-0.107-0.108-0.161-0.377-0.054-0.538
		c0.162-0.269,0.484-0.431,0.754-0.431c0-0.107,0.269,0,0.215-0.215c0.161,0.108,0.323-0.054,0.484-0.107
		c0.054,0,0.107,0.054,0.161,0.054s0.161,0,0.216-0.054c0.107,0,0.215-0.161,0.376,0c0.161-0.323,0.592-0.107,0.753-0.43
		c0.431,0.107,1.022-0.269,1.453-0.108l1.184-0.484c0.27,0.108,0.27-0.161,0.592-0.054c0.054,0,0.107-0.107,0.161-0.107
		c0.323-0.431,0.27-0.915,0.377-1.506c0.107-0.054,0.107-0.108,0.215-0.215l0.216-0.269c0.161-0.646,0.269-1.883,0.699-2.421
		c0.054-0.108-0.161-0.215,0.107-0.215c-0.161-0.269,0.107-0.484-0.054-0.753c0.323-0.107,0.161-0.376,0.431-0.538
		c0-0.215,0.054-0.376,0.107-0.538c0.377,0.054,0.484-0.107,0.646-0.269c0.161,0.215,0.592,0.108,0.646,0.108
		c0.216,0.215,0.538,0.376,0.699,0.592c0.646,0.054,0.754,0.592,1.185,0.861c0.107,0.323,0.107,0.807,0.269,1.291
		c0,0.054,0.107,0.162,0.107,0.269c0.054,0.269,0,0.592,0,0.861c0.054,0.323,0.216,0.646,0.162,0.861
		c0,0.162-0.108,0.215-0.162,0.377c-0.107,0.43,0.054,0.915,0.107,1.291c0.27,0.054,0.861-0.215,1.13,0
		c0.216-0.215,0.646-0.161,0.969-0.215c0.107,0,0.161-0.107,0.215-0.107h0.431c0.107,0,0.161-0.054,0.27-0.054
		c0.054-0.054,0.107,0,0.215,0c0.215-0.054,0.377-0.107,0.646-0.107c0.27-0.108,0.538-0.054,0.861-0.054
		c0.054,0,0.161,0,0.269-0.054c0.107,0,0.107,0.108,0.215,0.108c0.162,0,0.484-0.162,0.646-0.054l0.161-0.161
		c0.431,0.054,0.484,0.215,0.753,0.161c0.054-0.054,0.107-0.054,0.107-0.054c0.162-0.054,0.377-0.054,0.538-0.054
		c0.592-0.054,0.592,0,1.292-0.107c0.376-0.054,1.184,0.215,1.452,0.107c0.054,0,0.107-0.054,0.161-0.054
		c0.055-0.054,0.055,0,0.108,0v-0.054h0.269c0.054,0,0.107-0.108,0.161-0.108c0.108-0.054,0.162,0,0.216,0
		c0.215-0.107,0.484-0.054,0.592-0.161h0.161c0.215-0.108,0.646,0.269,0.807,0.323c0.055,0.107,0.323,0.376,0.323,0.43
		c-0.161,0.054,0.054,0.162,0,0.269c-0.377,0.162-0.646,0.323-0.915,0.484c-0.107-0.054-0.161,0-0.215,0.054
		c-0.054,0-0.054,0.054-0.054,0.107c-0.161,0-0.27,0.108-0.431,0.108c-0.054,0.054-0.107,0.107-0.107,0.269
		c-0.107,0-0.107-0.054-0.107-0.108c-0.107,0.054-0.216,0.054-0.27,0.108c-0.215-0.054-0.483,0.215-0.699,0.215
		c-0.054,0,0,0.107-0.054,0.161c-0.161,0.054-0.107-0.107-0.215-0.054c-0.108,0-0.162,0.054-0.216,0.107
		c-0.215,0.108-0.484,0.108-0.592,0.269c-0.107,0-0.215,0-0.322,0.054l-0.108,0.054c-0.054,0.054-0.161,0-0.215,0.054l-0.215,0.107
		c-0.107,0.054-0.27,0-0.377,0c-0.161,0.054-0.322,0.162-0.484,0.162c-0.054,0-0.484,0.107-0.914,0.269
		c-0.484,0.161-0.969,0.161-1.076,0.161l-1.184,0.323c-0.323,0.108-0.699,0.215-1.184,0.215c-0.27,0-0.484,0.107-0.7,0.107
		c-0.269,0-0.538,0.108-0.86,0.162c-0.215,0-0.377,0.107-0.592,0.054c-0.215,0-0.646,0-0.915,0.108l-0.215,0.807
		c-0.054,0.162-0.161,0.215-0.215,0.323c0,0.484,0.054,0.538,0,0.968c-0.108,0.376,0,1.076-0.216,1.399
		c-0.054,0.376-0.161,1.345-0.054,1.722c0.107,0.376,0,0.753,0.215,0.968c-0.107,1.238,0.055,2.475-0.107,3.605
		c0.162,0.269,0.054,0.592,0.107,1.076c0,0.161,0.108,0.269,0.162,0.43c0.054,0.538-0.054,1.238,0.054,1.83
		c0.054,0.215,0.215,0.43,0.215,0.646c0.107,0.431,0.107,1.022,0,1.452c-0.054,0.27-0.054,1.022-0.107,1.507
		c0.699,0.915-0.054,1.561,0.538,2.421c-0.054,0.054,0.323,1.022,0.323,1.13c0,0.054,0.054,0.054,0.054,0.107
		c0.107,0.27,0.699,0.162,0.592,0.484c0.161,0.054,0.215,0.216,0.322,0.216c0.107,0.161,0.161-0.27,0.323-0.216
		c0.431-0.215,0.376-0.269,0.538-0.699L130.968,45.54z"/>
</g>
</svg>
