<?xml version="1.0" encoding="utf-8"?>
<!-- Generator: Adobe Illustrator 16.0.0, SVG Export Plug-In . SVG Version: 6.00 Build 0)  -->
<!DOCTYPE svg PUBLIC "-//W3C//DTD SVG 1.1//EN" "http://www.w3.org/Graphics/SVG/1.1/DTD/svg11.dtd">
<svg version="1.1" id="Layer_1" xmlns="http://www.w3.org/2000/svg" xmlns:xlink="http://www.w3.org/1999/xlink" x="0px" y="0px"
	 width="144px" height="72px" viewBox="0 0 144 72" enable-background="new 0 0 144 72" xml:space="preserve">
<g opacity="0.8" enable-background="new    ">
	<path fill="#2635ED" d="M14.533,42.079l0.252-0.504c0.036-0.036,0.144-0.036,0.216-0.071v-0.217c0.108,0,0.072-0.144,0.18-0.144
		c0-0.108,0.036-0.145,0.036-0.252c0.144-0.18,0.432-0.216,0.468-0.54c0.216-0.288,0.396-0.612,0.612-0.972
		c0-0.108-0.036-0.108-0.036-0.181c0.036,0,0.072,0,0.072-0.035c0.144-0.469,0.288-0.648,0.576-1.08l0.036-0.216
		c0.324-0.468,0.54-1.044,0.936-1.44c0-0.036-0.036-0.071-0.036-0.071c0-0.217,0.432-0.36,0.324-0.612
		c0.144-0.072,0.504-0.504,0.432-0.576c-0.108-0.071,0.072-0.071,0.108-0.071c0.18-0.108,0.288-0.288,0.576-0.252
		c0.036,0.107,0.036,0.252,0.036,0.359c0,0.18,0.036,0.324-0.072,0.504c-0.036,0.036-0.108,0.072-0.108,0.108
		c-0.072,0.18-0.036,0.359-0.072,0.504c-0.108,0-0.072,0.107-0.18,0.071c0,0.252-0.144,0.288-0.252,0.469
		c-0.036,0.071,0.036,0.107,0.036,0.18c-0.144-0.036-0.144,0.108-0.216,0.144L18.42,37.4c-0.216,0.144-0.252,0.575-0.468,0.72
		c0,0.036,0.036,0.071,0.036,0.144c-0.252,0.145-0.288,0.612-0.468,0.756c-0.036,0.072,0.036,0.108,0,0.145
		c-0.216,0.107-0.252,0.396-0.396,0.575c0,0.072,0.072,0.108,0.036,0.217c-0.072,0.216-0.108,0.216-0.216,0.359
		c0,0.324-0.072,0.036-0.072,0.36c-0.108,0.036-0.18,0.071-0.18,0.252c-0.252,0.18-0.216,0.647-0.468,0.828v0.18
		c-0.108,0.072-0.144,0.216-0.288,0.216c-0.072,0.432-0.36,0.576-0.504,0.899h-0.036l0.036,0.036
		c-0.144,0.072-0.216,0.145-0.252,0.288c-0.144,0-0.216,0.072-0.324,0.252c-0.324,0.18-0.54,0.36-0.936,0.54l-0.54,0.288h-0.36
		l-0.468,0.288c-0.144,0.036-0.324-0.108-0.504,0c-0.18-0.18-0.54,0-0.756,0.036c-0.144,0-0.252-0.036-0.396-0.036
		c-0.18,0-0.36-0.072-0.468-0.108c-0.756,0-1.296-0.216-2.016-0.504c-0.396-0.288-0.792-0.54-1.224-0.899
		c-0.144-0.324-0.324-0.648-0.576-0.937c-0.216-0.323-0.54-1.044-0.612-1.619V40.46c-0.072-0.072-0.18-0.217-0.18-0.396
		c-0.072-0.324,0-0.864-0.216-1.116c0.036-0.035,0.072-0.144,0.072-0.216c-0.036-0.684,0-1.331,0.108-1.907
		c0.072-0.36,0.288-0.72,0.288-1.08l0.144-0.18c0.144-0.685,0.432-1.225,0.828-1.692c0.18-0.396,0.468-0.72,0.72-1.044
		c0.144-0.144,0.288-0.287,0.36-0.504c0.252-0.035,0.288-0.216,0.36-0.396c0.18,0.107,0.108-0.072,0.216-0.036l0.288-0.288
		l0.144-0.107l0.144-0.217c0.54-0.144,0.612-0.575,1.152-0.611c0.036-0.216,0.504-0.288,0.684-0.576
		c0.252,0.108,0.432-0.072,0.648-0.072c0.18,0,0.324,0.036,0.504,0.036c0.036,0,0.072-0.036,0.108-0.036
		c0.216,0,0.684,0.217,0.828,0.252c0.252,0.108,0.468,0.252,0.576,0.396c0.144,0,0.324,0,0.396,0.036
		c0.108,0.144,0.108,0.288,0.324,0.323c0.396,0.504,0.612,1.116,0.648,1.729c0.036,0.359-0.18,0.972-0.144,1.548
		c-0.396,0.216-0.612,0.468-0.72,0.936c-0.324,0.144-0.576,0.324-0.684,0.684h-0.108c-0.036,0.181-0.216,0.181-0.288,0.396
		c-0.144,0-0.216,0.144-0.288,0.252c-0.036,0.036-0.144,0.036-0.216,0.036c-0.432,0.216-0.756,0.611-1.368,0.756
		c-0.036,0.18-0.396,0.144-0.576,0.216l-0.252,0.359c-0.252,0-0.396,0.072-0.576,0.108c0.072,0.144-0.108,0.144,0,0.288
		c-0.18-0.036-0.036,0.072-0.18,0.072c0.072,0.611-0.216,0.936-0.036,1.367l-0.036,0.036h0.036c-0.216,0.216,0.108,0.54,0,0.828
		c0.108,0.18,0.18,0.324,0.18,0.647c-0.036,0.36,0.144,0.612,0.252,0.9c0.072,0,0.072,0.072,0.18,0.107c0,0.108,0,0.145,0.108,0.217
		c0.216,0.18,0.324,0.396,0.54,0.287c-0.072,0.181,0.252,0.036,0.18,0.217c0.144,0,0.18-0.036,0.216-0.108
		c0.144,0.072,0.216,0.144,0.396,0.144c0.324-0.071,0.324,0,0.54,0.036l0.36-0.107c0.288-0.072,0.72-0.036,0.72-0.324
		c0.288-0.108,0.576-0.144,0.648-0.288c0.036-0.072,0.144,0.036,0.216-0.036L14.533,42.079z M13.525,33.729
		c-0.036-0.252-0.18-0.288-0.36-0.18c0.036-0.108-0.108-0.036-0.072-0.181c0-0.036,0.108,0,0.108-0.036
		c-0.108-0.18-0.468-0.071-0.612-0.107c-0.252,0.252-0.54,0.504-0.648,0.936c-0.216,0.108-0.18,0.396-0.396,0.396
		c-0.036,0.504-0.324,0.72-0.396,1.151c-0.108,0-0.108-0.107-0.216-0.036c-0.252,0.288-0.216,0.72-0.396,1.008
		c0.288,0.036,0.216-0.288,0.576-0.288h0.108l0.324-0.432c0.036-0.072,0.036,0.108,0.144,0.036c0.072,0,0.216-0.216,0.36-0.108
		c-0.108-0.287,0.468-0.216,0.252-0.539c0.216,0.035,0.576,0,0.54-0.36c0.252,0.072,0.144-0.216,0.324-0.216
		c0.036-0.108-0.108-0.036-0.108-0.108c0.036-0.144,0.216,0,0.144-0.107l0.144-0.036l-0.072-0.072h0.072
		c0.18-0.144,0.252-0.36,0.216-0.684v-0.036H13.525z"/>
	<path fill="#2635ED" d="M27.852,31.137l0.036,0.036l0.036-0.072c0.252-0.072,0.288-0.468,0.468-0.647
		c0.288-0.108,0.36-0.433,0.648-0.54c-0.036-0.108,0.036-0.181,0.036-0.288l0.54-0.18c0.035,0.071,0.107,0.107,0.071,0.216
		c0.072-0.036,0.288,0,0.252-0.108c0.145,0.036,0.145,0.18,0.252,0.252c0.108,0,0.108-0.107,0.181-0.107v0.252
		c0.252,0.468,0.575,0.756,0.468,1.512c-0.181,0.18-0.252,0.468-0.216,0.647l-0.145,0.181c-0.144,0-0.144-0.036-0.216-0.072
		c-0.216,0.396-0.612,0.611-0.864,1.044h-0.216c0,0.359-0.756,1.331-0.972,1.439c0,0.145-0.036,0.252-0.144,0.288v-0.036
		l-0.036,0.036c-0.108,0-0.108,0.216-0.108,0.324c-0.288,0-0.359,0.216-0.504,0.504c-0.359,0.107-0.396,0.684-0.72,0.936
		c0,0.18,0.144,0.216,0.288,0.288l0.288,0.647c0.036-0.035,0.107,0.036,0.144,0.036c0,0.288,0.216,0.468,0.288,0.685v0.071
		l0.036-0.036c0,0.108,0.144,0.072,0.216,0.145c-0.108,0.18,0.108,0.288,0.18,0.432c0.036,0.396,0.396,0.468,0.469,0.937
		c0.18,0,0.323,0.791,0.396,0.863c0.18,0.036,0.647,0.145,0.647,0.252c0.252-0.107,0.217-0.144,0.469-0.144
		c0.18-0.324,0.323-0.685,0.611-0.685c0.216-0.18,0.36-0.359,0.433-0.647c0.252-0.108,0.359-0.396,0.575-0.54l0.036-0.288
		c0.108,0.072,0.108-0.036,0.18-0.036c0.181-0.288,0.252-0.575,0.433-0.684c0.036-0.18,0.144-0.324,0.288-0.324
		c0.144-0.432,0.359-0.756,0.575-1.044c0-0.18,0.072-0.216,0.036-0.396c0.108,0.072,0.145,0,0.181-0.036
		c0.252-0.324,0.432-0.54,0.575-0.936c0.181-0.072,0.468-0.288,0.612-0.288c0.216,0.18,0.036,0.359,0.18,0.611
		c0,0.36-0.324,0.648-0.288,1.08c-0.396,0.216-0.396,0.648-0.684,0.972c-0.108,0.54-0.324,0.864-0.504,1.332
		c-0.036-0.036-0.072,0.145-0.108,0.108c-0.144,0.359-0.359,0.576-0.432,0.899c-0.288,0.036-0.468,0.685-0.504,0.972
		c-0.036,0-0.072-0.035-0.18,0.036L32.1,41.287c-0.216,0.072-0.324,0.145-0.504,0.396c-0.108-0.036-0.216,0.036-0.252,0.18
		c-0.18-0.036-0.18,0.18-0.252,0.252c0,0.108-0.324,0.468-0.36,0.36c-0.036,0.144-0.144,0.18-0.252,0.216
		c-0.107,0.072-0.396,0.611-0.54,0.611l-0.288,0.036c0,0-0.287,0.108-0.323,0.108c-0.216,0.036-0.072-0.108-0.216,0.036
		c-0.108,0.036-0.108-0.072-0.217-0.036l-0.18,0.107c-0.072,0-0.216-0.287-0.252-0.252c-0.072,0-0.107,0.108-0.144,0.108
		c-0.288,0.072-0.504-0.468-0.792-0.504c-0.036,0-0.324-0.144-0.36-0.144c-0.18,0-0.252-0.576-0.468-0.469
		c0-0.071-0.144-0.071-0.18-0.144c-0.648-0.144-0.9-1.26-1.44-1.476c-0.18-0.252-0.359-0.433-0.611-0.648
		c-0.072,0.181-0.324,0.288-0.324,0.396c0,0.071-0.072,0.071-0.108,0.071c0.036,0.036,0.036,0.072,0,0.072l-0.035-0.036l0.035,0.072
		c-0.144,0.072-0.18,0.252-0.324,0.288c-0.036,0.107-0.144,0.216-0.18,0.288c-0.072,0.144-0.324,0.324-0.396,0.432
		c-0.036,0.18-0.036,0.288-0.18,0.504c0,0.036-0.072,0.072-0.072,0.108c-0.072,0.252-0.072,0.468-0.216,0.72
		c-0.396,0.072-0.468,0.647-0.72,0.972c0,0.216-0.036,0.396-0.072,0.54l-0.216,0.324c-0.18,0.504,0,0.972-0.072,1.439
		c-0.036,0.108,0.036,0.18,0.036,0.36c0.288,0.144,0.252,0.54,0.468,0.647c0.144,0.036,0.18-0.072,0.252-0.036
		c0.144,0.252,0.612,0.216,0.648,0.504c-0.108,0.181-0.504,0.072-0.648,0.216c-0.756-0.359-1.8-0.144-2.484-0.468l-0.252-0.252
		l-0.288-0.107c-0.36-0.288-0.432-0.685-0.684-1.008c0-0.252-0.072-0.433-0.18-0.685l-0.108-0.288
		c-0.036-0.396,0.072-0.899,0.108-1.367c0.108-0.504,0.036-1.08,0.36-1.44c0.144-0.791,0.576-1.151,0.864-1.8
		c0.396-0.252,0.576-0.72,0.828-1.151c0.144-0.036,0.252-0.216,0.36-0.252c0.468-0.9,1.151-1.476,1.799-2.16
		c-0.36-0.863-0.324-0.647-0.612-1.476c0.108-0.252-0.324-1.008-0.36-1.296c-0.036-0.18-0.216-0.936-0.396-1.008
		c-0.36,0.36-0.468-0.036-0.612,0.468c-0.144,0.036-0.108,0.181-0.216,0.216c-0.072,0.36-0.36,0.576-0.648,0.828
		c-0.252,0.216-0.468,0.396-0.54,0.756c-0.108,0.288-0.324,0.181-0.504,0.396c-0.216,0.144-0.288,0.323-0.432,0.468l-0.36,0.144
		c0.036-0.288-0.108-0.575,0.036-0.684l0.324-0.684c0.108-0.036,0-0.288,0.144-0.324c0.324-0.468,0.54-1.116,0.864-1.62
		c0.072-0.323,0.216-0.504,0.432-0.684c0.108-0.396,0.468-0.576,0.612-0.972c0.108,0,0.144-0.181,0.216-0.216
		c-0.036-0.181,0-0.108,0-0.288l0.288-0.252c0.072-0.072-0.072-0.036-0.036-0.145c0.108-0.144,0.216-0.216,0.432-0.252
		c0-0.18,0.036-0.288,0.072-0.359c0.144,0.071,0.288,0.216,0.432,0.216c0.144,0.072,0.108-0.108,0.18-0.145
		c0.072,0,0.036,0.145,0.108,0.145c0.144-0.036,0.252,0,0.468,0c0.036,0.072-0.036,0.107,0.036,0.18
		c0.036,0.216,0.288,0.252,0.468,0.36l0.972,1.188l0.145,0.36c0.144,0.18,0.18,0.288,0.252,0.468
		c0.036,0.216,0.288,0.396,0.324,0.647c0.035,0.072,0.107,0.108,0.18,0.145c-0.036,0.18,0.072,0.18,0.072,0.288
		c0.323-0.108,0.756-1.008,1.188-1.008l-0.108-0.108l0.324-0.108c-0.072-0.107-0.036-0.287,0.145-0.216
		c0.035,0,0.144-0.071,0.252-0.216l-0.108-0.18c0.072,0,0.144-0.036,0.216-0.108c0.036-0.036,0-0.072,0-0.072
		c0.072-0.107,0.252-0.18,0.18-0.323c0.145,0,0.396-0.181,0.54-0.108c0.036-0.036,0.036-0.072,0.036-0.072L27.852,31.137z"/>
	<path fill="#2635ED" d="M43.547,38.731c-0.107,0.072-0.18,0.216-0.252,0.36c-0.144,0.036-0.252,0.072-0.252,0.288
		c-0.287-0.036-0.323,0.144-0.396,0.216c-0.36,0-0.756,0.792-1.116,0.684c-0.252,0.181-0.396,0.181-0.792,0.252
		c-0.359,0.433-1.295,0.288-1.728,0.648c-0.107,0-0.107-0.145-0.18-0.145c-0.324,0.181-0.828,0.288-1.26,0.252
		c-0.18,0.145-0.145,0.433-0.18,0.685c-0.072,0.468-0.252,0.323-0.072,0.684c0.324-0.036,0.504,0.936,0.72,1.26
		c-0.036,0.612,0.576,0.324,0.792,0.864l0.54,1.296c0.359,0.504,0.324,1.224,0.684,1.8c-0.036,0.575,0.288,1.115-0.072,1.367
		c-0.071,0.252,0.108,0.433,0.145,0.72c0.107,0.433-0.18,0.9,0,1.296c-0.145,0.252-0.036,0.576-0.072,0.864
		c0,0.36-0.072,0.756-0.252,1.008c0.108,0.072-0.107,0.252-0.036,0.36c-0.036,0.18-0.071,0.252-0.071,0.432
		c-0.108,0.036-0.108,0.144-0.181,0.18c-0.18,0.576-0.504,1.26-0.863,1.692h-0.145c0.036,0.107-0.144,0.071-0.359,0.144
		c-0.288,0.145-0.648,0.36-1.008,0.324c-0.072,0.036-0.217,0.18-0.288,0.144c-0.145,0.216-0.9,0-1.044,0.072
		c-0.828,0.072-1.548-0.432-2.088-0.828l-0.54-0.972c-0.18-0.324-0.396-0.684-0.54-1.008c-0.072-0.252,0-0.54-0.252-0.72
		c0-0.216,0-0.396-0.108-0.54c0.108-0.324,0.072-0.72-0.035-1.044c0.144-0.756,0.035-1.62,0-2.447
		c-0.036-0.828,0.107-1.692,0.035-2.628c0-0.072,0.145-0.036,0.108-0.108c0-0.936,0.324-1.943,0.396-2.951
		c0-0.324-0.036-0.612,0-0.937c0-0.144,0.107-0.287,0.107-0.396c0.036-0.216-0.072-0.396-0.072-0.648
		c0-0.107,0.072-0.18,0.072-0.287c0,0,0.036-0.072,0.036-0.108c0,0-0.036-0.036-0.036-0.072c-0.072-0.144,0.108-0.54,0.18-0.72
		v-0.396c0.036-0.145,0.108-0.216,0.108-0.36c0-0.036-0.036-0.144-0.036-0.18c0.036-0.181,0.216-0.396,0.18-0.576
		c-0.035-0.324,0-0.684-0.035-1.08c-0.072-0.071-0.108-0.18-0.108-0.288c0-0.252,0.036-0.54,0.108-0.863
		c0-0.252-0.108-0.54-0.072-0.792c0-0.18,0.18-0.468,0.072-0.684c0.18-0.469,0.216-1.332,0.216-1.729
		c0.144,0,0.216-0.504,0.071-0.611c0.181-0.252,0.145-0.648,0.145-0.9c0.036-0.144,0.144-0.288,0.144-0.359
		c0-0.288-0.036-0.54,0-0.792c0-0.181,0.145-0.324,0.036-0.469c0-0.144-0.144-0.071-0.18-0.144
		c-0.036-0.576-0.576-0.756-0.396-1.224c0.181,0,0.36,0,0.504-0.036c0.036-0.252,0.324-0.252,0.469-0.432
		c0.468-0.036,0.72,0.144,1.044,0.071c0,0.108,0.611,0.108,0.504,0.252c0.287,0.288,0.252,0.9,0.611,1.116
		c0,0.396-0.107,0.288-0.144,0.648c0.036,0.107,0.18,0.432,0.252,0.539c-0.145,0.433-0.072,0.9,0.107,1.225
		c0.252-0.612,0.721-1.152,1.296-1.62c0.108-0.108,0.181-0.18,0.396-0.252c0.144-0.036,0.216-0.18,0.359-0.288
		c0.036,0,0.108,0.072,0.181,0c0.18-0.036,0.396-0.144,0.684-0.216c0.324,0,0.828,0.107,1.08,0.144
		c0.18,0.036,0.359,0.181,0.504,0.324c0.18,0.288,0.359,0.54,0.468,0.936c0.18,0.685,0.576,0.973,0.72,1.836l0.072,0.576
		c0.072,0.18,0.036,0.756,0.107,0.936c-0.035,0.288-0.144,0.792,0.036,1.152c-0.071,0.107-0.036,0.359-0.252,0.432
		c-0.036,0.324,0.145,0.504,0.145,0.72c0,0.396-0.288,0.252-0.433,0.721c-0.035,0.107,0,0.287-0.035,0.432
		c0,0.107-0.145,0.144-0.072,0.216c-0.145,0.036-0.324,0.576-0.324,0.684c0.145,0.036,0.396,0,0.468-0.288
		c0.072,0.072,0.072-0.035,0.216,0c0.145-0.144,0.54-0.287,0.648-0.432l0.396-0.432l0.324-0.468l0.288-0.433
		c0.072-0.107,0.072-0.252,0.18-0.359c0-0.108,0.108-0.181,0.181-0.252c0.071-0.072,0.107-0.145,0.144-0.216v-0.108
		c0.144-0.072,0.504-0.504,0.432-0.576c-0.107-0.071,0.072-0.071,0.108-0.071c0.18-0.108,0.288-0.288,0.576-0.252
		c0.035,0.107,0.035,0.252,0.035,0.359c0,0.18,0.036,0.324-0.071,0.504c-0.036,0.036-0.108,0.072-0.108,0.108
		c-0.072,0.18-0.036,0.359-0.072,0.504c-0.107,0-0.071,0.107-0.18,0.071c0,0.252-0.144,0.288-0.252,0.469
		c-0.036,0.071,0.036,0.107,0.036,0.18c-0.144-0.036-0.144,0.108-0.216,0.144L44.699,37.4c-0.216,0.144-0.252,0.575-0.468,0.72
		c0,0.036-0.145,0.071-0.145,0.144c-0.071,0.036-0.144,0.108-0.18,0.216L43.547,38.731z M38.508,31.568
		c-0.144,0.072-0.18,0.252-0.252,0.468c-0.072,0.145-0.18,0.288-0.18,0.396h-0.18c-0.145,0.324-0.181,0.18-0.36,0.504
		c-0.252,0.036-0.144,0.792-0.432,0.792c0,0.144-0.072,0-0.145,0.144c0-0.036,0.145,0.54,0.108,0.54
		c0.144,0.54,0.036,0.433,0.036,0.972c0,0.252,0.144,0.576,0.144,0.864c0,0.108-0.036,0.216-0.036,0.324
		c0.036,0.359,0.181,0.684,0.216,1.008c0.036,0.396-0.107,0.756,0,1.151c0.252,0.181,0.612,0.072,0.756,0.433
		c0.181-0.145,0.252-0.036,0.469,0c0-0.145,0.071-0.181,0.071-0.288c0.54-0.181,0.288-0.828,0.469-1.548
		c0.071-0.145,0.287-0.468,0.18-0.756c-0.108-0.216-0.216-0.433-0.216-0.648c-0.036-0.288,0.107-0.468,0.107-0.72
		c0.036-0.432-0.144-0.899-0.144-1.26c0-0.108,0.072-0.252,0.036-0.432c0-0.072-0.036-0.181-0.036-0.252
		c0-0.072,0.036-0.145,0.036-0.181c0.036-0.252-0.036-0.468,0-0.684c-0.036-0.036-0.145-0.036-0.145-0.072
		c0.181,0,0.072-0.144,0.108-0.252c0-0.071,0.072-0.071,0.072-0.216c0-0.18,0.107-0.252,0.035-0.468
		c-0.035-0.144-0.144-0.288-0.216-0.36c-0.036,0.072-0.072,0.036-0.18,0.072v-0.036h-0.036
		C38.616,31.028,38.508,31.28,38.508,31.568z M38.508,51.798c0-0.792,0.108-1.403,0-1.764c0.145-0.252-0.072-1.08-0.18-1.296
		c0.072-0.359-0.18-0.828-0.288-1.151c-0.036-0.288-0.216-0.828-0.36-0.937c-0.071-0.144-0.252-0.18-0.323-0.323
		c-0.145-0.108-0.145-0.288-0.288-0.324c-0.216,0.396-0.036,0.899-0.036,1.332c0,0.72-0.036,1.188,0.036,1.691
		c-0.216,0.324,0.072,1.332,0.144,1.692c0.036,0.18,0.036,0.396,0.036,0.575c0,0.072-0.107,0.216-0.144,0.324
		c-0.036,0.288,0.144,0.684,0.144,1.044c0,0.216-0.107,0.396-0.107,0.576c0,0.323,0.107,0.684,0.18,0.899
		c0.072,0.324,0.18,0.612,0.468,0.684c0.288-0.144,0.252-0.396,0.396-0.863C38.364,53.31,38.4,52.626,38.508,51.798z"/>
	<path fill="#2635ED" d="M53.232,42.079l0.252-0.504c0.035-0.036,0.144-0.036,0.216-0.071v-0.217c0.107,0,0.071-0.144,0.18-0.144
		c0-0.108,0.036-0.145,0.036-0.252c0.144-0.18,0.432-0.216,0.468-0.54c0.216-0.288,0.396-0.612,0.612-0.972
		c0-0.108-0.036-0.108-0.036-0.181c0.036,0,0.072,0,0.072-0.035c0.144-0.469,0.287-0.648,0.575-1.08l0.036-0.216
		c0.324-0.468,0.54-1.044,0.936-1.44c0-0.036-0.035-0.071-0.035-0.071c0-0.217,0.432-0.36,0.323-0.612
		c0.145-0.072,0.504-0.504,0.433-0.576c-0.108-0.071,0.071-0.071,0.107-0.071c0.181-0.108,0.288-0.288,0.576-0.252
		c0.036,0.107,0.036,0.252,0.036,0.359c0,0.18,0.036,0.324-0.072,0.504c-0.036,0.036-0.107,0.072-0.107,0.108
		c-0.072,0.18-0.036,0.359-0.072,0.504c-0.108,0-0.072,0.107-0.18,0.071c0,0.252-0.145,0.288-0.253,0.469
		c-0.035,0.071,0.036,0.107,0.036,0.18c-0.144-0.036-0.144,0.108-0.216,0.144L57.119,37.4c-0.216,0.144-0.252,0.575-0.468,0.72
		c0,0.036,0.036,0.071,0.036,0.144c-0.252,0.145-0.288,0.612-0.468,0.756c-0.036,0.072,0.036,0.108,0,0.145
		c-0.216,0.107-0.252,0.396-0.396,0.575c0,0.072,0.072,0.108,0.036,0.217c-0.071,0.216-0.107,0.216-0.216,0.359
		c0,0.324-0.072,0.036-0.072,0.36c-0.107,0.036-0.18,0.071-0.18,0.252c-0.252,0.18-0.216,0.647-0.468,0.828v0.18
		c-0.108,0.072-0.145,0.216-0.288,0.216c-0.072,0.432-0.36,0.576-0.504,0.899h-0.036l0.036,0.036
		c-0.144,0.072-0.216,0.145-0.252,0.288c-0.144,0-0.216,0.072-0.324,0.252c-0.323,0.18-0.54,0.36-0.936,0.54l-0.54,0.288h-0.36
		l-0.468,0.288c-0.144,0.036-0.323-0.108-0.504,0c-0.18-0.18-0.54,0-0.756,0.036c-0.144,0-0.252-0.036-0.396-0.036
		c-0.181,0-0.36-0.072-0.468-0.108c-0.756,0-1.296-0.216-2.017-0.504c-0.396-0.288-0.791-0.54-1.224-0.899
		c-0.144-0.324-0.324-0.648-0.576-0.937c-0.216-0.323-0.539-1.044-0.611-1.619V40.46c-0.072-0.072-0.18-0.217-0.18-0.396
		c-0.072-0.324,0-0.864-0.217-1.116c0.036-0.035,0.072-0.144,0.072-0.216c-0.036-0.684,0-1.331,0.108-1.907
		c0.071-0.36,0.288-0.72,0.288-1.08l0.144-0.18c0.144-0.685,0.432-1.225,0.828-1.692c0.18-0.396,0.468-0.72,0.72-1.044
		c0.144-0.144,0.288-0.287,0.36-0.504c0.252-0.035,0.287-0.216,0.359-0.396c0.18,0.107,0.108-0.072,0.216-0.036l0.288-0.288
		l0.145-0.107l0.144-0.217c0.54-0.144,0.612-0.575,1.152-0.611c0.035-0.216,0.504-0.288,0.684-0.576
		c0.252,0.108,0.432-0.072,0.647-0.072c0.181,0,0.324,0.036,0.504,0.036c0.036,0,0.072-0.036,0.108-0.036
		c0.216,0,0.684,0.217,0.828,0.252c0.252,0.108,0.468,0.252,0.575,0.396c0.145,0,0.324,0,0.396,0.036
		c0.108,0.144,0.108,0.288,0.324,0.323c0.396,0.504,0.611,1.116,0.647,1.729c0.036,0.359-0.18,0.972-0.144,1.548
		c-0.396,0.216-0.612,0.468-0.72,0.936c-0.324,0.144-0.576,0.324-0.685,0.684h-0.107c-0.036,0.181-0.217,0.181-0.288,0.396
		c-0.145,0-0.216,0.144-0.288,0.252c-0.036,0.036-0.145,0.036-0.216,0.036c-0.433,0.216-0.756,0.611-1.368,0.756
		c-0.036,0.18-0.396,0.144-0.576,0.216L49.2,37.939c-0.252,0-0.396,0.072-0.575,0.108c0.071,0.144-0.108,0.144,0,0.288
		c-0.181-0.036-0.036,0.072-0.181,0.072c0.072,0.611-0.216,0.936-0.036,1.367l-0.035,0.036h0.035c-0.216,0.216,0.108,0.54,0,0.828
		c0.108,0.18,0.181,0.324,0.181,0.647c-0.036,0.36,0.144,0.612,0.252,0.9c0.071,0,0.071,0.072,0.18,0.107
		c0,0.108,0,0.145,0.108,0.217c0.216,0.18,0.323,0.396,0.539,0.287c-0.071,0.181,0.252,0.036,0.181,0.217
		c0.144,0,0.18-0.036,0.216-0.108c0.144,0.072,0.216,0.144,0.396,0.144c0.324-0.071,0.324,0,0.54,0.036l0.36-0.107
		c0.288-0.072,0.72-0.036,0.72-0.324c0.288-0.108,0.576-0.144,0.647-0.288c0.036-0.072,0.145,0.036,0.217-0.036L53.232,42.079z
		 M52.224,33.729c-0.035-0.252-0.18-0.288-0.359-0.18c0.036-0.108-0.108-0.036-0.072-0.181c0-0.036,0.108,0,0.108-0.036
		c-0.108-0.18-0.468-0.071-0.612-0.107c-0.252,0.252-0.54,0.504-0.647,0.936c-0.216,0.108-0.181,0.396-0.396,0.396
		c-0.036,0.504-0.324,0.72-0.396,1.151c-0.108,0-0.108-0.107-0.216-0.036c-0.252,0.288-0.217,0.72-0.396,1.008
		c0.288,0.036,0.216-0.288,0.576-0.288h0.107l0.324-0.432c0.036-0.072,0.036,0.108,0.145,0.036c0.071,0,0.216-0.216,0.359-0.108
		c-0.107-0.287,0.468-0.216,0.252-0.539c0.216,0.035,0.576,0,0.54-0.36c0.252,0.072,0.145-0.216,0.324-0.216
		c0.036-0.108-0.108-0.036-0.108-0.108c0.036-0.144,0.216,0,0.145-0.107l0.144-0.036l-0.072-0.072h0.072
		c0.18-0.144,0.252-0.36,0.216-0.684v-0.036H52.224z"/>
	<path fill="#2635ED" d="M68.71,35.168c-0.107-0.071,0.072-0.071,0.108-0.071c0.18-0.108,0.288-0.288,0.576-0.252
		c0.036,0.107,0.036,0.252,0.036,0.359c0,0.18,0.036,0.324-0.072,0.504c-0.036,0.036-0.108,0.072-0.108,0.108
		c-0.071,0.18-0.036,0.359-0.071,0.504c-0.108,0-0.072,0.107-0.181,0.071c0,0.252-0.144,0.288-0.252,0.469
		c-0.036,0.071,0.036,0.107,0.036,0.18c-0.144-0.036-0.144,0.108-0.216,0.144L68.53,37.4c-0.216,0.144-0.252,0.575-0.468,0.72
		c0,0.036,0.036,0.071,0.036,0.144c-0.252,0.145-0.288,0.612-0.468,0.756c-0.036,0.072,0.036,0.108,0,0.145
		c-0.216,0.107-0.252,0.396-0.396,0.575c0,0.072,0.072,0.108,0.036,0.217c-0.072,0.216-0.107,0.216-0.216,0.359
		c0,0.324-0.072,0.036-0.072,0.36c-0.107,0.036-0.18,0.071-0.18,0.252c-0.252,0.18-0.216,0.647-0.468,0.828v0.18
		c-0.108,0.072-0.145,0.216-0.288,0.216c-0.072,0.432-0.36,0.576-0.504,0.899c-0.072-0.035-0.108,0-0.145,0
		c-0.071,0.145-0.323,0.36-0.575,0.433c-0.072,0.216-0.252,0.323-0.469,0.396c-0.035,0-0.035,0.072-0.035,0.108
		c-0.108-0.036-0.181,0.107-0.252,0.144c-0.324,0.072-0.252,0.288-0.54,0.324h-0.36c-0.036,0-0.036-0.036-0.072-0.036
		c-0.144,0.072-0.287,0.108-0.539,0.18c-0.324-0.107-0.864-0.18-1.188-0.252l-0.036-0.216c-0.107,0-0.252-0.036-0.396-0.107
		c-0.036-0.036-0.072-0.145-0.145-0.181c-0.107-0.071-0.252-0.107-0.359-0.216c-0.18-0.18-0.216-0.468-0.396-0.647
		c0.036-0.216-0.144-0.433-0.18-0.685c0-0.18,0.036-0.432,0-0.684c0-0.18-0.036-0.324-0.036-0.504c0-0.144,0.036-0.288,0.036-0.432
		c0-0.036-0.036-0.108,0-0.145c0-0.107,0.072-0.252,0.072-0.359c0-0.036-0.036-0.108-0.036-0.145l0.144-0.396
		c0.072-0.216,0.036-0.396,0.181-0.54c0.036-0.072-0.036-0.072,0-0.145c0.107-0.035,0.036-0.287,0.18-0.287
		c-0.036-0.145,0.036-0.145,0-0.252c0.108-0.108,0.18-0.217,0.18-0.396c0.468-0.504,0.288-0.684,0.792-1.151
		c0.072-0.108,0.072-0.288,0.18-0.288c0-0.145-0.287-0.181-0.216-0.252c-0.144,0-0.432,0.216-0.611,0.216l-0.612-0.108l-0.792,0.036
		c-0.144-0.072-0.396,0.036-0.576,0h-0.432l-0.72-0.216c-0.504,0.144-0.18-0.144-0.972-0.396c0.144-0.108-0.36-0.288-0.252-0.469
		c-0.252-0.287-0.181-0.684-0.252-0.863l0.071-0.145c-0.071-0.252-0.216-0.504-0.144-0.863l0.18-0.937
		c0.036-0.252,0.468-0.54,0.468-0.899c0.072,0,0.072-0.108,0.145-0.145c-0.036-0.107,0.036-0.144,0.036-0.252
		c0.107-0.216,0.216-0.359,0.323-0.539c0.036-0.108,0.036-0.217,0.108-0.324c0.108-0.18,0.396-0.288,0.396-0.54
		c0.107-0.072,0.216-0.145,0.216-0.324c0.071,0,0.18,0,0.216,0.036c0.036-0.108,0.036-0.216,0.107-0.288
		c0.145,0.036,0.145,0.216,0.217,0.288c0.107,0.036,0.107-0.072,0.18-0.072c0.18,0.072,0.359,0.324,0.611,0.36
		c0.181,0.036,0.288,0.107,0.433,0c0.107-0.036,0.036,0.144,0.107,0.18c0.072,0.036,0.108,0.036,0.216,0
		c0,0.252,0.217,0.288,0.396,0.36l0.18,0.72c0,0.252,0.072,0.468-0.107,0.576c-0.036,0.18,0.036,0.252-0.072,0.323
		c0,0.181-0.36,0.973-0.396,1.116c-0.035,0.145,0.072,0.145,0.072,0.252c-0.216,0.432-0.072,0.684-0.144,1.188
		c0.18,0.145,0.324,0.253,0.396,0.469c0.108,0,0.181-0.036,0.216-0.072c0.145,0.144,0.324,0.108,0.469,0.288
		c0.18-0.145,0.359-0.036,0.504-0.18c0.287,0.107,0.359-0.108,0.684-0.036c0.144-0.108,0.576,0.036,0.612-0.145
		c0.107-0.036,0.323,0.108,0.287-0.071c0.072,0,0.036,0.107,0.108,0.107c0.072-0.036,0.072-0.107,0.144,0
		c0-0.036,0.036-0.072,0.036-0.107c0.252,0,0.216-0.108,0.504,0.035c0.036,0.288,0.54-0.035,0.433,0.145
		c0,0.144,0.071,0.216,0.216,0.252c0.359,0.18,0.18,0.756,0.107,1.26c-0.216,0.216,0.072,0.036,0.036,0.36
		c-0.036,0.144-0.18,0.144-0.072,0.287c-0.18,0.108-0.216,0.36-0.359,0.469c0.107,0.216-0.108,0.323,0,0.468
		c-0.036,0.071-0.072,0.252,0,0.359c-0.145,0.036-0.145,0.288-0.216,0.468c0.036,0.036,0.107,0.036,0.107,0.072
		c0,0.108-0.144,0.072-0.144,0.145c0.036,0.18-0.108,0.216-0.108,0.359c0.108,0.396-0.036,0.828,0.036,1.188
		c-0.036,0.18-0.18,0.359-0.036,0.504c-0.071,0.252,0,0.575,0,0.827c0,0.036,0.036,0.036,0.072,0.036l-0.108,0.145
		c0.108,0.323,0.181,0.611,0.36,0.071c0.072,0,0.036,0.108,0.108,0.108c0.144-0.036,0.396-0.108,0.432-0.252
		c0.252-0.144,0.18-0.144,0.324-0.396c0.036-0.036,0.144-0.036,0.216-0.072v-0.216c0.107,0,0.072-0.145,0.18-0.145
		c0-0.107,0.036-0.144,0.036-0.252c0.144-0.18,0.252-0.396,0.288-0.72c0.216-0.288,0.396-0.612,0.611-0.972
		c0-0.108-0.035-0.108-0.035-0.181c0.035,0,0.071,0,0.071-0.035c0.145-0.469,0.288-0.648,0.576-1.08l0.036-0.216
		c0.324-0.468,0.54-1.044,0.936-1.44c0-0.036-0.036-0.071-0.036-0.071c0-0.217,0.433-0.36,0.324-0.612
		C68.423,35.672,68.782,35.24,68.71,35.168z"/>
	<path fill="#2635ED" d="M74.039,42.188l0.071,0.036c0.072-0.145,0.145-0.324,0.252-0.468c0.036-0.036,0.145-0.036,0.217-0.072
		v-0.216c0.107,0,0.071-0.145,0.18-0.145c0-0.107,0.036-0.144,0.036-0.252c0.144-0.18,0.252-0.396,0.288-0.72
		c0.216-0.288,0.396-0.612,0.611-0.972c0-0.108-0.036-0.108-0.036-0.181c0.036,0,0.072,0,0.072-0.035
		c0.144-0.469,0.288-0.648,0.576-1.08l0.036-0.216c0.323-0.468,0.54-1.044,0.936-1.44c0-0.036-0.036-0.071-0.036-0.071
		c0-0.217,0.432-0.36,0.324-0.612c0.144-0.072,0.504-0.504,0.432-0.576c-0.107-0.071,0.072-0.071,0.108-0.071
		c0.18-0.108,0.288-0.288,0.576-0.252c0.035,0.107,0.035,0.252,0.035,0.359c0,0.18,0.036,0.324-0.071,0.504
		c-0.036,0.036-0.108,0.072-0.108,0.108c-0.072,0.18-0.036,0.359-0.072,0.504c-0.107,0-0.071,0.107-0.18,0.071
		c0,0.252-0.144,0.288-0.252,0.469c-0.036,0.071,0.036,0.107,0.036,0.18c-0.145-0.036-0.145,0.108-0.216,0.144L77.818,37.4
		c-0.216,0.144-0.252,0.575-0.468,0.72c0,0.036,0.036,0.071,0.036,0.144c-0.252,0.145-0.288,0.612-0.469,0.756
		c-0.035,0.072,0.036,0.108,0,0.145c-0.216,0.107-0.252,0.396-0.396,0.575c0,0.072,0.072,0.108,0.036,0.217
		c-0.072,0.216-0.108,0.216-0.216,0.359c0,0.324-0.072,0.036-0.072,0.36c-0.108,0.036-0.18,0.071-0.18,0.252
		c-0.252,0.18-0.217,0.647-0.469,0.828v0.18c-0.107,0.072-0.144,0.216-0.287,0.216c-0.072,0.432-0.288,0.612-0.433,0.936
		c-0.071-0.036-0.252,0.504-0.288,0.504l-0.287,0.396l-0.433,0.54c-0.18,0.18-0.144,0.288-0.396,0.396
		c-0.108,0.324-0.864,0.684-0.937,0.576c-0.647,0.036-0.684-0.108-1.224,0.072c-0.432-0.036-1.224-0.072-1.584-0.36
		c-0.071,0-0.107-0.216-0.18-0.252c-0.612-0.216-0.899-0.612-1.116-1.152c-0.071,0-0.216-0.684-0.252-0.72
		c-0.035-0.504-0.252-1.008-0.107-1.548c-0.36-0.647-0.324-1.476-0.252-2.304c0.036-0.756,0.072-1.548,0.18-2.268
		c0.036-0.216-0.036-0.396,0-0.576c0-0.035,0.072-0.107,0.072-0.144c0.036-0.036,0.072-0.828,0.072-0.828
		c0-0.144,0.071-0.216,0.071-0.323l0.252-0.937c0.036-0.072-0.036-0.107-0.071-0.144c0-0.108,0.107,0,0.107-0.108
		c0.036-0.107-0.072-0.107-0.072-0.18c0.036-0.108,0.181-0.036,0.217-0.072c0-0.216,0.144-0.288,0.18-0.504
		c0.216-0.036,0.288,0.072,0.468-0.036l0.324-0.288l0.396,0.108l0.468,0.036c0.036,0.036,0.181,0.036,0.252,0.144v-0.071h0.072
		c0,0.287,0.576,0.18,0.756,0.432c-0.144,0.072,0.108,0.107,0.108,0.216c0.036-0.108,0.216-0.072,0.252-0.072
		c0.144,0.072-0.072,0.108-0.072,0.145l0.216,0.216c0,0.036-0.071,0.036-0.107,0.036c0,0.071,0.107,0.144,0.18,0.18
		c-0.072,0.216,0.828,0.648,0.036,0.648c0.107,0.539,0,2.016,0,2.699c0,0.036-0.036,0-0.036,0.036
		c0.108,0.54-0.36,1.151-0.108,1.619c-0.071,0.864,0.145,0.685,0.145,1.477c0.036,0.107,0.072,1.044,0.072,1.115
		c0.035,0.108,0.035,0.54,0.035,0.612c0.108,0.216,0.181,0.396,0.108,0.612c0.072,0.071,0.216,0.359,0.396,0.323
		c0,0.072,0.648-0.432,0.54-0.323C73.823,42.979,73.931,42.547,74.039,42.188z M69.539,31.568v-0.468
		c-0.216-0.396-0.396-0.936,0.145-1.008c0.036-0.324,0.252-0.54-0.036-0.684c0.072-0.145,0.216-0.216,0.036-0.252
		c0-0.145,0.216-0.145,0.107-0.324c0.036,0,0.108-0.036,0.181,0c0.035-0.252,0.287-0.288,0.396-0.468
		c0-0.036-0.072-0.108-0.144-0.145c0.144,0,0.252-0.035,0.432-0.035c0.072-0.108-0.108-0.072-0.072-0.108
		c-0.036-0.144,0.108-0.144,0.145-0.072c0-0.071,0.035-0.071,0.035-0.144l0.036,0.036v-0.036c0.072-0.036,0.108-0.072,0.181-0.036
		c0.107,0.072,0.18,0.108,0.216,0.216c0,0.108-0.108,0.036-0.036,0.108c0,0.071,0.107,0.036,0.144,0.036
		c0-0.072-0.071-0.036-0.107-0.072c0.107-0.216,0.288-0.145,0.432-0.145c0.036,0.036-0.036,0.108,0,0.145l-0.036,0.036h0.036
		c0.036,0.036,0.145,0.107,0.18,0.071c0.108,0.072,0.108,0.145,0.145,0.288c0.432,0.036,0.576,0.433,0.863,0.108
		c0.108,0,0.108,0.107,0.217,0.107c0,0.181,0.071,0.576,0.18,0.721c-0.145,0.396,0,0.792-0.216,1.188
		c0.071,0.144-0.108,0.216-0.036,0.288c0,0.072,0.036,0.18,0.036,0.216s-0.036,0.072-0.036,0.108
		c-0.036,0.035,0.036,0.144,0.036,0.144c-0.036,0.252-0.288,0.396-0.54,0.504c0.072,0.072,0.144-0.036,0.144,0.108
		c-0.396,0.035-0.54,0.288-0.972,0.252c-0.216,0.071-0.288,0.071-0.54,0.036l-0.252-0.036l-0.396-0.217l-0.396-0.144L69.539,31.568z
		 M69.755,32.937c0,0-0.144-0.036-0.144,0C69.684,32.937,69.755,33.08,69.755,32.937z"/>
	<path fill="#2635ED" d="M89.59,35.564c-0.252,0.359-0.288,0.252-0.36,0.756c-0.107,0.071-0.144,0.18-0.216,0.252l-0.252,0.611
		c-0.18,0.252-0.288,0.792-0.432,1.08c0.071,0.252-0.324,0.648-0.324,0.9c-0.072,0.432-0.144,0.827-0.324,1.008
		c0.108,0.359-0.216,0.432-0.144,0.756c0,0.071-0.072,0.359-0.108,0.396c-0.107,0.108-0.144,0.324-0.288,0.433
		c-0.071,0.071,0,0.432-0.216,0.468c-0.107,0.036,0.145,0.288-0.072,0.288c-0.071,0.035-0.144,0.18-0.287,0.18
		c-0.036,0-0.145,0.036-0.072,0.036c-0.216,0.071-0.18,0.288-0.396,0.288c-0.071,0-0.035,0.071-0.107,0.071
		c-0.18-0.071-0.324,0.036-0.504-0.071c-0.108,0-0.036,0.107-0.145,0.107c0.036-0.036,0-0.072,0-0.107
		c-0.107,0.035-0.144,0-0.18-0.036c-0.108,0-0.144,0.036-0.18,0.036s-0.036-0.036-0.036-0.072c-0.108,0-0.072,0.072-0.145,0.036
		c0-0.036-0.071-0.036-0.071-0.072l-0.756-0.288c-0.108-0.072-0.216-0.18-0.252-0.359c-0.036-0.072-0.036-0.181-0.036-0.288
		c0-0.072-0.108-0.54-0.145-0.612c0.072-0.108,0.072-0.252-0.071-0.324c0-0.036,0.144,0,0.144-0.071
		c-0.036-0.108-0.036-0.145-0.036-0.288c-0.18-0.036,0.108-0.252,0.072-0.396c-0.108-0.036-0.072-0.323-0.072-0.359
		c0.072,0,0.108-0.54,0.145-0.54c0.036-0.108-0.108-0.612-0.108-0.685c0-0.035,0.072-0.107,0.072-0.18s0.036-0.756,0.072-0.899
		c0-0.108,0.071-0.181,0.071-0.252c0.036-0.145,0-0.216,0.072-0.288c0.036-0.145-0.072-0.072-0.072-0.18
		c0.036-0.108,0.036-0.324,0.145-0.36c-0.036-0.324,0.071-0.684-0.072-0.936c0.036-0.072-0.144,0.035-0.108-0.072
		c0.072-0.108,0.288-0.324,0.072-0.468c0-0.108,0.036-0.036,0.108-0.036c0.071-0.396,0.071-0.685,0.036-1.044
		c-0.145,0.107-0.145,0.359-0.288,0.468v0.216c-0.468,0.36-0.324,1.26-0.828,1.584c0.072,0.252-0.108,0.468-0.216,0.612
		c0.036,0.18,0,0.216,0.036,0.288c-0.252,0.359-0.181,1.224-0.576,1.512c0.036,0.252-0.036,0.432-0.072,0.647
		c-0.107,0.54-0.396,0.936-0.468,1.476v0.216c-0.108,0.433-0.396,0.792-0.504,1.225c-0.072,0.036-0.072,0.107-0.144,0.144v0.216
		c-0.145,0.036-0.145,0.288-0.253,0.396c-0.396,0.071-0.72,0.107-0.972,0.359c-0.144,0-0.288-0.036-0.468-0.036
		c-0.359,0.036-0.611,0.288-1.008,0.217c-0.144-0.036-0.324-0.145-0.504-0.108c-0.072-0.216-0.324-0.252-0.468-0.432v-0.216
		c-0.18-0.396-0.324-0.756-0.432-1.225c0-0.071,0.071-0.071,0.071-0.107c-0.107-0.324-0.144-0.576-0.288-0.864
		c0.108-0.252-0.107-0.72,0.072-1.008c-0.107-0.144,0-0.324-0.036-0.504c-0.036-0.072,0.036-0.072,0.072-0.108
		c-0.072-0.252,0.036-0.611-0.072-0.791c0.108-0.217,0.072-0.54,0.108-0.828l0.072-0.54c0.035-0.145,0.107-0.252,0.107-0.36
		c0-0.107-0.036-0.216-0.036-0.288c0.036-0.144,0.108-0.252,0.108-0.432c0.036-0.144,0-0.288,0.036-0.396l0.144-0.216
		c0.036-0.145,0-0.288,0.145-0.396c-0.072-0.144,0.071-0.36-0.145-0.396c0.036-0.036,0.072,0,0.072-0.036
		c0-0.181,0.072-0.072,0.107-0.072c0.181-0.144,0.108-0.54,0.324-0.647c0.108,0.107,0.36,0,0.432,0.144
		c0.108-0.036,0.108-0.18,0.108-0.288h0.036l0.036-0.036c0.072,0,0.107-0.036,0.18-0.144c0.108,0.216,0.432,0.18,0.576,0.252
		c0.036-0.072,0.216,0,0.18-0.108c0.145,0,0.108,0.181,0.288,0.108c0.072,0.288,0.252,0.468,0.504,0.54
		c-0.18,0.144-0.072,0.54,0.108,0.684c-0.217,0.252,0.071,0.396-0.036,0.792c0.107,0.144,0,0.18,0.071,0.432
		c-0.18,0.216,0.036,0.504-0.071,0.685c0,0.035,0.071,0.035,0.107,0.035c-0.216,0.433-0.144,0.721-0.18,1.296v0.072h-0.036
		c-0.036,0.145-0.036,0.36,0.108,0.468h-0.108c0,0.216-0.072,0.576,0.072,0.756c-0.072,0.217-0.036,0.469,0.107,0.648
		c-0.144-0.036-0.144,0.324,0,0.396c-0.144,0.576,0.181,0.396,0.288-0.036c0-0.071-0.107-0.035-0.071-0.107
		c0.144-0.18,0.252-0.432,0.252-0.792c0.18-0.216,0-0.576,0.216-0.756c-0.072-0.18,0.036-0.18,0-0.396
		c0.216-0.071,0.107-0.504,0.324-0.575c0.035-0.54,0.323-0.792,0.396-1.296c0-0.108,0.108-0.108,0.144-0.181
		c0-0.144-0.071-0.144-0.035-0.216c0.107-0.071,0.216-0.216,0.216-0.396c0.144-0.108,0.144-0.324,0.18-0.54
		c0.108,0.036,0.072-0.072,0.144-0.072c0.036-0.288,0.181-0.432,0.145-0.756c0.288-0.072,0.252-0.504,0.468-0.684
		c0-0.108-0.072-0.108-0.036-0.252c0.108,0,0.072-0.324,0.181-0.324c0.18-0.359,0.216-0.432,0.323-0.864
		c0.108,0.036,0.072-0.144,0.181-0.144c0.035-0.144-0.072-0.252,0-0.324c0.071,0,0.107,0.072,0.144,0.145
		c0.072-0.072,0.18-0.145,0.108-0.288c0.144,0.107,0.144-0.108,0.252-0.108c-0.072-0.288,0.18-0.216,0.107-0.432
		c0.108-0.072,0.756-0.072,0.756-0.288c0.468,0.036,1.152-0.18,1.656,0c0,0.108,0.107,0.072,0.107,0.18
		c0.216,0.145,0.288,0.217,0.54,0.288c0,0.288,0.216,0.576,0.216,0.864c0,0.072,0,0.107-0.036,0.072
		c-0.035,0.144,0.108,0.035,0.072,0.216c-0.18,0.288-0.18,0.72-0.036,1.008c0,0.107-0.036,0.107-0.107,0.107
		c-0.036,0.145,0.036,0.324,0.036,0.469c0,0.035-0.108,0.144-0.108,0.18s0.036,0.072,0.036,0.107c0,0.036-0.036,0.036-0.072,0.072
		c-0.036,0.396,0.072,0.72,0,1.008c0,0.072-0.18,0.108-0.144,0.145c-0.072,0.18-0.036,0.504,0,0.684
		c0.036,0.252,0.18,0.576,0.036,0.864c0,0.107,0.071,0.216,0.107,0.288c0,0.252-0.072,0.432,0.072,0.575
		c0.107-0.036,0-0.144,0.036-0.252c0.324-0.18,0.107-0.611,0.359-0.828c-0.035-0.323,0.252-0.323,0.217-0.647
		c0.071-0.108,0.432-0.288,0.432-0.468c0.252-0.036,0.216-0.432,0.396-0.504c0-0.108-0.036-0.072,0-0.216
		c0.252,0.071,0.145-0.252,0.252-0.433c0.181,0.072,0.288-0.036,0.288-0.288h0.036v-0.035c0.072-0.072,0.072-0.252,0.108-0.288
		c0.071-0.036,0.107-0.36,0.107-0.324c0.18-0.144,0.216-0.252,0.252-0.576c0.216,0,0.324-0.252,0.252-0.575
		c0.181,0.035,0.216-0.145,0.36-0.288l0.324-0.324c0.071-0.108,0.107-0.18,0.252-0.252c0.035-0.252,0.035-0.432,0.144-0.576
		c0.18-0.036,0.288,0,0.396,0.072c0.469-0.18,1.261,0.144,1.692,0.036c0.144,0.216,0.288,0.396,0.576,0.432
		c0.035,0.216,0.107,0.324,0.18,0.432c-0.036,0.396,0.18,1.116-0.18,1.296c0.035,0.216-0.145,0.288-0.036,0.433
		c0,0.144-0.072,0.18-0.108,0.252c0.145,0.216-0.036,0.504,0,0.791c0,0.181,0.288,0.973,0,1.116c0,0.108,0.036,0.145,0.036,0.216
		c-0.072,0.504,0.18,0.9,0,1.26c0.036,0.072,0.072,0.145,0.072,0.217c-0.072,0.287-0.288,0.252-0.252,0.684
		c0.18,0.072,0.18,0.396,0.323,0.576c0,0.107-0.071,0.144-0.071,0.252c0.036,0.432-0.145,0.827-0.072,1.224
		c0.252,0.18,0.324,0.359,0.432,0.684c0.216,0,0.216-0.216,0.324-0.359l0.144-0.145c0.108-0.144,0.288-0.144,0.396-0.432
		c0.072-0.216,0.252-0.468,0.288-0.648c0.072-0.359,0.144-0.647,0.288-1.044l0.323-0.72l0.145-0.359
		c0.072-0.288,0.036-0.396,0.107-0.648c0.36-0.432,0.612-0.972,0.973-1.439c0-0.145,0.036-0.216,0.071-0.324
		c0.108-0.072,0.217-0.144,0.396-0.144c0.072,0.035,0.072,0.144,0.18,0.071c0.036,0.036,0,0.108,0.036,0.181
		c-0.288,0.071-0.252,0.504-0.36,0.792c-0.035,0.035-0.071,0.071-0.144,0.071c-0.108,0.433-0.18,0.864-0.36,1.152v0.252
		c-0.18,0.432-0.18,0.899-0.432,1.332c0.072,0.252-0.036,0.575-0.144,0.791v0.072c0,0.036-0.036,0-0.072,0l-0.072,0.54
		c-0.036,0.072-0.107,0.108-0.107,0.145c-0.036,0.035,0,0.144,0,0.18c-0.072,0.252-0.181,0.359-0.181,0.684
		c-0.216,0.612-0.611,1.116-1.008,1.584c-0.252,0.18-0.504,0.216-0.611,0.576c-0.181,0-0.217,0.107-0.324,0.252
		c-0.216,0.036-0.648,0-0.792,0.144c-0.647,0.072-1.26,0.036-1.584-0.396h-0.18c-0.324-0.324-0.576-0.648-0.864-1.008
		c-0.036-0.145-0.036-0.145-0.036-0.252c-0.107-0.072-0.071-0.108-0.144-0.288c-0.216-0.396-0.432-1.188-0.504-1.656
		c-0.108-0.54-0.072-1.08,0-1.691l0.144-0.432c0-0.036-0.071-0.108-0.036-0.145c0-0.036,0.036-0.036,0.036-0.072
		c0.036-0.287-0.036-0.575,0.108-0.792c-0.036-0.035-0.036-0.144-0.036-0.216c0.072-0.288,0.216-0.54,0.288-0.899
		c-0.036,0-0.036,0-0.036-0.036c-0.036-0.108,0-0.072,0-0.18c0.252-0.072,0.18-0.288,0.036-0.433c0.036-0.18,0.108,0,0.18-0.144
		c-0.071-0.18,0-0.324,0.036-0.612c-0.107,0-0.107,0.036-0.18,0.036c-0.036,0.108-0.108,0.18-0.108,0.324
		c-0.252,0.216-0.107,0.107-0.252,0.36l-0.216,0.359L89.59,35.564z"/>
	<path fill="#2635ED" d="M105.251,42.079l0.252-0.504c0.035-0.036,0.144-0.036,0.216-0.071v-0.217c0.107,0,0.071-0.144,0.18-0.144
		c0-0.108,0.036-0.145,0.036-0.252c0.144-0.18,0.432-0.216,0.468-0.54c0.216-0.288,0.396-0.612,0.612-0.972
		c0-0.108-0.036-0.108-0.036-0.181c0.036,0,0.071,0,0.071-0.035c0.145-0.469,0.288-0.648,0.576-1.08l0.036-0.216
		c0.324-0.468,0.54-1.044,0.936-1.44c0-0.036-0.035-0.071-0.035-0.071c0-0.217,0.432-0.36,0.323-0.612
		c0.145-0.072,0.504-0.504,0.433-0.576c-0.108-0.071,0.071-0.071,0.107-0.071c0.181-0.108,0.288-0.288,0.576-0.252
		c0.036,0.107,0.036,0.252,0.036,0.359c0,0.18,0.036,0.324-0.072,0.504c-0.036,0.036-0.107,0.072-0.107,0.108
		c-0.072,0.18-0.036,0.359-0.072,0.504c-0.108,0-0.072,0.107-0.18,0.071c0,0.252-0.145,0.288-0.252,0.469
		c-0.036,0.071,0.035,0.107,0.035,0.18c-0.144-0.036-0.144,0.108-0.216,0.144l-0.036,0.217c-0.216,0.144-0.252,0.575-0.468,0.72
		c0,0.036,0.036,0.071,0.036,0.144c-0.252,0.145-0.288,0.612-0.468,0.756c-0.036,0.072,0.036,0.108,0,0.145
		c-0.216,0.107-0.252,0.396-0.396,0.575c0,0.072,0.072,0.108,0.036,0.217c-0.071,0.216-0.107,0.216-0.216,0.359
		c0,0.324-0.072,0.036-0.072,0.36c-0.107,0.036-0.18,0.071-0.18,0.252c-0.252,0.18-0.216,0.647-0.468,0.828v0.18
		c-0.108,0.072-0.145,0.216-0.288,0.216c-0.072,0.432-0.36,0.576-0.504,0.899h-0.036l0.036,0.036
		c-0.144,0.072-0.216,0.145-0.252,0.288c-0.144,0-0.216,0.072-0.324,0.252c-0.323,0.18-0.54,0.36-0.936,0.54l-0.54,0.288h-0.36
		l-0.468,0.288c-0.144,0.036-0.323-0.108-0.504,0c-0.18-0.18-0.54,0-0.756,0.036c-0.144,0-0.252-0.036-0.396-0.036
		c-0.181,0-0.36-0.072-0.468-0.108c-0.756,0-1.296-0.216-2.017-0.504c-0.396-0.288-0.791-0.54-1.224-0.899
		c-0.144-0.324-0.324-0.648-0.576-0.937c-0.216-0.323-0.539-1.044-0.611-1.619V40.46c-0.072-0.072-0.18-0.217-0.18-0.396
		c-0.072-0.324,0-0.864-0.217-1.116c0.036-0.035,0.072-0.144,0.072-0.216c-0.036-0.684,0-1.331,0.108-1.907
		c0.071-0.36,0.288-0.72,0.288-1.08l0.144-0.18c0.144-0.685,0.432-1.225,0.828-1.692c0.18-0.396,0.468-0.72,0.72-1.044
		c0.144-0.144,0.288-0.287,0.36-0.504c0.252-0.035,0.287-0.216,0.359-0.396c0.18,0.107,0.108-0.072,0.216-0.036l0.288-0.288
		l0.145-0.107l0.144-0.217c0.54-0.144,0.612-0.575,1.152-0.611c0.035-0.216,0.504-0.288,0.684-0.576
		c0.252,0.108,0.432-0.072,0.647-0.072c0.181,0,0.324,0.036,0.504,0.036c0.036,0,0.072-0.036,0.108-0.036
		c0.216,0,0.684,0.217,0.828,0.252c0.252,0.108,0.468,0.252,0.575,0.396c0.145,0,0.324,0,0.396,0.036
		c0.108,0.144,0.108,0.288,0.324,0.323c0.396,0.504,0.611,1.116,0.647,1.729c0.036,0.359-0.18,0.972-0.144,1.548
		c-0.396,0.216-0.612,0.468-0.72,0.936c-0.324,0.144-0.576,0.324-0.685,0.684h-0.107c-0.036,0.181-0.217,0.181-0.288,0.396
		c-0.145,0-0.216,0.144-0.288,0.252c-0.036,0.036-0.145,0.036-0.216,0.036c-0.433,0.216-0.756,0.611-1.368,0.756
		c-0.036,0.18-0.396,0.144-0.576,0.216l-0.252,0.359c-0.252,0-0.396,0.072-0.575,0.108c0.071,0.144-0.108,0.144,0,0.288
		c-0.181-0.036-0.036,0.072-0.181,0.072c0.072,0.611-0.216,0.936-0.036,1.367l-0.035,0.036h0.035c-0.216,0.216,0.108,0.54,0,0.828
		c0.108,0.18,0.181,0.324,0.181,0.647c-0.036,0.36,0.144,0.612,0.252,0.9c0.071,0,0.071,0.072,0.18,0.107
		c0,0.108,0,0.145,0.108,0.217c0.216,0.18,0.323,0.396,0.539,0.287c-0.071,0.181,0.252,0.036,0.181,0.217
		c0.144,0,0.18-0.036,0.216-0.108c0.144,0.072,0.216,0.144,0.396,0.144c0.324-0.071,0.324,0,0.54,0.036l0.36-0.107
		c0.288-0.072,0.72-0.036,0.72-0.324c0.288-0.108,0.576-0.144,0.648-0.288c0.035-0.072,0.144,0.036,0.216-0.036L105.251,42.079z
		 M104.242,33.729c-0.035-0.252-0.18-0.288-0.359-0.18c0.036-0.108-0.108-0.036-0.072-0.181c0-0.036,0.108,0,0.108-0.036
		c-0.108-0.18-0.468-0.071-0.612-0.107c-0.252,0.252-0.54,0.504-0.647,0.936c-0.217,0.108-0.181,0.396-0.396,0.396
		c-0.036,0.504-0.324,0.72-0.396,1.151c-0.108,0-0.108-0.107-0.216-0.036c-0.252,0.288-0.217,0.72-0.396,1.008
		c0.288,0.036,0.216-0.288,0.576-0.288h0.107l0.324-0.432c0.036-0.072,0.036,0.108,0.145,0.036c0.071,0,0.216-0.216,0.359-0.108
		c-0.107-0.287,0.468-0.216,0.252-0.539c0.216,0.035,0.576,0,0.54-0.36c0.252,0.072,0.145-0.216,0.324-0.216
		c0.036-0.108-0.108-0.036-0.108-0.108c0.036-0.144,0.216,0,0.145-0.107l0.144-0.036l-0.072-0.072h0.072
		c0.18-0.144,0.252-0.36,0.216-0.684v-0.036H104.242z"/>
	<path fill="#2635ED" d="M119.829,42.079l0.216-0.323c0.036-0.036,0.145-0.036,0.216-0.072v-0.216c0.108,0,0.072-0.145,0.181-0.145
		c0-0.107,0.035-0.144,0.035-0.252c0.145-0.18,0.252-0.396,0.288-0.72c0.216-0.288,0.396-0.612,0.612-0.972
		c0-0.108-0.036-0.108-0.036-0.181c0.036,0,0.072,0,0.072-0.035c0.144-0.469,0.288-0.648,0.576-1.08l0.035-0.216
		c0.324-0.468,0.54-1.044,0.937-1.44c0-0.036-0.036-0.071-0.036-0.071c0-0.217,0.432-0.36,0.324-0.612
		c0.144-0.072,0.504-0.504,0.432-0.576c-0.108-0.071,0.072-0.071,0.108-0.071c0.18-0.108,0.287-0.288,0.575-0.252
		c0.036,0.107,0.036,0.252,0.036,0.359c0,0.18,0.036,0.324-0.072,0.504c-0.035,0.036-0.107,0.072-0.107,0.108
		c-0.072,0.18-0.036,0.359-0.072,0.504c-0.107,0-0.072,0.107-0.18,0.071c0,0.252-0.145,0.288-0.252,0.469
		c-0.036,0.071,0.036,0.107,0.036,0.18c-0.145-0.036-0.145,0.108-0.217,0.144l-0.035,0.217c-0.217,0.144-0.252,0.575-0.469,0.72
		c0,0.036,0.036,0.071,0.036,0.144c-0.252,0.145-0.288,0.612-0.468,0.756c-0.036,0.072,0.036,0.108,0,0.145
		c-0.216,0.107-0.252,0.396-0.396,0.575c0,0.072,0.071,0.108,0.036,0.217c-0.072,0.216-0.108,0.216-0.217,0.359
		c0,0.324-0.071,0.036-0.071,0.36c-0.108,0.036-0.181,0.071-0.181,0.252c-0.252,0.18-0.216,0.647-0.468,0.828v0.18
		c-0.107,0.072-0.144,0.216-0.288,0.216c-0.071,0.432-0.359,0.576-0.504,0.899l-0.216,0.54c-0.144,0.252-0.396,0.433-0.468,0.685
		c-0.18,0.036-0.288,0.396-0.396,0.504c-0.181-0.036-0.36,0-0.396,0.144c-0.324-0.072-0.576,0.216-0.864,0.288
		c-0.504,0.144-1.115-0.288-1.655-0.252c-0.252-0.108-0.54-0.36-0.828-0.468c-0.036-0.036,0-0.108,0-0.145
		c-0.072-0.035-0.072-0.107-0.252-0.107c-0.107-0.252-0.252-0.468-0.359-0.792c-0.145-0.18-0.181-0.288-0.217-0.576
		c-0.035-0.144-0.144-0.252-0.18-0.359c-0.036-0.324-0.036-0.54-0.107-0.864c0-0.072-0.072-0.144-0.072-0.18
		c-0.072-0.252-0.072-0.54-0.072-0.756c-0.036-0.324-0.072-0.576-0.072-0.864c0-0.108,0.072-0.216,0.072-0.288
		c0-0.576,0-1.224,0.072-1.691c0-0.145,0.036-0.181,0.072-0.252c0.071-0.216,0.035-0.433,0.107-0.612
		c0.036-0.18,0.108-0.324,0.18-0.504c0-0.072,0-0.252,0.036-0.324c0-0.071,0.072-0.144,0.072-0.18l0.18-0.612
		c0.072-0.18,0.072-0.323,0.145-0.504c0.071-0.107,0.036-0.288,0.071-0.504c0.036-0.107,0.108-0.144,0.145-0.18
		c0-0.396,0.288-0.612,0.216-0.972c-0.108-0.072-0.108,0.216-0.324,0.216c-0.144,0.18-0.216,0.54-0.468,0.684
		c0,0.324-0.107,0.576-0.288,0.648c-0.036,0.396-0.324,0.756-0.432,1.08c-0.072,0.18-0.036,0.504-0.216,0.647
		c0,0.252-0.181,0.468-0.036,0.684c-0.216,0.433-0.468,0.864-0.648,1.332c-0.035,0.252-0.035,0.54-0.107,0.756
		c-0.072,0.288-0.252,0.433-0.288,0.612s0.036,0.432-0.072,0.576c0,0.107-0.18,0.144-0.107,0.323
		c-0.324,0.288-0.216,1.116-0.36,1.477c0.108,0.18,0.036,0.323,0.072,0.468c0.072,0.288,0.216,0.468,0.216,0.54
		c0,0.252-0.216,0.396-0.288,0.611c-0.359-0.072-0.972,0.072-1.403-0.036l-0.252-0.144c-0.396-0.18-0.792-0.072-1.044-0.324
		c-0.108,0.145-0.36,0.145-0.504,0.216c-0.072-0.071-0.108-0.216-0.288-0.144c-0.468-0.468-0.612-1.044-0.685-1.728
		c-0.035-0.504-0.035-1.08,0-1.656l0.108-1.584l0.108-1.8l0.107-0.936l0.036-0.864l0.108-0.359c0-0.108-0.036-0.145-0.036-0.252
		c0-0.072,0.071-0.181,0.071-0.252c0-0.576-0.18-0.972-0.18-1.512c0.145-0.072,0.612-0.288,0.792-0.108
		c0.108-0.107,0.18-0.144,0.252-0.18c0.108,0.072,0.216,0.036,0.288,0.072c0.504-0.324,1.188,0,1.512,0.323
		c0.144,0.36,0.144,0.9,0.288,1.368v1.008c0.036,0.216-0.18,0.72-0.072,1.296c0.108,0.576,0.18,1.943,0.145,2.124
		c0.252-0.252,0.72-1.944,0.792-2.304c0.252-0.288,0.144-1.044,0.504-1.296c0.071-0.36,0.252-0.576,0.359-0.973
		c0.468-0.359,0.396-1.295,0.9-1.655c0.107-0.288,0.071-0.54,0.396-0.612c-0.036-0.144,0.108-0.107,0.036-0.288
		c0.396,0,0.252-0.432,0.576-0.359c0.071-0.324,0.468-0.36,0.575-0.54c0.072-0.108,0.072-0.216,0.108-0.396
		c0.108-0.18,0.756-0.035,0.756-0.359c0.432-0.108,0.756-0.036,1.188-0.18c0.217,0.144,0.685,0.035,1.008,0.071
		c0.108,0.072,0.181,0.072,0.396,0.108c0.036,0.072,0.144,0.216,0.18,0.324c0.324,0.035,0.72,0.432,0.648,0.972
		c-0.036,0.18-0.252,0.324-0.252,0.504c-0.072,0.468,0.144,0.936-0.072,1.224l0.072,0.252c-0.036,0.54-0.252,0.972-0.288,1.548
		c-0.036,0.36,0.036,0.864,0.036,1.368c0,0.071,0.036,0.071,0.071,0.144c0,0.216-0.071,0.54-0.107,0.792
		c0,0.108-0.108,0.252-0.108,0.36c-0.036,0.252,0.036,0.575-0.036,0.863c-0.071,0.181-0.18,0.288-0.18,0.433
		c0,0.107,0.036,0.252,0.036,0.396l-0.108,0.252c-0.035,0.18,0.036,0.36,0.036,0.54c0,0.072-0.071,0.18-0.107,0.252
		c-0.036,0.36,0.071,0.72-0.072,1.008c0,0.108,0.072,0.18,0.072,0.324c0.036,0.18-0.072,0.144-0.072,0.252
		c0.108,0.432-0.036,0.396,0.144,0.756c0.252,0,0.252,0.324,0.288,0.252C119.469,42.367,119.686,42.151,119.829,42.079z"/>
	<path fill="#2635ED" d="M129.766,41.899c0-0.036,0.036-0.072,0.072-0.144c0.036-0.036,0.144-0.036,0.216-0.072v-0.216
		c0.108,0,0.072-0.145,0.18-0.145c0-0.107,0.036-0.144,0.036-0.252c0.145-0.18,0.252-0.396,0.288-0.72
		c0.216-0.288,0.396-0.612,0.612-0.972c0-0.108-0.036-0.108-0.036-0.181c0.036,0,0.072,0,0.072-0.035
		c0.144-0.469,0.288-0.648,0.575-1.08l0.036-0.216c0.324-0.468,0.54-1.044,0.937-1.44c0-0.036-0.036-0.071-0.036-0.071
		c0-0.217,0.432-0.36,0.323-0.612c0.145-0.072,0.505-0.504,0.433-0.576c-0.108-0.071,0.072-0.071,0.107-0.071
		c0.181-0.108,0.288-0.288,0.576-0.252c0.036,0.107,0.036,0.252,0.036,0.359c0,0.18,0.036,0.324-0.072,0.504
		c-0.036,0.036-0.107,0.072-0.107,0.108c-0.072,0.18-0.036,0.359-0.072,0.504c-0.108,0-0.072,0.107-0.18,0.071
		c0,0.252-0.145,0.288-0.252,0.469c-0.036,0.071,0.036,0.107,0.036,0.18c-0.145-0.036-0.145,0.108-0.217,0.144l-0.035,0.217
		c-0.217,0.144-0.253,0.575-0.469,0.72c0,0.036,0.036,0.071,0.036,0.144c-0.252,0.145-0.288,0.612-0.468,0.756
		c-0.036,0.072,0.036,0.108,0,0.145c-0.216,0.107-0.252,0.396-0.396,0.575c0,0.072,0.071,0.108,0.035,0.217
		c-0.071,0.216-0.107,0.216-0.216,0.359c0,0.324-0.071,0.036-0.071,0.36c-0.108,0.036-0.181,0.071-0.181,0.252
		c-0.252,0.18-0.216,0.647-0.468,0.828v0.18c-0.108,0.072-0.144,0.216-0.288,0.216c-0.072,0.432-0.359,0.576-0.504,0.899h-0.072
		l-0.107,0.108v0.18c-0.288,0.036-0.145,0.288-0.396,0.433c-0.107,0.071-0.252,0.071-0.359,0.144
		c-0.072,0.036-0.108,0.108-0.18,0.18c-0.072,0.036-0.288,0.108-0.36,0.181c-0.108,0.107-0.108,0.036-0.18,0.107l-0.288,0.181
		l-0.252,0.071c-0.324,0.108-0.792,0.396-1.188,0.252l-0.287,0.108c-0.108,0-0.145-0.072-0.181-0.145
		c-0.611,0.036-1.008-0.287-1.476-0.504c-0.108-0.18-0.288-0.359-0.504-0.432c-0.108-0.324-0.396-0.468-0.504-0.792
		c-0.324-0.288-0.432-0.828-0.612-1.332c-0.107-0.252-0.252-0.54-0.323-0.792c-0.252-0.899-0.217-1.979-0.324-3.023
		c-0.036-0.288-0.036-0.575-0.036-0.827s-0.072-0.469-0.072-0.721c0.036-0.107,0.108-0.252,0.108-0.396c0.036-0.324,0-0.612,0-0.972
		c0-0.324,0.072-0.612,0.072-0.937c0.035-0.252-0.036-0.468,0-0.684c0-0.072,0.035-0.144,0.035-0.216
		c0-0.145,0.036-1.116,0.036-1.224c0-0.252,0.252-0.973,0.324-1.26c0.108-0.828,0.036-0.685,0.36-1.368c0-0.396,0-0.504,0.107-0.828
		c-0.252-0.072-0.756,0.216-0.972,0c-0.108,0-0.9,0-0.972,0.036c-0.36-0.18-0.468,0.036-0.937-0.036
		c-0.107-0.18-0.396-0.216-0.504-0.396c-0.287,0-0.107-0.396-0.252-0.36c-0.071-0.072-0.107-0.252-0.035-0.36
		c0.107-0.18,0.323-0.287,0.504-0.287c0-0.072,0.18,0,0.144-0.145c0.108,0.072,0.216-0.036,0.324-0.072
		c0.036,0,0.071,0.036,0.107,0.036s0.108,0,0.145-0.036c0.071,0,0.144-0.108,0.252,0c0.107-0.216,0.396-0.072,0.504-0.288
		c0.288,0.072,0.684-0.18,0.972-0.072l0.792-0.324c0.18,0.072,0.18-0.108,0.396-0.036c0.036,0,0.072-0.072,0.108-0.072
		c0.216-0.288,0.18-0.612,0.252-1.008c0.072-0.036,0.072-0.072,0.144-0.144l0.145-0.18c0.107-0.432,0.18-1.26,0.468-1.62
		c0.036-0.072-0.108-0.144,0.072-0.144c-0.108-0.18,0.071-0.324-0.036-0.504c0.216-0.072,0.107-0.252,0.288-0.36
		c0-0.144,0.036-0.252,0.071-0.36c0.252,0.036,0.324-0.072,0.433-0.18c0.107,0.144,0.396,0.072,0.432,0.072
		c0.145,0.144,0.36,0.252,0.468,0.396c0.433,0.036,0.504,0.396,0.792,0.576c0.072,0.216,0.072,0.54,0.18,0.864
		c0,0.036,0.072,0.108,0.072,0.18c0.036,0.18,0,0.396,0,0.576c0.036,0.216,0.145,0.432,0.108,0.576c0,0.108-0.072,0.144-0.108,0.252
		c-0.072,0.288,0.036,0.612,0.072,0.864c0.18,0.036,0.576-0.144,0.756,0c0.144-0.144,0.432-0.108,0.647-0.144
		c0.072,0,0.108-0.072,0.145-0.072h0.288c0.071,0,0.107-0.036,0.18-0.036c0.036-0.036,0.072,0,0.144,0
		c0.145-0.036,0.252-0.072,0.433-0.072c0.18-0.072,0.359-0.036,0.576-0.036c0.035,0,0.107,0,0.18-0.036
		c0.072,0,0.072,0.072,0.144,0.072c0.108,0,0.324-0.108,0.433-0.036l0.107-0.108c0.288,0.036,0.324,0.144,0.504,0.108
		c0.036-0.036,0.072-0.036,0.072-0.036c0.107-0.036,0.252-0.036,0.359-0.036c0.396-0.036,0.396,0,0.864-0.072
		c0.252-0.036,0.792,0.144,0.972,0.072c0.036,0,0.072-0.036,0.108-0.036c0.036-0.036,0.036,0,0.072,0v-0.036h0.18
		c0.036,0,0.072-0.072,0.107-0.072c0.072-0.036,0.108,0,0.145,0c0.144-0.072,0.324-0.036,0.396-0.108h0.108
		c0.144-0.072,0.432,0.18,0.54,0.216c0.036,0.072,0.216,0.252,0.216,0.288c-0.108,0.036,0.036,0.108,0,0.18
		c-0.252,0.108-0.432,0.216-0.612,0.324c-0.071-0.036-0.107,0-0.144,0.036c-0.036,0-0.036,0.036-0.036,0.072
		c-0.107,0-0.18,0.072-0.288,0.072c-0.036,0.036-0.072,0.072-0.072,0.18c-0.071,0-0.071-0.036-0.071-0.072
		c-0.072,0.036-0.145,0.036-0.181,0.072c-0.144-0.036-0.323,0.144-0.468,0.144c-0.036,0,0,0.072-0.036,0.108
		c-0.107,0.036-0.071-0.072-0.144-0.036c-0.072,0-0.108,0.036-0.144,0.072c-0.145,0.072-0.324,0.072-0.396,0.181
		c-0.072,0-0.144,0-0.216,0.035l-0.072,0.036c-0.036,0.036-0.107,0-0.144,0.036l-0.145,0.072c-0.071,0.036-0.18,0-0.252,0
		c-0.107,0.036-0.216,0.107-0.323,0.107c-0.036,0-0.324,0.072-0.612,0.181c-0.324,0.107-0.647,0.107-0.72,0.107l-0.792,0.217
		c-0.216,0.071-0.468,0.144-0.792,0.144c-0.18,0-0.324,0.072-0.468,0.072c-0.18,0-0.36,0.071-0.576,0.107
		c-0.144,0-0.252,0.072-0.396,0.036c-0.145,0-0.433,0-0.612,0.072l-0.144,0.54c-0.036,0.107-0.108,0.144-0.145,0.216
		c0,0.324,0.036,0.359,0,0.647c-0.072,0.252,0,0.721-0.144,0.937c-0.036,0.252-0.108,0.899-0.036,1.151s0,0.504,0.144,0.648
		c-0.071,0.827,0.036,1.655-0.071,2.411c0.107,0.181,0.035,0.396,0.071,0.72c0,0.108,0.072,0.181,0.108,0.288
		c0.036,0.36-0.036,0.828,0.036,1.225c0.036,0.144,0.144,0.287,0.144,0.432c0.072,0.288,0.072,0.684,0,0.972
		c-0.036,0.18-0.036,0.684-0.072,1.008c0.469,0.612-0.035,1.044,0.36,1.62c-0.036,0.036,0.216,0.684,0.216,0.756
		c0,0.036,0.036,0.036,0.036,0.072c0.072,0.18,0.468,0.107,0.396,0.323c0.107,0.036,0.144,0.145,0.216,0.145
		c0.071,0.107,0.107-0.181,0.216-0.145c0.288-0.144,0.252-0.18,0.359-0.468L129.766,41.899z"/>
	<path fill="#2635ED" d="M134.122,30.201c0.071-0.108,0.18-0.288,0.252-0.324c0,0.072,0.071,0.107,0.071,0.18
		c0.108-0.036,0.072-0.18,0.145-0.216c0.144,0,0.107,0.036,0.144,0.072c0.072-0.072,0.036-0.288,0.216-0.324
		c0.036,0.216,0.685,0.432,0.828,0.216c-0.036,0.216,0.396,0.072,0.468,0.324c0.145-0.18,0.216,0.144,0.36,0.252
		c0.18,0.18,0.396,0.252,0.576,0.468c0,0.108,0.035,0.216,0.035,0.324c-0.107,0.144-0.071,0.396,0,0.611
		c-0.107,0.108-0.216,0.433-0.252,0.612c-0.144,0.108-0.18,0.612-0.396,0.612c0,0.071-0.036,0.144-0.072,0.18
		c-0.252,0.144-0.396,0.324-0.54,0.576c-0.216,0.071-0.899,1.151-1.044,1.296c0,0.107,0.072,0.107,0.072,0.18
		c-0.107,0.072,0.072,0.216,0.108,0.324l0.504,0.647l0.504,0.9c0.216,0.323,0.432,0.468,0.72,0.72l0.828,0.756
		c0.216,0.18,0.504,0.324,0.756,0.432c0.18,0,0.216-0.036,0.288-0.107c0.036,0.035,0.216-0.145,0.252-0.145
		c0.432-0.359,0.036-0.107,0.504-0.396l0.396-0.288c0.504-0.36,0.252-0.108,0.684-0.432c0.072-0.036,0.145-0.108,0.217-0.072
		c0.252-0.18,0.468-0.324,0.792-0.468c0.216-0.252,0.539-0.36,0.791-0.612c0.072-0.108,0.072-0.216,0.145-0.288
		c0.144,0,0.216-0.072,0.252-0.107c0.072-0.072,0.144-0.072,0.252-0.181c0.072-0.144,0.18-0.396,0.432-0.288
		c-0.071,0.217,0.072,0.324,0.036,0.612l-0.107-0.072c-0.252,0.396-0.685,0.721-0.864,0.973l-0.252,0.287
		c0,0.036-0.108,0.072-0.145,0.108c-0.144,0.18-0.252,0.432-0.504,0.396c-0.252,0.396-0.575,0.54-0.827,0.828
		c-0.181-0.072-0.145,0.324-0.36,0.288c0,0,0.036,0.036,0,0.108c-0.144,0.035-0.18,0.035-0.18,0.035l-0.108,0.217
		c-0.252,0.036-0.288,0.323-0.432,0.432c-0.108,0-0.072,0.036-0.108,0.072l-0.216,0.144c0.072,0.288,0.288,0.108,0.288,0.396
		c0.216,0.18,0.612,0.611,0.756,0.936c0.108,0.288,0.216,0.72,0.252,1.188c0,0.036,0.072,0.072,0.108,0.108
		c0,0.107-0.036,0.216,0,0.288c0,0.18,0.144,0.359,0.144,0.504c0.036,0.216-0.036,0.468,0.072,0.647
		c-0.072,0.036-0.145,0.396-0.072,0.504l-0.18,0.145c0.107,0.18-0.108,0.216,0,0.323c-0.036,0.108-0.108,0.145-0.181,0.252
		c-0.035,0.145-0.18,0.324-0.18,0.54c0,0.108-0.396,0.288-0.288,0.36c0,0.036-0.036,0.072-0.107,0.072l0.107,0.107
		c-0.144,0.108-0.18,0.504-0.323,0.504c-0.108,0.072-0.217,0.108-0.252,0.252c-0.072,0.108-0.396,0.252-0.504,0.36
		c-0.181,0.144-0.469,0.18-0.648,0.359c0,0-0.036,0.036,0,0.072c-0.288,0.036-0.432,0.18-0.504,0.324
		c-0.036,0.036-0.324,0-0.36-0.036c-0.035,0.18-0.144,0.18-0.323,0.216c-0.145,0.036,0-0.072-0.108-0.072
		c-0.144,0-0.107,0.072-0.144,0.145c-0.181,0.036-0.072,0.324-0.181,0.18c-0.071,0-0.359-0.036-0.396,0
		c-0.18-0.18-0.54,0.324-0.756,0.145c-0.432,0.071-0.72-0.145-1.116-0.145c-0.107,0-0.288-0.396-0.288-0.359
		c-0.071-0.217-0.396-0.181-0.575-0.108c-0.145-0.072-0.36-0.144-0.504-0.252l-0.396-0.396l-0.252-0.504
		c-0.18-0.324-0.288-0.396-0.359-0.828c-0.072-0.36-0.252-0.72-0.108-1.044c-0.072-0.145,0.036-0.18,0-0.324
		c0.072,0-0.036-0.107,0-0.107c0.036-0.181,0.108-0.288,0.252-0.36c0-0.144,0.144-0.18,0.216-0.288
		c0.072-0.18,0.108-0.432,0.36-0.576c0.107-0.396,0.288-0.575,0.611-0.863c0.036-0.145,0.324-0.252,0.324-0.433
		c0.216-0.071,0.145-0.287,0.324-0.287c0.18-0.217,0.432-0.396,0.756-0.396c0.144-0.18,0-0.324,0.252-0.36
		c-0.036-0.071,0.324-0.359,0.324-0.432c0-0.107-0.036-0.359-0.072-0.468c0-0.036-0.072-0.036-0.072-0.072s0.036-0.107,0-0.144
		c-0.072-0.18-0.107,0.072-0.18-0.18c-0.072-0.288-0.504-0.757-0.72-0.9c-0.072-0.324-0.252-0.288-0.36-0.54
		c-0.107-0.036-0.144-0.107-0.252-0.252c-0.108-0.18-0.324-0.359-0.468-0.647c-0.072-0.216-0.252-0.433-0.36-0.612
		c-0.107-0.288-0.252-0.647-0.468-0.899c0.036-0.504-0.647-0.685-0.54-1.225c-0.036-0.107-0.107-0.107-0.144-0.216
		c0.144-0.288-0.108-1.224,0.107-1.512c-0.035-0.144-0.107-0.288-0.035-0.396c0.071,0,0.035,0.107,0.071,0.107
		c0.072-0.036,0.181-0.323,0.036-0.396c0.145,0,0.145-0.18,0.252-0.396c0.108-0.252,0.216-0.396,0.18-0.72
		c0.108,0.072,0.108-0.18,0.217-0.216c-0.108-0.072,0.287-0.36,0.359-0.468c0.108,0,0.072,0.144,0.18,0.107
		c0.072-0.107-0.071-0.18,0-0.323c0.108-0.108,0.036,0.107,0.108,0.036c0.108-0.108,0.504-0.36,0.54-0.433
		c0.108,0,0.072,0.108,0.144,0.145c0.108-0.036,0.036-0.108,0.108-0.108v0.036h0.036C134.086,30.129,134.122,30.165,134.122,30.201z
		 M133.33,45.247h-0.036v0.036c-0.181,0-0.181,0.216-0.145,0.359c0,0.108,0.108,0.288,0.252,0.324c0.036,0-0.036,0.145,0.036,0.108
		c0.072,0.036,0.108,0.036,0.18,0v0.071h0.072c0,0.108,0.145,0.072,0.108,0.181c0.072,0.036,0.072-0.036,0.144-0.036
		c0,0.107,0.072,0.107,0.072,0.216l0.468-0.108c0.36,0,0.972-0.035,1.08-0.396c0.107,0.072,0.072,0,0.144,0
		c0.108-0.108,0.108-0.288,0.181-0.432c0.035-0.036,0.107-0.036,0.144-0.108v-0.144c0.072-0.181,0.324-0.36,0.36-0.504
		c0.036-0.072-0.036-0.108-0.036-0.145c0,0,0.036-0.036,0.036-0.072c0.071-0.216,0.071-0.504,0.036-0.72
		c0-0.036-0.072-0.072-0.072-0.144c0,0,0.036-0.036,0.036-0.108c-0.036-0.144-0.288-0.647-0.324-0.828
		c-0.036-0.216-0.108-0.504-0.252-0.611c0,0.072-0.036,0-0.072,0c-0.072,0.072-0.18,0.18-0.252,0.216
		c-0.144,0.108-0.432,0.252-0.611,0.36c-0.396,0.216-0.685,0.756-0.864,1.151c-0.108,0.036-0.072,0.108-0.144,0.145
		c0.035,0.18-0.108,0.323-0.072,0.396c0,0.036-0.072,0.072-0.181,0.036c0,0.072-0.107,0.18,0,0.288
		c-0.107,0.036-0.18,0.107-0.323,0.18c-0.036,0.108,0.107,0,0.144,0.072c-0.18,0.071-0.144,0.071-0.252,0.071
		c-0.036,0.108,0.108,0.036,0.145,0.072v0.036h0.035C133.365,45.247,133.365,45.247,133.33,45.247z M136.461,31.461
		c-0.396-0.072-0.756,0.396-0.827,0.323c-0.145,0.145-0.145,0.396-0.324,0.469c0.072,0.107,0.036,0.107-0.036,0.216
		c0.036,0,0.144,0,0.072,0.072c-0.036-0.036-0.252,0.287-0.324,0.252c0.036,0.432-0.36,0.72-0.072,0.936
		c0.108-0.036,0.433-0.252,0.433-0.432c0.107,0,0.144-0.072,0.18-0.217l0.036,0.036l0.036-0.036
		c0.144-0.107,0.323-0.323,0.468-0.539l0.396-0.648L136.461,31.461z"/>
</g>
</svg>
