<?xml version="1.0" encoding="utf-8"?>
<!-- Generator: Adobe Illustrator 16.0.0, SVG Export Plug-In . SVG Version: 6.00 Build 0)  -->
<!DOCTYPE svg PUBLIC "-//W3C//DTD SVG 1.1//EN" "http://www.w3.org/Graphics/SVG/1.1/DTD/svg11.dtd">
<svg version="1.1" id="Layer_1" xmlns="http://www.w3.org/2000/svg" xmlns:xlink="http://www.w3.org/1999/xlink" x="0px" y="0px"
	 width="144px" height="72px" viewBox="0 0 144 72" enable-background="new 0 0 144 72" xml:space="preserve">
<g opacity="0.8" enable-background="new    ">
	<path fill="#2BB673" d="M33.01,37.124c0-0.07,0.07-0.21,0.209-0.21c0-0.209,0.07-0.278,0.07-0.488
		c0.279-0.349,0.767-0.767,0.837-1.395c0.418-0.558,0.767-1.186,1.186-1.883c0-0.21-0.07-0.21-0.07-0.35c0.07,0,0.14,0,0.14-0.069
		c0.279-0.906,0.558-1.256,1.116-2.093l0.07-0.418c0.628-0.907,1.046-2.022,1.813-2.79c0-0.069-0.07-0.14-0.07-0.14
		c0-0.418,0.837-0.697,0.628-1.186c0.279-0.14,0.977-0.977,0.837-1.116c-0.209-0.139,0.14-0.139,0.209-0.139
		c0.349-0.209,0.558-0.558,1.116-0.488c0.07,0.209,0.07,0.488,0.07,0.697c0,0.349,0.07,0.628-0.14,0.977
		c-0.07,0.069-0.209,0.139-0.209,0.209c-0.14,0.349-0.07,0.697-0.14,0.977c-0.209,0-0.14,0.209-0.349,0.14
		c0,0.488-0.279,0.558-0.488,0.906c-0.07,0.14,0.07,0.209,0.07,0.349c-0.279-0.069-0.279,0.209-0.418,0.279l-0.07,0.418
		c-0.418,0.279-0.488,1.116-0.907,1.396c0,0.069,0.07,0.14,0.07,0.279c-0.488,0.278-0.558,1.186-0.907,1.464
		c-0.07,0.14,0.07,0.21,0,0.279c-0.418,0.209-0.488,0.768-0.768,1.116c0,0.14,0.14,0.209,0.07,0.418
		c-0.139,0.419-0.209,0.419-0.418,0.698c0,0.627-0.139,0.069-0.139,0.697c-0.209,0.069-0.349,0.14-0.349,0.488
		c-0.488,0.349-0.418,1.255-0.907,1.604v0.35c-0.209,0.139-0.279,0.418-0.558,0.418c-0.14,0.837-0.977,1.116-1.256,1.744
		c-0.139-0.07-0.279,0.418-0.349,0.418l-0.139,0.209c0.069,0.14,0.069,0.35,0.069,0.488c0,0.628-0.069,0.698,0,1.116
		c-0.349,1.046,0.14,4.534-0.139,6.138c-0.488,0.349-0.14,1.186-0.558,1.604c-0.07,0.209,0.14,0.14,0.209,0.279l-0.139,2.162
		c-0.14,0-0.07,0.278-0.279,0.209c-0.279,0.488-0.209,0.558-0.069,0.977c0.139,0.279,0.139,0.768,0.139,1.116
		c0.07,1.046-0.209,1.743-0.977,2.371c-0.139,0.768-0.907,0.977-1.395,1.465c-0.419-0.279-0.698,0-0.977,0
		c-0.07,0.209-0.209,0.488-0.349,0.628c-0.279-0.07-0.419,0.069-0.628,0.069c0-0.209-0.279-0.14-0.349-0.279
		c-0.209,0-0.418,0.14-0.628,0.14c-0.279,0.14-0.627,0.488-0.907,0.628c-0.14,0-0.488-0.14-0.767-0.069
		c-0.209,0-0.837,0.209-1.186,0.069c-0.209,0-0.14-0.069-0.279-0.14c-0.279-0.14-0.627-0.14-0.767-0.279
		c-0.14,0-0.209-0.278-0.279-0.278c-0.349,0.069-0.488,0-0.837-0.07l-0.209-0.349c-0.698-0.209-0.907-0.837-1.395-1.186
		c-0.14,0-0.209,0-0.279,0.07c-0.488-0.35-0.07-1.256-1.116-1.047c0-0.558,0.07-1.046-0.418-1.395l0.07-0.349
		c-0.349-0.279-0.14-1.116-0.488-1.396c0-0.14,0.14-0.209,0.14-0.418c0-0.21-0.14-0.21-0.209-0.349c0.07-0.698,0-1.604,0.558-2.163
		c0-0.139-0.14-0.209-0.07-0.349l0.14-0.209c0-0.349,0.139-0.418,0.139-0.768c0.349-0.139,0.488-0.487,0.628-0.976
		c0.558-0.488,1.116-0.977,1.604-1.535c0.14,0,0.14-0.069,0.279-0.069c0.558-0.697,1.465-2.302,2.581-2.371
		c0.07,0,0.488-0.35,0.558-0.35c0.837,0,1.325-1.743,1.813-2.022c0.07-0.977-0.14-1.186,0.07-2.162
		c-0.279-0.768-0.279-2.093-0.279-2.79c0-0.069-0.07-0.069-0.14-0.14l-0.069-2.999c0-0.209,0.139-0.488,0.139-0.628
		c-0.07-0.558-0.279-0.976-0.139-1.674c0.069-1.115-0.07-2.092,0-3.208c0.069-2.371,0.069-3.348,0-5.58
		c0.488-0.209-0.698-0.767-0.209-0.907l1.395-0.558h0.349c0.07-0.07,0.628,0,0.698,0.209l0.139-0.627l0.07,0.069
		c0.07,0.14,0.349,0,0.349-0.139h0.07v-0.07c0.07,0,0.07,0.14,0.14,0.14l-0.07,0.069h0.07c0.07,0,0.14,0,0.14,0.07
		c0-0.139,0.488-0.07,0.209-0.279c0.209,0,0.349,0.279,0.628,0.07c-0.14-0.07-0.279-0.14,0-0.14c-0.209-0.209,0.139,0,0.139,0.14
		c0.14-0.07,0.349-0.279,0.418-0.488c0.14,0,0.07,0,0.07,0.07c0.209-0.07,0.418,0,0.488-0.14c0.209,0.14,0.14,0.349,0.209,0.558
		c0,0,0.209-0.279,0.488,0h-0.07c0.07,0.209-0.209,0.07-0.14,0.279c0.209,0.14,0.907-0.209,0.837,0.418l-0.697-0.07
		c0,0.279,0.279,0.14,0.488,0.07c0.279,0.279,0.349,0.628,0.627,0.767c0.14,0.628,0.349,1.046,0.279,1.674l-0.279,0.697v1.326
		c-0.07,1.534-0.07,3.487-0.209,5.23c0.488,0.697,0.139,1.534,0.279,2.302c-0.07,0.209,0.14,0.349,0.14,0.559
		c0.07,0.487-0.07,0.906-0.07,1.395c0.14-0.069,0.14,0,0.209,0l-0.07,0.069v0.07c0,0.488,0.139,0.628-0.07,0.977
		c0.07,0.069-0.07,0.14-0.07,0.278l0.209,0.559L33.01,37.124z M26.314,50.445c0.14-0.488,0-0.767,0.07-1.325l-0.279-0.14
		c0.07-0.069,0.209-0.139,0.209-0.278c-0.07-0.349,0.209-0.628,0-0.907c0.07-0.209-0.07-2.092-0.139-2.231
		c-0.488,0.14-0.977,0.278-1.256,0.628c-0.697,0-0.767,1.255-1.395,1.395c0,0.14,0.07,0.209-0.139,0.209
		c-0.14,0.07,0-0.069-0.279-0.069c0,0.209-0.558,0.628-0.697,0.767l-0.558,0.698c0,0-0.139,0.349-0.279,0.488
		c-0.14,0,0,0.069-0.07,0.139c-0.07-0.069-0.14-0.209-0.209-0.139c-0.139,0.069-0.209,0.278-0.418,0.349
		c0.14,0.418-0.349,0.767-0.069,1.046c-0.279,0.14-0.07,0.279,0,0.488c-0.209,0.069-0.14,0.279-0.419,0.349
		c-0.139,1.186,0.279,1.256,0.698,2.022c0.209,0.07,0.628,0.559,0.907,0.559c0.209-0.07,0.697,0.14,0.907,0.14c0,0,0-0.14,0.07-0.07
		c0.139,0.07,0,0.209,0.139,0.209c0.698,0.07,0.907-0.349,1.395-0.558c0.628,0.488,1.744-1.116,1.046-1.883
		c0.349-0.279,0.628-0.628,0.558-1.187l0.209-0.209c0.07-0.209-0.07-0.209-0.07-0.418h0.14L26.314,50.445z M26.314,12.991
		c0.279-0.279-0.209-0.697,0.279-0.837c-0.279-0.697,0.767-0.907,1.116-1.186V10.62c0.07,0.07,0.14,0,0.279,0
		c-0.069-0.14,0.07-0.14,0.14-0.279c0,0.07,0.209-0.07,0.279,0.07l-0.07,0.07h0.139v0.07c0.07,0,0.14,0,0.14-0.07
		c0,0.07,0.07,0.14,0,0.209c0,0.069,0.209,0,0.209,0.069c0.069,0,0.209-0.279,0.069-0.418c0.14,0,0.279,0,0.349-0.279
		c0.139,0.07,0.209,0.07,0.349-0.07c0.279,0.07,0.627,0.279,0.697,0.07c0.279,0.07,0.349,0,0.628-0.07
		c0.07,0.07,0.14,0.14,0.349,0.14c-0.14,0.07,0,0.139,0.07,0.279c0.07-0.07,0.14-0.07,0.209,0.07c-0.07-0.14,0.349-0.14,0.488,0
		h-0.069l0.069,0.07c-0.209,0.14-0.279,0.07-0.418,0.14c0.14,0.139,0.279,0,0.418-0.07c-0.139,0.139,0,0.139,0.07,0.139l0.07,0.07
		l0.07-0.07c0.07,0,0.07,0,0.07,0.07c0.279-0.139,0.418,0.07,0.558-0.139c0.976,0.069,0.558,1.255,0.627,1.953
		c-0.14,0-0.14,0.14-0.209,0.14c0.069,0.07,0,0.349,0.069,0.349c-0.349,1.186-0.279,2.511-0.767,3.557c0.14,0.07,0,0.07,0.14,0.349
		c-0.07,0.07-0.209,0.07-0.349,0.07c0,0.698,0.139,0.907,0,1.395c0,0.07,0.069,0.07,0.069,0.14
		c-0.139,0.349-0.627,0.488-0.767,0.907c-0.349-0.14-0.07-0.418-0.558-0.488c0.07-0.14,0.209-0.14,0.209-0.279
		c-0.418-0.279-1.465-0.558-1.813,0c0-0.209-0.349-0.139-0.349,0.07c-0.14,0-0.209-0.209-0.209-0.139
		c-0.349-0.349-0.977-0.698-1.046-0.977c0-0.14-0.209-0.14-0.209-0.209c0.07-0.488-0.279-0.349-0.279-0.697
		c-0.209,0-0.349-0.07-0.488-0.14c0.279-0.279-0.14-0.349-0.209-0.558l0.14-0.139c-0.14-0.349-0.209-0.279-0.14-0.628
		c0-0.07-0.07,0-0.07,0l-0.209-0.558c0-0.418,0.14-0.837-0.14-1.186C26.524,13.409,26.524,13.061,26.314,12.991z"/>
	<path fill="#2BB673" d="M54.005,21.291c0-0.14-0.209-0.279-0.488-0.349c-0.349-0.14-0.697-0.209-0.837-0.419
		c-0.07,0.209-0.697,0.14-0.419,0c-0.139-0.209-0.139,0.14-0.278,0.14c-0.977,0.488-2.65,1.116-3.069,2.093
		c-0.279,0.209-0.488,0.558-0.558,0.976c-0.21-0.07-0.14,0.07-0.279,0c-0.279,0.488-0.14,1.255-0.697,1.325
		c-0.209,0.418-0.697,0.698-0.768,1.186l-0.14,0.906c-0.349,0-0.418,0.419-0.627,0.628c0.069,0.419-0.35,0.768-0.279,1.186
		c-0.349,0.07-0.14,0.349-0.349,0.628l-0.14,0.07l0.069,0.069c-0.069,0.069-0.069,0.069-0.14,0.069
		c-0.069,0.279,0.279-0.069,0.21,0.279c-0.07,0.14-0.21-0.14-0.279,0c0.069,0.069,0.069,0.14,0.069,0.349
		c-0.139-0.069-0.139,0.07-0.209,0.07c-0.14,0.837-0.069,1.883-0.278,2.44c0.069,0.21,0.278,0.768,0.209,1.116
		c0,0.14-0.279,0.209-0.14,0.279c-0.209,0-0.279,0.209-0.279,0.349c0.488,0.418,0.14,1.046,0.559,1.534c0.139,0,0.069-0.069,0.209,0
		v0.279c0.488,0.069,0.14,0.768,0.418,0.977c-0.278,0.069-0.139,0.488-0.139,0.767c-0.279,0.21,0.558,0.698,0.697,0.977
		c0.418-0.14,0.558,0.07,1.186,0c0.279-0.14,0.279-0.558,0.628-0.627c0-0.14-0.07-0.14,0-0.279c0.418,0.209,0.558-0.349,0.906-0.419
		c0-0.349,0.21-0.418,0.279-0.697c0.768-0.418,0.837-1.395,0.628-2.302c0-0.069-0.07-0.069-0.07-0.209c-0.069,0,0.07-0.07,0-0.209
		c0-0.07-0.069-0.279-0.069-0.488c0-0.21,0.069-0.349,0.069-0.488c0-0.21-0.209-0.488,0.07-0.488c0.069-0.14-0.14,0-0.07-0.21
		c0.21-0.349-0.209-0.418,0.07-0.697c-0.07,0-0.07-0.069-0.07-0.14c0.419-0.697,0-1.813,0.698-2.231
		c-0.07-0.558,0.278-0.837,0.278-1.465c0.21-0.069,0.14-0.349,0.21-0.628c0.349-1.046,1.186-1.813,1.534-2.859
		c0.14,0,0.209,0.07,0.209-0.14h-0.209l0.628-0.209l1.255-0.698l0.14,0.209l0.768-0.488h0.906l0.279,0.14l0.488,0.279v0.279
		c0.418,0.209,0.349,0.837,0.906,0.907c-0.278,0.488,0,0.977,0.07,1.674c0.069,0.278,0.069,0.697,0.278,0.837
		c0.14,0.558-0.278,1.116-0.139,1.674c0,0.14-0.21,0.14-0.21,0.209c0.14,0.559-0.14,0.837,0.07,1.325
		c-0.21,0.21-0.14,0.349-0.279,0.768l-0.069-0.07v0.07c-0.14,0.069,0,0.628-0.14,0.837c-0.07,0.209,0.14,0.14,0.14,0.279
		c-0.279,0.209-0.35,0.837-0.21,1.325c-0.558,0.278-0.558,0.837-0.418,1.395c-0.279,0.14,0,0.558-0.419,0.697
		c0.07,0,0.07,0.07,0.07,0.14h-0.07v0.07c-0.14,0.418,0.21,0.697,0.21,1.325c0,0.069-0.14,0.139-0.14,0.139
		c-0.07,0.419,0,1.047,0.069,1.187c0.14,0.349,0.14,0.418,0.558,0.488c-0.209,0.209,0,0.349,0.14,0.349
		c0.07,0.209-0.209,0.069-0.14,0.278c0,0.14,0.279-0.069,0.21,0.14c0.069,0,0-0.14,0.14-0.14c0.139,0.07-0.14,0.21-0.14,0.21
		c0,0.209,0.418,0.278,0.628,0.488c0.069-0.07-0.07-0.35,0.209-0.279c0.209-0.07,0.069,0.279,0.14,0.279
		c0.278,0,0.209-0.279,0.069-0.35l0.279-0.209c-0.07-0.069-0.14-0.14-0.279-0.14c0.07-0.139,0.14,0,0.279,0
		c0.14-0.139,0-0.278,0-0.349c0.069-0.069,0.209-0.14,0.209-0.14c0-0.069-0.069-0.209,0-0.209c0.069-0.14,0.209-0.069,0.279-0.209
		c0-0.07,0.069-0.14,0.14-0.209l0.139-0.14c0.21-0.279,0.35-0.697,0.559-1.047c0,0,0.069-0.069,0.14-0.069l0.278-0.209v-0.279
		c0.21,0,0.14-0.279,0.349-0.279c0-0.209,0.07-0.278,0.07-0.488c0.279-0.349,0.488-0.767,0.558-1.395
		c0.209-0.279,0.488-0.628,0.697-1.046l0.07-0.279l0.14-0.14c0-0.069,0.069-0.069,0.069-0.14l0.14-0.418v-0.21h0.069l0.488-1.325
		c0.14-0.278,0.279-0.349,0.419-0.418c0.069-0.14,0.14-0.279,0.279-0.419l0.069-0.418l0.14-0.279
		c0.558-0.837,0.977-1.813,1.674-2.511c0-0.069-0.069-0.14-0.069-0.14c0-0.418,0.837-0.697,0.627-1.186
		c0.279-0.14,0.977-0.977,0.837-1.116c-0.209-0.139,0.14-0.139,0.21-0.139c0.349-0.209,0.558-0.558,1.115-0.488
		c0.07,0.209,0.07,0.488,0.07,0.697c0,0.349,0.069,0.628-0.14,0.977c-0.069,0.069-0.209,0.139-0.209,0.209
		c-0.14,0.349-0.07,0.697-0.14,0.977c-0.209,0-0.14,0.209-0.349,0.14c0,0.488-0.279,0.558-0.488,0.906
		c-0.07,0.14,0.069,0.209,0.069,0.349c-0.278-0.069-0.278,0.209-0.418,0.279l-0.07,0.418c-0.418,0.279-0.488,1.116-0.906,1.396
		c0,0.069,0.069,0.14,0.069,0.279c-0.14,0.069-0.209,0.209-0.278,0.278l-0.07,0.07c-0.279,0.627-0.837,2.231-0.977,2.859
		l-0.418,0.558c-0.349,0.907-0.419,1.813-0.768,2.441l-0.279,0.14c0.21,0.418-0.209,0.768-0.069,1.186
		c-0.14-0.069-0.209,0.07-0.279,0.07c-0.349,1.046-0.906,1.674-1.255,2.58c-0.698,0.279-0.698,1.256-1.604,1.325
		c-0.419,0.209-1.325,0.628-2.232,0.697h-1.186c-0.418-0.069-0.767-0.349-1.115-0.418c-0.768,0-1.744-0.349-2.232-0.837
		c-0.069,0-0.14,0-0.14,0.069c-0.279-0.418-0.697-0.697-1.186-0.906c-0.14-0.349-0.419-0.698-0.768-0.907
		c-0.139-0.209-0.209-0.418-0.418-0.488c0.14-0.209-0.07-0.349-0.07-0.488c-0.278,0.419-0.837,0.907-1.186,1.465
		c-0.278,0.07-0.628,0.07-0.767,0.279c-0.768,0.14-1.325,0.349-1.953,0.558c-0.209,0.349-0.559,0.559-0.837,0.768
		c-0.628-0.07-0.977,0.069-1.396,0c-0.069,0.14-0.14,0.209-0.349,0.209c-0.279-0.14-0.279-0.418-0.697-0.349l-0.209-0.349
		c-0.139,0.14-0.627,0.14-0.558-0.14h-0.349c-0.069-0.209-0.209-0.14-0.418-0.209l-0.209-0.279c-0.14-0.069-0.349-0.069-0.488-0.209
		l-0.349-0.279c-0.349-0.14-0.628,0-0.907-0.14c-0.14-0.069-0.209-0.278-0.349-0.349h-0.14c-0.14-0.069-0.349-0.278-0.488-0.418
		c-0.14-0.07-0.14-0.21-0.418-0.21c0-0.349-0.279-0.418-0.488-0.558c-0.349-0.488-0.558-1.046-0.977-1.465
		c-0.558-1.743-1.186-3.348-1.046-5.789c0.209-2.441,1.186-5.021,1.953-6.835c0.349-0.209,0.558-0.698,0.698-1.186
		c0.907-0.976,1.325-2.441,2.301-3.348c0-0.07-0.069-0.07-0.069-0.209c0.139-0.07,0.279-0.209,0.349-0.418l0.488-0.418
		c0.069-0.279,0.279-0.488,0.558-0.558c0.14-0.488,0.349-0.837,0.977-0.907c0.279-0.279,0.628-0.349,0.907-0.627
		c0.488-0.349,0.697-0.907,1.464-0.977h0.419c0.209-0.14,0.837-0.209,1.186-0.418c0.07,0,0.07-0.14,0.14-0.14l0.697-0.139
		c0.14-0.07,0.279,0.069,0.419,0.069c0.14-0.069,0.278,0.14,0.418,0.14l0.279-0.209c0.209-0.07,0.349,0.488,0.349,0.209
		c0.209,0.209,0.279,0,0.488-0.07c0.069,0.07,0.14,0.14,0.209,0.14c0.419-0.349,0.837,0,1.256,0.07
		c1.116-0.07,1.883,0.697,2.72,1.046c0.628,0.977,2.093,0.837,1.884,2.441c0,0.488-0.279,0.907-0.349,1.465l-0.349,0.07l-0.07,0.279
		L54.005,21.291z M53.028,25.057c0-0.07,0-0.209-0.069-0.209l-0.21,0.209H52.68v0.07c-0.07,0-0.14,0.07-0.14,0.209
		c0.14,0,0.209-0.07,0.209-0.209h0.07v-0.07H53.028z M53.447,24.5l-0.14-0.07l0.069,0.139c-0.279,0-0.069,0.418,0.07,0.209
		c-0.21-0.07,0-0.14,0-0.209h0.069L53.447,24.5z M55.19,20.523c0-0.069,0-0.209-0.069-0.209l-0.21,0.209h-0.069v0.07
		c-0.069,0-0.14,0.07-0.14,0.209c0.14,0,0.209-0.07,0.209-0.209h0.07v-0.07H55.19z M55.609,19.966l-0.14-0.07l0.069,0.14
		c-0.278,0-0.069,0.418,0.07,0.209c-0.21-0.07,0-0.14,0-0.209h0.069L55.609,19.966z"/>
	<path fill="#2BB673" d="M81.767,24.987c0.069,0,0.906-0.488,0.977-0.418c0.278-0.209,0.488-0.069,0.837-0.139
		c0.14,0,0.209,0.139,0.349,0.279c0.14-0.07,0.14-0.209,0.14-0.349c0.278,0.279,0.418,0.697,0.837,0.627
		c0,0.14,0.279,0.279,0.488,0.279c0.418,0.558,0.418,1.465,0.628,2.302c0,0.209,0,0.488-0.07,0.837c0,0.488,0,0.906-0.069,1.465
		c-0.14,0.697,0.209,0.977,0.209,1.674c0,0.209,0.14,0.488,0.069,0.837c0,0.558-0.487,1.256-0.487,1.883
		c-0.14,0.488,0,0.977,0,1.256c0,0.14-0.21,0.418-0.21,0.906l0.279,0.559c0.14,0,0.14-0.07,0.069-0.14
		c0.419,0,0.977-0.349,0.837-0.768c0.07-0.069,0.14-0.069,0.35-0.069c0.278-0.628,0.558-0.768,0.906-1.325
		c0.349-0.279,0.209-0.697,0.419-1.046c0.139-0.14,0.418-0.21,0.627-0.35l0.21-0.418l0.209-0.209c0.14-0.07,0.14-0.21,0.349-0.488
		l1.116-1.535l0.697-0.697c0.279-0.278,0.349-0.767,0.488-1.255l0.488-0.14c0.069-0.279,0.349-0.488,0.14-0.697
		c0.209-0.07,0.278-0.14,0.209-0.35c0.488,0.07,0.349-0.418,0.558-0.697c0.419,0.209,0.07,0.14,0.488-0.278
		c0.14-0.279,0.14-0.35,0.488-0.628c0.07-0.139,0.279-0.209,0.279-0.279c0,0-0.069-0.07-0.069-0.14c0-0.069,0.139-0.209,0.139-0.209
		c0-0.209,0.21-0.349,0.349-0.488l0.07-0.07c0.14-0.349,0.418-0.488,0.977-0.349c0.14,0.837-0.279,1.465-0.488,2.232
		c-0.07,0.069-0.14,0.069-0.279,0.069c-0.209,0.419-0.488,0.768-0.697,1.256c-0.279,0.768-0.628,1.325-1.116,2.093
		c-0.209,0.349-0.279,0.767-0.558,0.906c0,0.07,0,0.14-0.07,0.209c-0.558,0.559-1.255,1.187-1.604,1.884
		c-0.279,0.14-0.349,0.558-0.698,0.697c0,0.558-0.418,0.697-0.837,1.046c-0.139,0.21-0.139,0.559-0.278,0.628
		c-0.279,0.279-0.419,1.046-0.628,1.534l-0.349,0.21c-0.07,0.209-0.349,0.418-0.559,0.767c-1.046,0.349-0.837,1.535-1.813,1.953
		c-0.069,0.349-0.418,0.349-0.558,0.558c-0.069,0.698,0.14,0.698,0.209,1.256c-0.069,0.419-0.209,0.628-0.209,0.907
		c0,0.418,0.07,0.697,0.07,0.976c0,0.907-0.14,1.744-0.07,2.581c0,0.419,0.07,0.837,0,1.325c-0.069,1.186,0.349,2.371,0.07,3.418
		c0.069,0.278,0,0.349,0.069,0.628c-0.419,0.069-0.349,0.697-0.488,1.395h-0.14c-0.14,0.349-0.069,0.628-0.279,0.977l-0.278,0.418
		c-0.21,0.419-0.279,0.838-0.488,1.116c-0.07,0.209-0.349,0.349-0.419,0.488l-0.14,0.559c-0.139,0.418-0.488,0.558-0.488,0.976
		c-0.209,0.14-0.418,0.279-0.487,0.559l0.278,1.116c-0.209,0.418-0.488,0.558-0.767,0.837c-0.21,0.069-0.21,0-0.35,0
		c-0.209,0.069-0.278,0.418-0.767,0.418c0,0.209-0.07,0.209-0.14,0.349c-0.628,0.488-1.116,1.535-1.953,1.813
		c-0.14,0.07-0.488,0-0.697,0.14c-0.209,0-0.558,0.14-0.837,0.209c-0.279,0-0.419-0.069-0.628-0.069c-0.837,0-1.743,0-2.72-0.14
		c-0.14,0-0.07-0.14-0.21-0.14c-0.139-0.069-0.627,0-0.906-0.278c-0.279-0.07-0.07,0.349-0.279,0.278
		c-0.209-0.349-0.558-0.767-1.116-0.628c-0.069-0.209-0.069-0.558-0.349-0.349c0-0.627-0.418-0.767-0.837-1.255
		c0-0.419-0.14-0.559-0.278-0.768c-0.35,0.069-0.488-0.628-0.279-0.977c-0.14-0.209-0.14-0.349-0.279-0.349
		c0.07-0.069,0.07-0.209,0.14-0.209c0-0.07-0.14-0.14-0.279-0.14c0.21-0.209,0-0.558-0.139-0.768
		c-0.07-0.209,0.139-0.418,0.278-0.767c0-0.279-0.278-0.628,0-0.837c0.14,0,0.07,0.139,0.14,0.139
		c0.209-0.349,0.279-1.046,0.209-1.395c0.279-0.209,0.419-0.837,0.349-1.256h0.14c0.279-0.209,0.21-0.697,0.279-1.046
		c0.069-0.279,0.279-0.349,0.349-0.418c0.069-0.14,0.069-0.35,0.209-0.559c0.14-0.418,0.349-0.767,0.279-1.395
		c0.349,0.069,0.419-0.21,0.488-0.419c0.349,0.07,0.558-0.837,0.906-0.977c0-0.14-0.069-0.209,0-0.418
		c0.279-0.07,0.279-0.209,0.768-0.279c0-0.14-0.14-0.069-0.069-0.209c0.069-0.279,0.209-0.279,0.349-0.419
		c-0.07-0.14,0.209-0.278,0.488-0.418v-0.14l0.069,0.069l-0.069-0.139c0.349,0.139,0.418-0.35,0.767-0.21
		c0.14-0.069,0.14-0.14,0.14-0.209h0.07v-0.069c0.488,0.069,0.278-0.838,0.627-0.768c0-0.07,0-0.14-0.069-0.209
		c0.279-0.14,0.419-0.279,0.628-0.419c-0.07,0-0.14,0-0.14-0.069c0-0.279,0.14,0,0.279,0c0.209-0.07,0.209-0.349,0.278-0.419
		c0.628-0.209,0.837-1.186,1.325-1.465v-0.767c-0.139-0.14,0.14-0.628,0-0.837c-0.069-0.698,0.14-0.768,0.14-1.187
		c-0.069-0.906-0.349-0.976-0.209-2.231c0-0.279,0.069-0.628,0.14-1.046c-0.977,0.278-1.256,1.186-2.511,1.115
		c-0.14,0.14-0.419,0.14-0.559,0.14c-0.278,0.07-0.558,0.419-0.837,0.279c-0.14,0.069-0.209,0.279-0.279,0.349
		c-0.349-0.069-1.395-0.349-1.674,0.209c-0.209-0.14-0.209-0.418-0.349-0.558c-0.209,0-0.209,0.279-0.418,0.279
		c-0.21-0.279-0.488-0.419-0.559-0.559c-0.209-0.069-0.278,0-0.558,0c-0.14,0-0.14,0-0.14-0.14l-1.186-0.349
		c-0.069-0.069-0.14,0-0.14,0.07l-0.977-0.419c-0.14-0.069-0.209-0.209-0.488-0.488c-0.14-0.069-0.488-0.14-0.558-0.558
		c-1.256-1.325-2.093-5.58-1.953-7.673c0.069-0.837,0.419-1.674,0.488-2.371c0.279-1.116,0.768-2.302,0.906-3.278
		c0.279,0.07,0.07-0.418,0.35-0.418c0.069-0.907,0.767-1.464,1.115-2.092c0.07-0.14,0-0.488,0.21-0.558v-0.07
		c0.139,0,0.488-0.418,0.627-0.906c0.628-0.209,0.837-0.768,1.187-1.256h0.278c0.628-0.488,0.977-0.907,1.325-1.604
		c0.628-0.349,1.116-0.558,1.744-1.116c0.209,0.14,0.069-0.209,0.14,0c0.627-0.767,1.325-0.139,1.813-0.837
		c0.349,0,0.558-0.279,0.837-0.349h1.186c0.488,0-0.14-0.697,1.813,0.07c0.14,0.279,0.697,0,1.186,0.07
		c0.14,0.349,0.768,0.139,0.906,0.627c0.21,0,0.279,0.14,0.419,0.209c0,0.488,0.558,0.837,0.907,1.116
		c0.139,0.209,0.139,0.628,0.487,0.698c0,0.279,0.21,0.349,0.35,0.488c0,0.418,0.278,0.558,0.209,1.046
		c0.488,0.488,0.209,1.604,0.837,1.744c-0.07,0.698,0.209,1.186,0.14,1.744c0,0.697-0.559,0.837-0.559,1.395
		c-0.139,0.349-0.349,0.419-0.488,0.628c0,0.07,0.14,0.14,0.14,0.279c-0.488-0.209-0.628,0.279-0.767,0.558l-0.349,0.209
		l-0.488,0.349l-0.419,0.279c-0.279-0.07-0.279,0.07-0.558,0.07c-0.21-0.07-0.279-0.209-0.559-0.07h-0.209
		c0-0.139-0.069-0.349-0.14-0.558c-0.209,0-0.209,0.069-0.279,0.069c-0.209-0.279-0.767-0.349-0.976-0.837
		c-0.14-0.349,0-0.627,0.069-1.116c0.558-0.07,0.628-0.488,1.186-0.558c0.349,0.279,0.488,1.535,0.907,1.604
		c0.069,0,0.488-0.209,0.627-0.139c0-0.418,0.14-0.698,0.07-1.046c0.349-0.07,0.349,0,0.558-0.14c-0.14-0.209,0.14-0.209,0.21-0.418
		c-0.14,0-0.07-0.209-0.07-0.349c-0.418-0.209-0.418-0.697-0.906-0.977v-0.139c-0.21-0.209-0.419-0.07-0.698-0.14
		c-0.139-0.07-0.278-0.418-0.349-0.558c-0.14-0.07-0.209-0.14-0.278-0.14c-0.14-0.139-0.14-0.488-0.559-0.488
		c-0.14,0-0.209,0.209-0.349,0.209c-0.069,0.209,0.209,0.14,0.209,0.279c-0.349,0-0.278,0.279-0.418,0.349
		c-0.209-0.14-0.209-0.279-0.279-0.349c0,0.14-0.14,0.209-0.069,0.488C78.419,19.966,78,20.036,78,20.384
		c-0.349,0.418-0.977,0.558-1.186,0.837c-0.069,0.558-0.279,1.116-0.628,1.604c-0.697,1.674-0.837,1.046-1.255,2.93
		c-0.21,0.279-0.977,2.999-0.977,3.348c-0.07,0.14,0.349,2.65,0.349,2.859c-0.07,0.628,0.278,2.372,0.837,2.86
		c0.14,0.069,0.069-0.14,0.209,0c0.14,0.069,0.14,0.14,0.279,0c0,0.069,0,0.14,0.14,0.14c0.278,0,0.209-0.279,0.418-0.279
		c0,0.069,0,0.14,0.07,0.14c0.209-0.07,0,0,0-0.21c0.278,0.21,0.349,0.07,0.627,0.07v-0.07h0.14v-0.069h0.07
		c0.139-0.069,0.069-0.488,0.209-0.558c0.628,0.209,0.628-0.419,1.046-0.628c0,0-0.069-0.07,0.07-0.14l0.209-0.279v-0.14l0.14-0.069
		h-0.14c0.209-0.069,0.14-0.418,0.349-0.209c0.209-0.419-0.279-1.813,0.209-1.884c-0.14-0.418,0-0.418-0.14-0.697
		c0.279,0,0.14,0.209,0.419,0.209c0.069-0.627-0.209-0.209-0.069-0.627c-0.07,0,0-1.535,0-1.674c0.487,0,0-0.698,0.349-0.838
		c-0.07-0.487,1.186-0.837,1.255-1.395L81.767,24.987z M78.768,47.307c-0.21-0.209-0.279-0.069-0.419-0.209
		c0-0.069,0.14-0.069,0.209-0.279c-0.139-0.209,0.21-0.627-0.139-0.697c-0.977,0.488-0.907,0.768-1.744,1.674
		c-0.418,0-0.768,1.047-1.046,1.116c-0.349,0.558-0.837,1.116-1.325,1.534c0,0.07-0.21,0.07-0.279,0.07
		c-0.069,0.139-0.069,0.488-0.14,0.627c-0.069,0.14-0.209,0.21-0.209,0.279c-0.069,0.07,0.069,0.07,0,0.07
		c-0.069,0.278-0.349,0.488-0.558,0.697c-0.14,0.767-0.488,1.534-0.628,2.58c-0.14,0.977,0.14,1.604,0.418,2.372
		c0.21,0.628,0.349,1.046,1.047,0.837c0,0-0.07,0.069,0,0.069c0.906,0.209,0.697,0.14,1.743,0.14
		c0.349-0.069,0.697-0.768,1.186-0.768c0-0.278,0.14-0.627-0.139-0.627c0.209-0.349,0.487-0.21,0.627,0
		c0.279-0.349-0.14-0.698,0.279-0.907c0,0.209,0.14-0.069,0,0.209C78,56.025,77.931,55.677,78,55.397
		c0.07-0.14,0.209-0.069,0.209-0.278h0.07v-0.07c0.069-0.069,0.14-0.069,0.14-0.209v-0.488c-0.07-0.07-0.14,0.209-0.21,0
		c0-0.14,0.21-0.07,0.21-0.14c-0.279,0-0.07-0.209,0-0.279h0.209c0.349,0.07-0.209-0.069-0.14-0.349
		c0.069-0.14,0.14-0.14,0.14-0.209c0-0.14-0.14-0.279-0.14-0.349c0,0,0.279-0.07,0.069-0.279c0.21,0.14,0.21-0.14,0.279-0.209
		c-0.209-0.279,0.209-0.279,0.07-0.558c0.139,0-0.279-0.07-0.21-0.07c0.07-0.209,0.14-0.418,0.07-0.697v-0.14
		c0.069-0.069,0.069-0.069,0-0.209h0.069v-0.14c0-0.419,0.07-0.837-0.069-1.046c0.069-0.279,0.069-0.559,0.069-0.907
		c-0.069,0-0.14,0-0.14-0.069v-0.14c-0.349-0.07,0.279-0.488,0.21-0.559l0.069-0.209l-0.14,0.07c0-0.14,0-0.21-0.069-0.279
		C78.768,47.586,78.697,47.446,78.768,47.307z"/>
	<path fill="#2BB673" d="M108.831,21.291c0-0.14-0.209-0.279-0.488-0.349c-0.349-0.14-0.697-0.209-0.837-0.419
		c-0.07,0.209-0.697,0.14-0.419,0c-0.139-0.209-0.139,0.14-0.278,0.14c-0.977,0.488-2.65,1.116-3.069,2.093
		c-0.279,0.209-0.488,0.558-0.558,0.976c-0.21-0.07-0.14,0.07-0.279,0c-0.279,0.488-0.14,1.255-0.697,1.325
		c-0.209,0.418-0.697,0.698-0.768,1.186l-0.14,0.906c-0.349,0-0.418,0.419-0.627,0.628c0.069,0.419-0.35,0.768-0.279,1.186
		c-0.349,0.07-0.14,0.349-0.349,0.628l-0.14,0.07l0.069,0.069c-0.069,0.069-0.069,0.069-0.14,0.069
		c-0.069,0.279,0.279-0.069,0.21,0.279c-0.07,0.14-0.21-0.14-0.279,0c0.069,0.069,0.069,0.14,0.069,0.349
		c-0.139-0.069-0.139,0.07-0.209,0.07c-0.14,0.837-0.069,1.883-0.278,2.44c0.069,0.21,0.278,0.768,0.209,1.116
		c0,0.14-0.279,0.209-0.14,0.279c-0.209,0-0.279,0.209-0.279,0.349c0.488,0.418,0.14,1.046,0.559,1.534c0.139,0,0.069-0.069,0.209,0
		v0.279c0.488,0.069,0.14,0.768,0.418,0.977c-0.278,0.069-0.139,0.488-0.139,0.767c-0.279,0.21,0.558,0.698,0.697,0.977
		c0.418-0.14,0.558,0.07,1.186,0c0.279-0.14,0.279-0.558,0.628-0.627c0-0.14-0.07-0.14,0-0.279c0.418,0.209,0.558-0.349,0.906-0.419
		c0-0.349,0.21-0.418,0.279-0.697c0.768-0.418,0.837-1.395,0.628-2.302c0-0.069-0.07-0.069-0.07-0.209c-0.069,0,0.07-0.07,0-0.209
		c0-0.07-0.069-0.279-0.069-0.488c0-0.21,0.069-0.349,0.069-0.488c0-0.21-0.209-0.488,0.07-0.488c0.069-0.14-0.14,0-0.07-0.21
		c0.21-0.349-0.209-0.418,0.07-0.697c-0.07,0-0.07-0.069-0.07-0.14c0.419-0.697,0-1.813,0.698-2.231
		c-0.07-0.558,0.278-0.837,0.278-1.465c0.21-0.069,0.14-0.349,0.21-0.628c0.349-1.046,1.186-1.813,1.534-2.859
		c0.14,0,0.209,0.07,0.209-0.14h-0.209l0.628-0.209l1.255-0.698l0.14,0.209l0.768-0.488h0.906l0.279,0.14l0.488,0.279v0.279
		c0.418,0.209,0.349,0.837,0.906,0.907c-0.278,0.488,0,0.977,0.07,1.674c0.069,0.278,0.069,0.697,0.278,0.837
		c0.14,0.558-0.278,1.116-0.139,1.674c0,0.14-0.21,0.14-0.21,0.209c0.14,0.559-0.14,0.837,0.07,1.325
		c-0.21,0.21-0.14,0.349-0.279,0.768l-0.069-0.07v0.07c-0.14,0.069,0,0.628-0.14,0.837c-0.07,0.209,0.14,0.14,0.14,0.279
		c-0.279,0.209-0.35,0.837-0.21,1.325c-0.558,0.278-0.558,0.837-0.418,1.395c-0.279,0.14,0,0.558-0.419,0.697
		c0.07,0,0.07,0.07,0.07,0.14h-0.07v0.07c-0.14,0.418,0.21,0.697,0.21,1.325c0,0.069-0.14,0.139-0.14,0.139
		c-0.07,0.419,0,1.047,0.069,1.187c0.14,0.349,0.14,0.418,0.558,0.488c-0.209,0.209,0,0.349,0.14,0.349
		c0.07,0.209-0.209,0.069-0.14,0.278c0,0.14,0.279-0.069,0.21,0.14c0.069,0,0-0.14,0.14-0.14c0.139,0.07-0.14,0.21-0.14,0.21
		c0,0.209,0.418,0.278,0.628,0.488c0.069-0.07-0.07-0.35,0.209-0.279c0.209-0.07,0.069,0.279,0.14,0.279
		c0.278,0,0.209-0.279,0.069-0.35l0.279-0.209c-0.07-0.069-0.14-0.14-0.279-0.14c0.07-0.139,0.14,0,0.279,0
		c0.14-0.139,0-0.278,0-0.349c0.069-0.069,0.209-0.14,0.209-0.14c0-0.069-0.069-0.209,0-0.209c0.069-0.14,0.209-0.069,0.279-0.209
		c0-0.07,0.069-0.14,0.14-0.209l0.139-0.14c0.21-0.279,0.35-0.697,0.559-1.047c0,0,0.069-0.069,0.14-0.069l0.278-0.209v-0.279
		c0.21,0,0.14-0.279,0.349-0.279c0-0.209,0.07-0.278,0.07-0.488c0.279-0.349,0.488-0.767,0.558-1.395
		c0.209-0.279,0.488-0.628,0.697-1.046l0.07-0.279l0.14-0.14c0-0.069,0.069-0.069,0.069-0.14l0.14-0.418v-0.21h0.069l0.488-1.325
		c0.14-0.278,0.279-0.349,0.419-0.418c0.069-0.14,0.14-0.279,0.279-0.419l0.069-0.418l0.14-0.279
		c0.558-0.837,0.977-1.813,1.674-2.511c0-0.069-0.069-0.14-0.069-0.14c0-0.418,0.837-0.697,0.627-1.186
		c0.279-0.14,0.977-0.977,0.837-1.116c-0.209-0.139,0.14-0.139,0.21-0.139c0.349-0.209,0.558-0.558,1.115-0.488
		c0.07,0.209,0.07,0.488,0.07,0.697c0,0.349,0.069,0.628-0.14,0.977c-0.069,0.069-0.209,0.139-0.209,0.209
		c-0.14,0.349-0.07,0.697-0.14,0.977c-0.209,0-0.14,0.209-0.349,0.14c0,0.488-0.279,0.558-0.488,0.906
		c-0.07,0.14,0.069,0.209,0.069,0.349c-0.278-0.069-0.278,0.209-0.418,0.279l-0.07,0.418c-0.418,0.279-0.488,1.116-0.906,1.396
		c0,0.069,0.069,0.14,0.069,0.279c-0.14,0.069-0.209,0.209-0.278,0.278l-0.07,0.07c-0.279,0.627-0.837,2.231-0.977,2.859
		l-0.418,0.558c-0.349,0.907-0.419,1.813-0.768,2.441l-0.279,0.14c0.21,0.418-0.209,0.768-0.069,1.186
		c-0.14-0.069-0.209,0.07-0.279,0.07c-0.349,1.046-0.906,1.674-1.255,2.58c-0.698,0.279-0.698,1.256-1.604,1.325
		c-0.419,0.209-1.325,0.628-2.232,0.697h-1.186c-0.418-0.069-0.767-0.349-1.115-0.418c-0.768,0-1.744-0.349-2.232-0.837
		c-0.069,0-0.14,0-0.14,0.069c-0.279-0.418-0.697-0.697-1.186-0.906c-0.14-0.349-0.419-0.698-0.768-0.907
		c-0.139-0.209-0.209-0.418-0.418-0.488c0.14-0.209-0.07-0.349-0.07-0.488c-0.278,0.419-0.837,0.907-1.186,1.465
		c-0.278,0.07-0.628,0.07-0.767,0.279c-0.768,0.14-1.325,0.349-1.953,0.558c-0.209,0.349-0.559,0.559-0.837,0.768
		c-0.628-0.07-0.977,0.069-1.396,0c-0.069,0.14-0.14,0.209-0.349,0.209c-0.279-0.14-0.279-0.418-0.697-0.349l-0.209-0.349
		c-0.14,0.14-0.628,0.14-0.559-0.14h-0.349c-0.069-0.209-0.209-0.14-0.418-0.209l-0.21-0.279c-0.139-0.069-0.349-0.069-0.488-0.209
		l-0.349-0.279c-0.349-0.14-0.627,0-0.906-0.14c-0.14-0.069-0.209-0.278-0.349-0.349h-0.14c-0.14-0.069-0.349-0.278-0.488-0.418
		c-0.14-0.07-0.14-0.21-0.419-0.21c0-0.349-0.278-0.418-0.488-0.558c-0.349-0.488-0.558-1.046-0.976-1.465
		c-0.559-1.743-1.187-3.348-1.047-5.789c0.209-2.441,1.186-5.021,1.953-6.835c0.349-0.209,0.558-0.698,0.697-1.186
		c0.907-0.976,1.325-2.441,2.302-3.348c0-0.07-0.069-0.07-0.069-0.209c0.14-0.07,0.278-0.209,0.349-0.418l0.488-0.418
		c0.069-0.279,0.279-0.488,0.558-0.558c0.14-0.488,0.349-0.837,0.977-0.907c0.279-0.279,0.628-0.349,0.907-0.627
		c0.488-0.349,0.697-0.907,1.464-0.977h0.419c0.209-0.14,0.837-0.209,1.186-0.418c0.07,0,0.07-0.14,0.14-0.14l0.697-0.139
		c0.14-0.07,0.279,0.069,0.419,0.069c0.14-0.069,0.278,0.14,0.418,0.14l0.279-0.209c0.209-0.07,0.349,0.488,0.349,0.209
		c0.209,0.209,0.279,0,0.488-0.07c0.069,0.07,0.14,0.14,0.209,0.14c0.419-0.349,0.837,0,1.256,0.07
		c1.116-0.07,1.883,0.697,2.72,1.046c0.628,0.977,2.093,0.837,1.884,2.441c0,0.488-0.279,0.907-0.349,1.465l-0.349,0.07l-0.07,0.279
		L108.831,21.291z M107.854,25.057c0-0.07,0-0.209-0.069-0.209l-0.21,0.209h-0.069v0.07c-0.07,0-0.14,0.07-0.14,0.209
		c0.14,0,0.209-0.07,0.209-0.209h0.07v-0.07H107.854z M108.273,24.5l-0.14-0.07l0.069,0.139c-0.279,0-0.069,0.418,0.07,0.209
		c-0.21-0.07,0-0.14,0-0.209h0.069L108.273,24.5z M110.017,20.523c0-0.069,0-0.209-0.069-0.209l-0.21,0.209h-0.069v0.07
		c-0.069,0-0.14,0.07-0.14,0.209c0.14,0,0.209-0.07,0.209-0.209h0.07v-0.07H110.017z M110.436,19.966l-0.14-0.07l0.069,0.14
		c-0.278,0-0.069,0.418,0.07,0.209c-0.21-0.07,0-0.14,0-0.209h0.069L110.436,19.966z"/>
</g>
</svg>
