<?xml version="1.0" encoding="utf-8"?>
<!-- Generator: Adobe Illustrator 16.0.0, SVG Export Plug-In . SVG Version: 6.00 Build 0)  -->
<!DOCTYPE svg PUBLIC "-//W3C//DTD SVG 1.1//EN" "http://www.w3.org/Graphics/SVG/1.1/DTD/svg11.dtd">
<svg version="1.1" id="Layer_1" xmlns="http://www.w3.org/2000/svg" xmlns:xlink="http://www.w3.org/1999/xlink" x="0px" y="0px"
	 width="144px" height="72px" viewBox="0 0 144 72" enable-background="new 0 0 144 72" xml:space="preserve">
<g opacity="0.8" enable-background="new    ">
	<path fill="#ED1C24" d="M7.709,35.355c0.072-0.108,0.18-0.288,0.252-0.324c0,0.072,0.072,0.107,0.072,0.18
		c0.108-0.036,0.072-0.18,0.144-0.216c0.144,0,0.108,0.036,0.144,0.072c0.072-0.072,0.036-0.288,0.216-0.324
		c0.036,0.216,0.684,0.432,0.828,0.216c-0.036,0.216,0.396,0.072,0.468,0.324c0.144-0.18,0.216,0.144,0.36,0.252
		c0.18,0.18,0.396,0.252,0.576,0.468c0,0.108,0.036,0.216,0.036,0.324c-0.108,0.144-0.072,0.396,0,0.611
		c-0.108,0.108-0.216,0.433-0.252,0.612c-0.144,0.108-0.18,0.612-0.396,0.612c0,0.071-0.036,0.144-0.072,0.18
		c-0.252,0.144-0.396,0.324-0.54,0.576c-0.216,0.071-0.9,1.151-1.044,1.296c0,0.107,0.072,0.107,0.072,0.18
		c-0.108,0.072,0.072,0.216,0.108,0.324l0.504,0.647l0.504,0.9c0.216,0.323,0.432,0.468,0.72,0.72l0.828,0.756
		c0.216,0.18,0.504,0.324,0.756,0.432c0.18,0,0.216-0.036,0.288-0.107c0.036,0.035,0.216-0.145,0.252-0.145
		c0.432-0.359,0.036-0.107,0.504-0.396l0.396-0.288c0.504-0.36,0.252-0.108,0.684-0.432c0.072-0.036,0.144-0.108,0.216-0.072
		c0.252-0.18,0.468-0.324,0.792-0.468c0.216-0.252,0.54-0.36,0.792-0.612c0.072-0.108,0.072-0.216,0.144-0.288
		c0.144,0,0.216-0.072,0.252-0.107c0.072-0.072,0.144-0.072,0.252-0.181c0.072-0.144,0.18-0.396,0.432-0.288
		c-0.072,0.217,0.072,0.324,0.036,0.612l-0.108-0.072c-0.252,0.396-0.684,0.721-0.864,0.973l-0.252,0.287
		c0,0.036-0.108,0.072-0.144,0.108c-0.144,0.18-0.252,0.432-0.504,0.396c-0.252,0.396-0.576,0.54-0.828,0.828
		c-0.18-0.072-0.144,0.324-0.36,0.288c0,0,0.036,0.036,0,0.108c-0.144,0.035-0.18,0.035-0.18,0.035l-0.108,0.217
		c-0.252,0.036-0.288,0.323-0.432,0.432c-0.108,0-0.072,0.036-0.108,0.072l-0.216,0.144c0.072,0.288,0.288,0.108,0.288,0.396
		c0.216,0.18,0.612,0.611,0.756,0.936c0.108,0.288,0.216,0.72,0.252,1.188c0,0.036,0.072,0.072,0.108,0.108
		c0,0.107-0.036,0.216,0,0.288c0,0.18,0.144,0.359,0.144,0.504c0.036,0.216-0.036,0.468,0.072,0.647
		c-0.072,0.036-0.144,0.396-0.072,0.504l-0.18,0.145c0.108,0.18-0.108,0.216,0,0.323c-0.036,0.108-0.108,0.145-0.18,0.252
		c-0.036,0.145-0.18,0.324-0.18,0.54c0,0.108-0.396,0.288-0.288,0.36c0,0.036-0.036,0.072-0.108,0.072l0.108,0.107
		c-0.144,0.108-0.18,0.504-0.324,0.504c-0.108,0.072-0.216,0.108-0.252,0.252c-0.072,0.108-0.396,0.252-0.504,0.36
		c-0.18,0.144-0.468,0.18-0.648,0.359c0,0-0.036,0.036,0,0.072c-0.288,0.036-0.432,0.18-0.504,0.324
		c-0.036,0.036-0.324,0-0.36-0.036c-0.036,0.18-0.144,0.18-0.324,0.216c-0.144,0.036,0-0.072-0.108-0.072
		c-0.144,0-0.108,0.072-0.144,0.145c-0.18,0.036-0.072,0.324-0.18,0.18c-0.072,0-0.36-0.036-0.396,0
		c-0.18-0.18-0.54,0.324-0.756,0.145c-0.432,0.071-0.72-0.145-1.116-0.145c-0.108,0-0.288-0.396-0.288-0.359
		c-0.072-0.217-0.396-0.181-0.576-0.108c-0.144-0.072-0.36-0.144-0.504-0.252L6.27,52.777l-0.252-0.504
		c-0.18-0.324-0.288-0.396-0.36-0.828c-0.072-0.36-0.252-0.72-0.108-1.044c-0.072-0.145,0.036-0.18,0-0.324
		c0.072,0-0.036-0.107,0-0.107c0.036-0.181,0.108-0.288,0.252-0.36c0-0.144,0.144-0.18,0.216-0.288
		c0.072-0.18,0.108-0.432,0.36-0.576c0.108-0.396,0.288-0.575,0.612-0.863c0.036-0.145,0.324-0.252,0.324-0.433
		c0.216-0.071,0.144-0.287,0.324-0.287c0.18-0.217,0.432-0.396,0.756-0.396c0.144-0.18,0-0.324,0.252-0.36
		c-0.036-0.071,0.324-0.359,0.324-0.432c0-0.107-0.036-0.359-0.072-0.468c0-0.036-0.072-0.036-0.072-0.072s0.036-0.107,0-0.144
		c-0.072-0.18-0.108,0.072-0.18-0.18c-0.072-0.288-0.504-0.757-0.72-0.9c-0.072-0.324-0.252-0.288-0.36-0.54
		c-0.108-0.036-0.144-0.107-0.252-0.252c-0.108-0.18-0.324-0.359-0.468-0.647c-0.072-0.216-0.252-0.433-0.36-0.612
		c-0.108-0.288-0.252-0.647-0.468-0.899c0.036-0.504-0.648-0.685-0.54-1.225c-0.036-0.107-0.108-0.107-0.144-0.216
		c0.144-0.288-0.108-1.224,0.108-1.512c-0.036-0.144-0.108-0.288-0.036-0.396c0.072,0,0.036,0.107,0.072,0.107
		c0.072-0.036,0.18-0.323,0.036-0.396c0.144,0,0.144-0.18,0.252-0.396c0.108-0.252,0.216-0.396,0.18-0.72
		c0.108,0.072,0.108-0.18,0.216-0.216c-0.108-0.072,0.288-0.36,0.36-0.468c0.108,0,0.072,0.144,0.18,0.107
		c0.072-0.107-0.072-0.18,0-0.323c0.108-0.108,0.036,0.107,0.108,0.036c0.108-0.108,0.504-0.36,0.54-0.433
		c0.108,0,0.072,0.108,0.144,0.145c0.108-0.036,0.036-0.108,0.108-0.108v0.036h0.036C7.673,35.283,7.709,35.319,7.709,35.355z
		 M6.917,50.401H6.882v0.036c-0.18,0-0.18,0.216-0.144,0.359c0,0.108,0.108,0.288,0.252,0.324c0.036,0-0.036,0.145,0.036,0.108
		c0.072,0.036,0.108,0.036,0.18,0v0.071h0.072c0,0.108,0.144,0.072,0.108,0.181c0.072,0.036,0.072-0.036,0.144-0.036
		c0,0.107,0.072,0.107,0.072,0.216l0.468-0.108c0.36,0,0.972-0.035,1.08-0.396c0.108,0.072,0.072,0,0.144,0
		c0.108-0.108,0.108-0.288,0.18-0.432c0.036-0.036,0.108-0.036,0.144-0.108v-0.144c0.072-0.181,0.324-0.36,0.36-0.504
		c0.036-0.072-0.036-0.108-0.036-0.145c0,0,0.036-0.036,0.036-0.072c0.072-0.216,0.072-0.504,0.036-0.72
		c0-0.036-0.072-0.072-0.072-0.144c0,0,0.036-0.036,0.036-0.108c-0.036-0.144-0.288-0.647-0.324-0.828
		c-0.036-0.216-0.108-0.504-0.252-0.611c0,0.072-0.036,0-0.072,0c-0.072,0.072-0.18,0.18-0.252,0.216
		c-0.144,0.108-0.432,0.252-0.612,0.36c-0.396,0.216-0.684,0.756-0.864,1.151c-0.108,0.036-0.072,0.108-0.144,0.145
		c0.036,0.18-0.108,0.323-0.072,0.396c0,0.036-0.072,0.072-0.18,0.036c0,0.072-0.108,0.18,0,0.288
		c-0.108,0.036-0.18,0.107-0.324,0.18c-0.036,0.108,0.108,0,0.144,0.072c-0.18,0.071-0.144,0.071-0.252,0.071
		c-0.036,0.108,0.108,0.036,0.144,0.072v0.036h0.036C6.954,50.401,6.954,50.401,6.917,50.401z M10.049,36.615
		c-0.396-0.072-0.756,0.396-0.828,0.323c-0.144,0.145-0.144,0.396-0.324,0.469c0.072,0.107,0.036,0.107-0.036,0.216
		c0.036,0,0.144,0,0.072,0.072c-0.036-0.036-0.252,0.287-0.324,0.252c0.036,0.432-0.36,0.72-0.072,0.936
		c0.108-0.036,0.432-0.252,0.432-0.432c0.108,0,0.144-0.072,0.18-0.217l0.036,0.036l0.036-0.036
		c0.144-0.107,0.324-0.323,0.468-0.539l0.396-0.648L10.049,36.615z"/>
	<path fill="#ED1C24" d="M26.645,49.682c-0.252,0.144-0.648,0.323-0.721,0.396c-0.216,0-0.432,0-0.504,0.145
		c-1.151,0-2.016-0.396-2.411-1.261c0.072-0.144-0.108-0.216-0.144-0.323c0-0.072,0.036-0.072,0.036-0.108l-0.288-1.151
		c-0.108-0.54-0.288-1.332-0.252-1.764c0.036-0.145,0.144-0.36,0.036-0.576c0-0.072-0.108-0.036-0.144-0.072
		c0-0.072,0.036-0.072,0.036-0.18c-0.18-0.145-0.216-0.54-0.324-0.396c0.072,0.217-0.468,0.504-0.324,0.576
		c-0.252,0.432,0.252,0.36-0.216,0.54c0.036,0.36-0.396,0.324-0.324,0.647c-0.288,0.181-0.144,0.252-0.108,0.612
		c-0.036,0.036-0.036,0.18-0.072,0.216c0.108,0.216,0,0.36,0,0.54c0,0.108,0.036,0.18,0,0.18c0,0.072-0.144,0.181,0,0.288
		c-0.18,0.036-0.252,0.288-0.144,0.433c-0.108,0.252-0.108,0.647,0.036,0.936c-0.072,0.216,0.072,0.252,0.036,0.468
		c-0.036,0-0.036,0.072-0.036,0.108c-0.18,0-0.288,0.144-0.36,0.252c-0.072,0-0.108-0.036-0.144-0.072
		c-0.036,0.072-0.252,0.072-0.288,0.216c-0.072,0-0.072-0.144-0.144-0.144c-0.252,0.144-0.468,0.216-0.576,0.432
		c-0.432,0-0.756,0-1.152-0.036c-0.108-0.036-0.108-0.072-0.144-0.072c-0.072-0.071-0.252,0-0.324-0.071
		c-0.576-0.145-0.792-0.612-0.972-1.188c-0.216-0.504-0.072-1.224-0.504-1.764c0-0.252-0.072-0.396-0.216-0.575
		c0.036-0.324-0.216-0.757-0.288-1.152c0-0.108,0-0.144-0.036-0.18c0.036-0.216,0-0.288-0.072-0.468c0.036-0.108,0-0.396-0.108-0.54
		c0.144-0.217-0.108-0.54,0-0.792c0.072-0.108-0.036-0.108-0.036-0.216c0.216-0.721,0.18-1.729,0.252-2.521
		c0.072-0.468,0.144-0.899,0.18-1.296c0.036-0.504,0.144-0.972,0.252-1.403c0.036-0.468,0-0.936,0.072-1.296
		c0-0.108,0-0.108,0.072-0.108c0.036-0.539,0.036-0.827,0.144-1.295c0-0.036,0-0.072-0.072-0.072
		c0.252-0.433,0.252-0.937,0.288-1.44c0.036-0.359,0.072-0.684,0.18-1.008c-0.036-0.396,0.108-0.863,0.18-1.188h-0.072
		c0.18-0.54,0.36-1.26,0.576-1.908c0.072-0.036,0.072-0.072,0.108-0.072c-0.036-0.144,0.108-0.216,0-0.216
		c0.144-0.108,0.108-0.324,0.18-0.468c0.108-0.18,0.252-0.36,0.36-0.612v-0.18c0.036-0.108,0.144-0.18,0.072-0.324
		c0.144-0.108,0.252-0.396,0.432-0.54c0-0.072,0.108-0.108-0.036-0.108c0.036-0.108,0.108,0,0.144,0
		c0.036-0.144,0.036-0.288,0.108-0.432c0,0,0.144-0.036,0.18-0.072l0.036-0.144c0.216-0.108,0.36-0.396,0.612-0.432
		c0.036-0.072-0.036-0.216,0-0.252c0.036,0,0.036,0,0.036,0.036c0.216-0.252,0.468-0.252,0.756-0.396
		c0.18,0.036,0.396-0.072,0.648-0.072c0.396,0,0.828,0.18,1.08,0.108c0,0.18,0.288,0,0.288,0.18c0.072-0.036,0.144-0.072,0.18-0.072
		c0.108,0.108,0.108,0.252,0.216,0.288c-0.036,0.036,0.18,0.108,0.144,0.216c0.036,0.108,0.252,0.144,0.324,0.252
		c-0.036,0.396,0.252,0.576,0.072,0.864c0.144,0.072,0.144,0.18,0.144,0.252l0.324,0.36c-0.036,0.036,0,0.216-0.036,0.18
		c0.036,0.072,0.036,0,0.072,0.072c0,0.216,0.036,0.396,0.036,0.54c0.252,0.144,0.108,0.396,0.288,0.576
		c-0.072,0.072,0,0.18-0.072,0.324h0.108c-0.144,0.18-0.072,0.36,0,0.612c-0.036-0.036-0.036-0.036-0.072-0.036
		c0.072,0.252-0.036,0.36,0,0.684c-0.036,0-0.036-0.036-0.072-0.036c0,0.432-0.072,0.648-0.18,0.828
		c0.072,0.072,0.18,0.468-0.036,0.432c0.216,0.216,0,0.433,0,0.685c-0.18,0-0.18-0.108-0.252,0c0.036,0.144,0.252-0.072,0.252,0.144
		c-0.036,0,0,0.036,0,0.036c-0.036,0.036-0.036,0-0.18,0c0,0.108,0.036,0.144,0.036,0.216c-0.108,0.036-0.288,0.145-0.288,0
		c-0.072,0.036-0.036,0.145,0,0.18v0.072c0.072,0.216-0.072,0.432,0,0.54l-0.108,0.18c0.036,0.036,0.072,0.072,0.108,0.072
		l-0.144,0.216c-0.036,0.216-0.036,0.396-0.144,0.612c0,0.036-0.108,0.18-0.18,0.288c0,0.107-0.108,0.216-0.144,0.288
		c-0.036,0.144,0,0.359-0.072,0.468c0,0.071-0.144,0.288-0.216,0.468c0,0.036-0.108,0.107-0.216,0.18
		c0.18,0.036-0.036,0.145-0.036,0.18c-0.036,0.036,0.036,0.036,0.036,0.108c0,0.108-0.144,0.18,0,0.252
		c-0.036,0.072-0.144,0.072-0.18,0.108v0.036l-0.036-0.036v0.036c-0.072,0.035-0.108,0-0.108,0c-0.108,0.035,0.144,0.107,0,0.18
		c-0.36-0.145-0.252,0.359-0.288,0.54h-0.108c-0.036-0.036-0.144-0.036-0.144-0.072c-0.072,0.18,0,0.468-0.18,0.684h-0.144
		c-0.072,0.468-0.072,0.72-0.288,1.008c0.144,0.072,0.18,0.36,0.036,0.54c0.108,0.216,0.288,0.433,0.144,0.576
		c-0.072,0-0.072-0.036-0.072-0.072c-0.18,0.108-0.144,0.433-0.288,0.54c0,0.108,0.036,0.72,0.108,0.756
		c-0.072,0.145,0,0.864,0.072,1.008c0.144-0.036,0.108-0.288,0.18-0.432c-0.036-0.072-0.108,0-0.072-0.216
		c0.144,0,0.072-0.036,0.108-0.036c0.072-0.036,0.036-0.252,0.036-0.324c0.324-0.504,0.432-1.26,0.792-1.655v-0.145
		c0.144-0.071,0.216-0.323,0.36-0.504c-0.036-0.144-0.072-0.144,0.036-0.288h0.036v-0.036c0.288,0,0.18-0.252,0.36-0.287
		c0-0.036-0.072-0.072-0.072-0.145h0.072l0.036-0.036c0,0.036,0.036,0.036,0.072,0.036c-0.036-0.072,0.288-0.216,0.036-0.288
		c0.108-0.107,0.216-0.071,0.288-0.036h0.036c0.108-0.071,0.144-0.252,0.18-0.252c0.108-0.107,0.252-0.107,0.396-0.144
		c0.252-0.072,0.432-0.288,0.684-0.36c0.468-0.071,0.9,0.217,1.439,0.36c0.108,0.18,0.288,0.396,0.469,0.576
		c0.18,0.611-0.145,1.08-0.145,1.691c-0.576-0.107-0.828,0.432-1.151,0.828c-0.433,0.072-0.469,0.468-0.756,0.647
		c0,0.145,0.035,0.36-0.108,0.36c-0.072-0.072,0-0.144-0.036-0.252c-0.216,0.036-0.396,0.216-0.252,0.36
		c-0.072,0.035-0.144-0.072-0.216,0c0,0.216,0.252,0.18,0.252,0.396c0.324,0.216,0.576,0.54,0.899,0.756c0,0,0.036,0,0.036-0.036
		c-0.036,0.216,0.145,0.36,0.216,0.54c0.036,0.396,0.217,0.648,0.505,0.828c0,0.072-0.108,0.072-0.108,0.107
		c0,0.145,0.108,0.145,0.144,0.217c-0.18,0.504,0.252,0.791,0.108,1.26c-0.072,0.036-0.108,0.036-0.144,0.107
		c0.035,0.145,0.144,0.145,0.252,0.216c-0.108,0.252-0.036,0.145,0,0.396c0.071,0.072,0.071,0,0.216,0c0,0.144,0.18-0.108,0.216,0
		l0.432-0.684c0.036-0.036,0.145-0.036,0.216-0.072v-0.216c0.108,0,0.072-0.145,0.181-0.145c0-0.107,0.035-0.144,0.035-0.252
		c0.145-0.18,0.253-0.396,0.288-0.72c0.217-0.288,0.396-0.612,0.612-0.972c0-0.108-0.036-0.108-0.036-0.181
		c0.036,0,0.072,0,0.072-0.035c0.144-0.469,0.288-0.648,0.576-1.08l0.035-0.216c0.324-0.468,0.54-1.044,0.937-1.44
		c0-0.036-0.036-0.071-0.036-0.071c0-0.217,0.432-0.36,0.324-0.612c0.144-0.072,0.504-0.504,0.432-0.576
		c-0.108-0.071,0.072-0.071,0.108-0.071c0.18-0.108,0.287-0.288,0.575-0.252c0.036,0.107,0.036,0.252,0.036,0.359
		c0,0.18,0.036,0.324-0.072,0.504c-0.035,0.036-0.107,0.072-0.107,0.108c-0.072,0.18-0.036,0.359-0.072,0.504
		c-0.107,0-0.072,0.107-0.18,0.071c0,0.252-0.145,0.288-0.252,0.469c-0.036,0.071,0.036,0.107,0.036,0.18
		c-0.145-0.036-0.145,0.108-0.216,0.144l-0.036,0.217c-0.216,0.144-0.252,0.575-0.469,0.72c0,0.036,0.036,0.071,0.036,0.144
		c-0.252,0.145-0.288,0.612-0.468,0.756c-0.036,0.072,0.036,0.108,0,0.145c-0.216,0.107-0.252,0.396-0.396,0.575
		c0,0.072,0.071,0.108,0.036,0.217c-0.072,0.216-0.108,0.216-0.217,0.359c0,0.324-0.071,0.036-0.071,0.36
		c-0.108,0.036-0.181,0.071-0.181,0.252c-0.252,0.18-0.216,0.647-0.468,0.828v0.18c-0.107,0.072-0.18,0.432-0.323,0.432
		c-0.072,0.432-0.108,0.612-0.252,0.936c-0.072-0.035-0.324,0.648-0.36,0.648l-0.432,0.54V49.682z M22,29.092
		c-0.324,0.108-0.108,0.144-0.252,0.324c0,0.108,0.036,0.144,0.072,0.252c-0.036,0.036-0.108,0.072-0.144,0.216
		c0.072,0,0.108,0.036,0.108,0.108c-0.036,0.072-0.144,0.036-0.18,0.144c0.036,0.036,0.036,0.144,0.072,0.18
		c-0.252,0.108,0.072,0.504-0.144,0.648c0.072,0.072,0.108,0.108,0.108,0.252c-0.144,0.108-0.216,0.504-0.252,0.684
		c0.036-0.108,0.036,0.108,0,0.108c0,0.036-0.036,0.036-0.036,0.036c0,0.036,0.036,0.036,0.036,0.072h-0.072
		c0,0.036,0.036,0.072,0.036,0.181c0,0.071-0.108,0.144-0.108,0.252c0,0.035,0.072,0.107,0.072,0.144s-0.108,0.145-0.108,0.18
		c0,0.181-0.036,0.396-0.036,0.648c0.036,0.18,0.144,0.359,0.072,0.468c-0.036,0.144-0.036,0.036,0,0.216
		c0.072,0.18-0.072,0.468-0.036,0.684c0,0,0.036,0,0.036,0.036c-0.108,0.288,0.144,0.504,0,0.648c0.072,0,0.144,0,0.144,0.072
		l-0.072,0.144c-0.072,0.072,0.072,0.036,0.072,0.108c-0.144,0.144-0.144,0.359-0.144,0.504c0,0.216-0.036,0.432,0.108,0.611
		c0.072-0.072,0.144-0.216,0.072-0.359c0.216-0.36,0.468-1.044,0.468-1.477C22.109,35.067,22,34.779,22,34.635
		c0-0.071,0.072-0.107,0.072-0.144l-0.036-0.072h0.072c0-0.107-0.036-0.18-0.036-0.252c0,0,0.108-0.107,0.108-0.144l0.072-0.576
		c0.144,0.145,0-0.252,0.144-0.216c-0.036-0.108-0.036-0.072-0.036-0.252c0.036,0.072,0.108,0.072,0.108-0.036
		c0.036-0.288,0.288-0.792,0.144-1.044c0.144,0,0.072-0.252,0.144-0.324c0-0.036,0.072-0.036,0.072-0.072c0.036-0.108,0-0.18,0-0.18
		s0.072,0.036,0.072,0c0.144-0.36,0-0.648-0.072-1.008c0.036-0.144,0.036-0.252-0.144-0.324c-0.108-0.216-0.144-0.468-0.36-0.576
		c-0.036-0.252-0.036-0.144,0.072-0.18c-0.18-0.324-0.18-0.36-0.18-0.36V28.84c0.036-0.072-0.108-0.144-0.108-0.072
		c0.072,0-0.036,0.072,0.072,0.072l-0.072,0.072l0.036,0.144L22,29.092z M24.809,40.574c0.071-0.071,0.216-0.071,0.288-0.216
		c-0.145,0-0.145-0.107-0.288-0.107c0,0.035,0,0.071-0.036,0.071l-0.036,0.036h-0.072c-0.107-0.072-0.144-0.107-0.071-0.18
		c-0.217,0.036-0.324,0.144-0.504,0.252c0,0.072,0.108,0.072,0.072,0.144c-0.072-0.071-0.108,0-0.18,0.036
		c0-0.144-0.108-0.18-0.216-0.288c0,0.145,0.108,0.181-0.036,0.181c-0.324-0.072-0.54,0.396-0.612,0.827
		c-0.108,0.036-0.216,0.108-0.288,0.252c0,0.036-0.072,0.036-0.072,0.036c-0.072,0.072,0.036,0.18,0,0.252
		c-0.072,0.181-0.216,0.324-0.144,0.54c0.036,0.072,0.036,0.18,0.072,0.216c0,0.072-0.072,0.036-0.072,0.181
		c0.18-0.072,0.144-0.252,0.252-0.324c0.36-0.072,0.576-0.36,0.792-0.612c0.036,0,0.036,0.036,0.072,0.036
		c0.036-0.108-0.108-0.072-0.108-0.144c0.036,0,0-0.072,0-0.108c0.072,0.036,0.072-0.036,0.144-0.036v0.145h0.18
		c0-0.181,0.144-0.217,0.072-0.36c0.359-0.072,0.432-0.324,0.468-0.647c-0.108,0-0.18,0-0.18-0.108
		c0.144-0.036,0.216-0.108,0.324-0.18c0.036-0.108,0.108-0.036,0.108-0.036h0.036C24.809,40.503,24.664,40.538,24.809,40.574z"/>
	<path fill="#ED1C24" d="M35.609,47.342l0.071,0.036c0.072-0.145,0.145-0.324,0.252-0.468c0.036-0.036,0.145-0.036,0.217-0.072
		v-0.216c0.107,0,0.071-0.145,0.18-0.145c0-0.107,0.036-0.144,0.036-0.252c0.144-0.18,0.252-0.396,0.288-0.72
		c0.216-0.288,0.396-0.612,0.611-0.972c0-0.108-0.036-0.108-0.036-0.181c0.036,0,0.072,0,0.072-0.035
		c0.144-0.469,0.288-0.648,0.576-1.08l0.036-0.216c0.323-0.468,0.54-1.044,0.936-1.44c0-0.036-0.036-0.071-0.036-0.071
		c0-0.217,0.432-0.36,0.324-0.612c0.144-0.072,0.504-0.504,0.432-0.576c-0.107-0.071,0.072-0.071,0.108-0.071
		c0.18-0.108,0.288-0.288,0.576-0.252c0.035,0.107,0.035,0.252,0.035,0.359c0,0.18,0.036,0.324-0.071,0.504
		c-0.036,0.036-0.108,0.072-0.108,0.108c-0.072,0.18-0.036,0.359-0.072,0.504c-0.107,0-0.071,0.107-0.18,0.071
		c0,0.252-0.144,0.288-0.252,0.469c-0.036,0.071,0.036,0.107,0.036,0.18c-0.145-0.036-0.145,0.108-0.216,0.144l-0.036,0.217
		c-0.216,0.144-0.252,0.575-0.468,0.72c0,0.036,0.036,0.071,0.036,0.144c-0.252,0.145-0.288,0.612-0.469,0.756
		c-0.035,0.072,0.036,0.108,0,0.145c-0.216,0.107-0.252,0.396-0.396,0.575c0,0.072,0.072,0.108,0.036,0.217
		c-0.072,0.216-0.108,0.216-0.216,0.359c0,0.324-0.072,0.036-0.072,0.36c-0.108,0.036-0.18,0.071-0.18,0.252
		c-0.252,0.18-0.217,0.647-0.469,0.828v0.18c-0.107,0.072-0.144,0.216-0.287,0.216c-0.072,0.432-0.288,0.612-0.433,0.936
		c-0.071-0.036-0.252,0.504-0.288,0.504l-0.287,0.396l-0.433,0.54c-0.18,0.18-0.144,0.288-0.396,0.396
		c-0.108,0.324-0.864,0.684-0.937,0.576c-0.647,0.036-0.684-0.108-1.224,0.072c-0.432-0.036-1.224-0.072-1.584-0.36
		c-0.071,0-0.107-0.216-0.18-0.252c-0.612-0.216-0.899-0.612-1.116-1.152c-0.071,0-0.216-0.684-0.252-0.72
		c-0.035-0.504-0.252-1.008-0.107-1.548c-0.36-0.647-0.324-1.476-0.252-2.304c0.036-0.756,0.072-1.548,0.18-2.268
		c0.036-0.216-0.036-0.396,0-0.576c0-0.035,0.072-0.107,0.072-0.144c0.036-0.036,0.072-0.828,0.072-0.828
		c0-0.144,0.071-0.216,0.071-0.323l0.252-0.937c0.036-0.072-0.036-0.107-0.071-0.144c0-0.108,0.107,0,0.107-0.108
		c0.036-0.107-0.072-0.107-0.072-0.18c0.036-0.108,0.181-0.036,0.217-0.072c0-0.216,0.144-0.288,0.18-0.504
		c0.216-0.036,0.288,0.072,0.468-0.036l0.324-0.288l0.396,0.108l0.468,0.036c0.036,0.036,0.181,0.036,0.252,0.144v-0.071h0.072
		c0,0.287,0.576,0.18,0.756,0.432c-0.144,0.072,0.108,0.107,0.108,0.216c0.036-0.108,0.216-0.072,0.252-0.072
		c0.144,0.072-0.072,0.108-0.072,0.145l0.216,0.216c0,0.036-0.071,0.036-0.107,0.036c0,0.071,0.107,0.144,0.18,0.18
		c-0.072,0.216,0.828,0.648,0.036,0.648c0.107,0.539,0,2.016,0,2.699c0,0.036-0.036,0-0.036,0.036
		c0.108,0.54-0.36,1.151-0.108,1.619c-0.071,0.864,0.145,0.685,0.145,1.477c0.036,0.107,0.072,1.044,0.072,1.115
		c0.035,0.108,0.035,0.54,0.035,0.612c0.108,0.216,0.181,0.396,0.108,0.612c0.072,0.071,0.216,0.359,0.396,0.323
		c0,0.072,0.648-0.432,0.54-0.323C35.394,48.134,35.501,47.701,35.609,47.342z M31.109,36.723v-0.468
		c-0.216-0.396-0.396-0.936,0.145-1.008c0.036-0.324,0.252-0.54-0.036-0.684c0.072-0.145,0.216-0.216,0.036-0.252
		c0-0.145,0.216-0.145,0.107-0.324c0.036,0,0.108-0.036,0.181,0c0.035-0.252,0.287-0.288,0.396-0.468
		c0-0.036-0.072-0.108-0.144-0.145c0.144,0,0.252-0.035,0.432-0.035c0.072-0.108-0.108-0.072-0.072-0.108
		c-0.036-0.144,0.108-0.144,0.145-0.072c0-0.071,0.035-0.071,0.035-0.144l0.036,0.036v-0.036c0.072-0.036,0.108-0.072,0.181-0.036
		c0.107,0.072,0.18,0.108,0.216,0.216c0,0.108-0.108,0.036-0.036,0.108c0,0.071,0.107,0.036,0.144,0.036
		c0-0.072-0.071-0.036-0.107-0.072c0.107-0.216,0.288-0.145,0.432-0.145c0.036,0.036-0.036,0.108,0,0.145l-0.036,0.036h0.036
		c0.036,0.036,0.145,0.107,0.18,0.071c0.108,0.072,0.108,0.145,0.145,0.288c0.432,0.036,0.576,0.433,0.863,0.108
		c0.108,0,0.108,0.107,0.217,0.107c0,0.181,0.071,0.576,0.18,0.721c-0.145,0.396,0,0.792-0.216,1.188
		c0.071,0.144-0.108,0.216-0.036,0.288c0,0.072,0.036,0.18,0.036,0.216s-0.036,0.072-0.036,0.108
		c-0.036,0.035,0.036,0.144,0.036,0.144c-0.036,0.252-0.288,0.396-0.54,0.504c0.072,0.072,0.144-0.036,0.144,0.108
		c-0.396,0.035-0.54,0.288-0.972,0.252c-0.216,0.071-0.288,0.071-0.54,0.036l-0.252-0.036L32.01,37.19l-0.396-0.144L31.109,36.723z
		 M31.325,38.091c0,0-0.144-0.036-0.144,0C31.254,38.091,31.325,38.234,31.325,38.091z"/>
	<path fill="#ED1C24" d="M50.26,51.805c0-0.107-0.144-0.359,0-0.468v-0.107c0-0.072,0-0.145-0.036-0.217h-0.035
		c-0.145-0.035-0.108-0.252-0.036-0.359l-0.036-0.036c-0.108,0-0.108-0.144-0.072-0.216l-0.036-0.72c0-0.108,0.036-0.181,0-0.216
		c-0.107-0.36-0.288-0.937-0.323-1.44l-0.108-1.943c-0.18,0.323-0.432,0.611-0.612,0.756c-0.036,0.432-0.323,0-0.359,0.468
		c-0.108,0.036-0.145,0.144-0.252,0.18c0.036,0.036,0.036,0.108,0.036,0.216c-0.217-0.144-0.648,1.404-0.9,1.368
		c0,0.18-0.144,0.216-0.144,0.36c-0.145,0.071-0.181,0.18-0.324,0.18c-0.072,0.36-0.18,0.468-0.396,0.647l-0.863,0.504
		c0,0.108-0.18,0.108-0.216,0.181c-0.252,0.107-0.576-0.036-0.72,0.18c-0.072-0.036-0.469-0.108-0.54,0.072
		c-0.181-0.145-0.576,0.036-0.937,0.036c-0.18,0-0.359-0.072-0.611,0.071c0.071-0.107-0.072-0.144-0.108-0.144
		c-0.504-0.072-0.828-0.324-1.26-0.504c-0.144-0.216-0.36-0.54-0.647-0.612c0-0.071-0.036-0.071-0.036-0.107
		c-0.324-0.252-0.468-0.612-0.756-0.864c-0.145-0.216-0.217-0.54-0.396-0.684c0.036-0.252-0.036-0.433-0.144-0.576
		c0-0.288-0.145-0.504-0.288-0.647c0.036-0.469-0.216-0.828-0.288-1.332c-0.036-0.252-0.036-0.468-0.144-0.685
		c-0.108-0.432-0.108-1.008-0.217-1.439c0.108-0.252,0.036-0.684,0.108-1.08c0.108-0.54,0.144-1.151,0.216-1.871
		c0.036-0.145,0.108-0.288,0.108-0.54c0.036-0.108,0-0.216,0-0.324l0.107-0.576l0.145-0.936c0.036-0.288,0-0.612,0.071-0.9
		c0-0.107,0-0.107,0.036-0.107c0-0.685,0.216-1.224,0.324-1.908c0.108-0.576,0.144-1.08,0.288-1.691
		c0-0.036-0.036-0.072-0.036-0.108c0,0,0.036,0,0.108-0.036c0-0.144,0-0.323,0.036-0.468c0.035-0.071,0.107-0.107,0.144-0.144v-0.36
		l0.144-0.107c0-0.072-0.035-0.145,0-0.181c0.036-0.18,0.181-0.324,0.108-0.468c0.252-0.252,0.288-0.576,0.36-1.008
		c0.252-0.18,0.144-0.576,0.323-0.72c-0.071-0.108,0.145-0.36,0.181-0.288c-0.036-0.216,0.107-0.252,0.144-0.396
		c-0.108-0.216,0.072-0.432,0.072-0.684c0.18,0,0.036-0.108,0.071-0.288c0.181-0.072,0.288,0.072,0.36,0c0-0.036-0.108-0.18-0.072,0
		c-0.071-0.036,0.072-0.216-0.071-0.216c0.071-0.108,0.287-0.108,0.216-0.324V27.94l-0.036-0.036
		c0.252-0.108-0.036-0.648,0.324-0.396h0.288c0-0.144-0.108-0.18-0.145-0.18c0.036,0,0.036-0.036,0.036-0.036l0.036-0.072
		c0-0.072,0.144-0.108,0.288-0.18c0-0.072-0.252-0.432,0.288-0.252c-0.54-0.036,0.323-0.828,0.287-0.252h-0.071
		c0.036,0.108,0.144,0.252,0.252,0.144v-0.072l-0.036,0.036c0-0.144,0.072-0.108,0.107-0.144c-0.144-0.324,0.324-0.396,0.504-0.216
		c0.108,0,0.108-0.108,0.145-0.18l0.036-0.036c0.071-0.108,0.036-0.036,0.144,0c-0.036,0.108,0,0.144-0.072,0.216
		c0.181,0.108,0.108-0.144,0.253-0.18c-0.036,0.072,0.071,0.036,0.071,0.108c0.288-0.072,0.576-0.072,0.828-0.072h0.288
		c0.359,0.108,0.504,0.252,0.611,0.54c0,0.036-0.035,0-0.035,0c0.035,0.108,0,0.396,0.107,0.468V27.4
		c0.145-0.144,0.036-0.036,0.145,0.036c-0.108,0.072,0.035,0.216,0.216,0.288c0,0.108,0,0.144-0.072,0.144
		c0.036,0.144,0.216,0.216,0.072,0.324c0,0.072,0.071,0.108,0.107,0.144c0.072,0.828,0.612,2.052,0.433,3.132
		c0.216,0.36,0,0.504,0,0.899c-0.072,0-0.036,0.108-0.072,0.108c0,0.216-0.072,0.324-0.18,0.432
		c-0.108,0.252-0.145,0.685-0.36,0.864l-0.108,0.54v0.144c-0.035,0.145-0.216,0.216-0.287,0.36
		c-0.145,0.323-0.108,0.576-0.217,0.828l-0.107,0.107v0.072c-0.072,0.107-0.18,0.216-0.072,0.324c-0.107,0-0.072,0.144-0.18,0.144
		v0.252c-0.288,0.072-0.252,0.468-0.288,0.72h-0.144c0.035,0.108-0.072,0.181,0,0.216l-0.145,0.108c0,0.288-0.792,0.72-0.936,1.044
		c0.036,0.107,0.036,0.18,0.036,0.288c-0.181,0-0.181,0.18-0.324,0.18c0.107,0.396-0.432,0.36-0.216,0.684l-0.252,0.217
		c0.036,0.18-0.036,0.287-0.145,0.359c0,0.216,0.036,0.324,0.181,0.396c-0.036,0.287-0.324,0.611-0.072,0.756
		c-0.108,0.216-0.216,0.287-0.108,0.432c-0.107,0.18-0.036,0.468-0.071,0.72c0.035,0.145,0.107,0,0.18,0.072v0.252h-0.108
		c0.036,0.18-0.107,0.504,0.108,0.54c-0.108,0.071-0.18,0.252,0,0.288c0,0.18-0.18,0.144-0.145,0.359
		c0,0.108,0.072-0.036,0.145,0.036c0.036,0.072-0.072,0.072-0.108,0.072c0.145,0.107,0,0.396,0.216,0.54c0,0.18-0.18,0.252,0,0.359
		c-0.071,0.072-0.071,0.36,0.145,0.324c-0.072,0.144-0.072,0.252-0.108,0.468c-0.036,0.072,0.108,0.072,0.145,0.072
		c0,0.072-0.072,0.216,0.18,0.216c0,0.216,0.072,0.252,0.072,0.432c-0.036,0-0.072,0-0.072,0.108c0,0.144,0.18,0.036,0.216,0.108
		c-0.036,0.144,0,0.144-0.072,0.216c0.252,0.396,0.072,0.863,0.576,0.972c0,0.036-0.036,0.036-0.036,0.072
		c0.324,0.18,0.648,0.504,0.828,0.72l0.576,0.071c0-0.107-0.036-0.107,0-0.18c0.144,0.108,0.396-0.036,0.432-0.252
		c0.145,0.108,0.252-0.18,0.36-0.252c0.107-0.107,0.144-0.107,0.252-0.288c0-0.036,0.576-0.936,0.647-0.972
		c0.145-0.324,0.181-0.216,0.396-0.359c-0.036-0.181,0.071-0.324,0.216-0.433c0.144-0.468,0.72-1.08,0.936-1.476
		c0.108-0.144,0.108-0.36,0.181-0.468c-0.108-0.396-0.036-0.937-0.072-1.476c-0.072-0.54,0.107-0.973,0.036-1.44
		c-0.036-0.107,0.036-0.288,0.071-0.468v-0.899c0-0.396-0.107-0.757-0.071-1.152c0-0.144,0.036-0.288,0.036-0.432
		c0.035-0.576,0.035-1.332,0.18-1.836c0-0.072-0.072-0.108-0.072-0.216c0.072-0.108-0.036-0.36,0-0.54
		c0-0.036,0.036-0.036,0.036-0.036c0-0.468-0.036-0.9-0.036-1.296c0.108-1.332,0.396-2.412,0.396-3.6
		c0.107-0.18,0.107-0.504,0.144-0.864c0.072,0,0.036-0.108,0.108-0.108c0.071-0.288,0.216-0.576,0.287-0.9
		c0.072-0.108,0.108-0.36,0.108-0.54c0.072,0,0.072-0.144,0.144-0.144c0.036-0.396,0.181-0.648,0.252-0.972
		c0.108,0,0.108-0.072,0.181-0.108c-0.036-0.576,0.288-0.864,0.432-1.332c0.072,0,0.036,0.108,0.072,0.18
		c0.072-0.072,0.072-0.216,0.144-0.216c0.036,0,0,0,0,0.036c0.108-0.108,0.181-0.288,0.252-0.396l0.108,0.072
		c0.072-0.108,0.216-0.108,0.252-0.36h0.107c0.108-0.288,0.36-0.324,0.396-0.612c0.072,0,0.18-0.108,0.252,0
		c0.036-0.072,0.107-0.072,0.072-0.18c0.071-0.036,0.107,0,0.144,0c0.072-0.036,0.072-0.108,0.072-0.216h0.071
		c0.036-0.072,0.108-0.108,0.145-0.252c0.252-0.108,0.612-0.396,0.792,0.072c0.18-0.18,0.288,0.18,0.468,0.18
		c0.324,0,0.792-0.18,0.972,0.036l0.145,0.252c0.071,0.108,0.144,0.288,0.18,0.396l0.144,0.18c0.036,0.252,0.252,0.396,0.288,0.72
		l0.072,0.108c0.036,0.36,0.108,0.648,0.216,0.972l0.072,0.504c0.036,0.396,0.107,0.864,0.144,1.512l-0.036,0.108
		c-0.071,0.72,0.036,1.224-0.144,1.908c-0.036,0.144,0,0.144,0,0.18c-0.072,0.252-0.144,0.684-0.144,0.972c0,0-0.072,0-0.108,0.108
		c0.036,0.108,0.288,0.252,0,0.36c0,0.18-0.036,0.54-0.18,0.684c0,0.036,0.071,0.108,0.036,0.216c-0.036,0-0.036,0.108-0.145,0.108
		c0.252,0.252-0.036,0.144-0.072,0.468v0.036c-0.216,0.18-0.18,1.044-0.359,1.115c0.252,0.433-0.072,0.108-0.216,0.433
		c0.396,0-0.108,1.079-0.396,0.899c0,0,0-0.036-0.036-0.036c0,0.036-0.036,0.036,0,0.036c0,0.18,0,0.18-0.036,0.18
		c0,0.396,0.036,0.36-0.359,0.685c0,0.396,0.18,0.036-0.216,0.288c0,0,0.575,0.575,0,0.288c-0.145,0.359,0,0.684-0.396,0.791
		l-0.036-0.035v0.107c-0.071,0-0.107,0.036-0.18,0.108l0.072,0.18c0,0.036-0.036,0.036-0.072,0.036
		c0.108,0.216-0.072,0.576-0.288,0.576v0.071h-0.036c-0.071,0.036-0.071,0.108-0.144,0.108c0,0.072,0.144,0.36-0.145,0.18
		c0.036,0.108,0.288,0.288,0,0.324c-0.035,0.108,0.072,0.072,0.145,0.108c-0.036,0.107-0.145,0.18-0.145,0.252
		c-0.035-0.036-0.071-0.072-0.071-0.108c0,0.252,0,0.54-0.181,0.72c0.108,0.036-0.107,0.576,0.072,0.72v0.036h0.036
		c-0.216,0.108,0,0.288-0.18,0.36c0.071,0.216,0,0.684,0.252,0.863c-0.108,0.252-0.216,0.504,0,0.721
		c-0.108,0.359-0.108,0.647-0.036,0.972c-0.145,0.468,0.216,0.972,0.36,1.332c0.035,0.144-0.145,0.071-0.108,0.18
		c-0.036,0.144,0.108-0.072,0.108,0.036c0.035,0.144-0.108,0.036-0.108,0.036c0,0.107,0,0.288,0.072,0.359
		c-0.181,0.396,0.288,0.864,0.071,1.152c0.217,0.252-0.144,0.756,0.108,0.899c-0.18,0.216,0.216,0.54-0.108,0.792
		c0.36,0.792,0.145,1.512,0.252,2.196c0.036,0.144,0.217,0.107,0.181,0.18c0.036,0.396,0.071,0.756,0.071,1.151
		c0,0.072-0.035,0.181-0.035,0.252v0.072l0.071,0.288l0.252,0.108l0.396-0.505c0,0,0.252-0.432,0.323-0.216
		c0.396-0.288,0-0.684,0.54-0.72c0.252-0.18,0.108-0.107,0.036,0c0.324-0.216,0.216-0.432,0.216-0.432l0.612-0.145
		c-0.216,0.108,0.108,0.324-0.216,0.396l-0.324,0.072c0.072,0.287,0.36,0.252,0.072,0.287l-0.36,0.145
		c0.036,0.18,0.216,0.252,0.36,0.324c-0.252,0.035-0.216,0.359-0.216,0.359s0.144,0.288-0.288,0.036
		c0.036,0.252,0.036,0.324,0.216,0.324l-0.108,0.072c-0.359,0.396-0.252,0.72-0.252,0.72c0.108,0.54-0.216,1.403-0.468,1.151
		c0,0-0.216,0.36-0.288,0.216v0.072c0.036,0,0.036,0.036,0.036,0.036c0.756-0.396-0.611,0.864-0.936,0.468
		c-0.324,0-0.145,0.288-0.36,0c-0.072,0-0.107,0-0.144-0.036l-0.216,0.072c0,0-0.324,0.072-0.433-0.18l0.072,0.288
		c-0.432-0.181-0.36-0.324-0.324-0.324l-0.18,0.036c-0.216-0.216-0.576-0.288-0.432-0.576L51.88,55.98
		c-0.252,0.036-0.288-0.252-0.288-0.252s-0.108-0.36-0.72-1.296c0,0-0.432-0.288-0.108-0.72c-0.107-0.324-0.432-0.576-0.323-0.612
		c-0.181-0.071,0.071-0.396,0.071-0.396l-0.288-0.288C50.188,52.237,50.26,51.913,50.26,51.805c-0.036,0-0.071,0-0.18-0.035
		C50.188,51.733,50.224,51.77,50.26,51.805z M43.961,37.335c0.18-0.108,0.18-0.288,0.252-0.468c0-0.036,0.072,0,0.072,0
		c0.107-0.252,0.72-0.648,0.827-0.9c0.108-0.144,0.181-0.144,0.217-0.216c-0.036,0-0.072-0.072-0.036-0.072
		c0-0.035,0.071-0.035,0.071-0.071c0.036-0.072,0-0.181,0-0.216c0.036-0.036,0.036-0.072,0.072-0.181
		c0.072-0.288,0.324-0.504,0.36-0.684c0.036-0.072,0-0.145,0-0.216c0.071-0.181,0.252-0.36,0.323-0.612V33.34
		c0.108-0.108,0.145-0.324,0.324-0.396c-0.107-0.396,0.145-0.756,0.108-1.26c0.18-0.144,0.071-0.648,0.036-0.9
		c0-0.216-0.288-0.432-0.324-0.612c0-0.108-0.036-0.108-0.036-0.18c0-0.252,0.036-0.576,0.036-0.756
		c-0.145-0.108-0.252-0.324-0.252-0.612c-0.108-0.072-0.072-0.108-0.145-0.288c-0.18-0.072-0.647-0.108-0.899-0.036
		c-0.036,0.144-0.072,0.216-0.036,0.468c-0.036-0.072-0.144,0-0.144,0.036c0.071,0-0.072,0.288-0.072,0.396
		c-0.072-0.036-0.144-0.072-0.18-0.036c0,0.18,0.216,0.144,0.216,0.252c0.072,0.288-0.216,0.288-0.288,0.504
		c0,0.036,0.072,0.072,0.072,0.18c-0.072-0.036-0.072,0-0.072,0.036c-0.036,0.288,0,0.54,0,0.72c0,0-0.072,0.036-0.072,0.072
		c0,0.144,0.036,0.216,0,0.324c0,0.072-0.072,0.18-0.107,0.288c0,0.036,0.035,0.216-0.072,0.216
		c0.072,0.252-0.036,0.576-0.072,0.792c-0.036,0.107,0.036,0.18,0,0.288c-0.036,0.144-0.144,0.252-0.144,0.468
		c0.071,0.18,0.071,0.107,0,0.252c-0.036,0.144,0,0.288-0.072,0.468c0,0.144,0.036,0.036-0.036,0.216
		c0.036,0.072,0.324,0.324,0,0.18c0,0.288,0.324,0.036-0.036,0.288c0.108,0.072,0,0.108,0.108,0.108
		c-0.036,0.036,0.036,0.071,0,0.071l-0.036-0.035c-0.072,0.396-0.036,0.684-0.18,1.115c0.071,0.036,0.18,0,0.144,0.108
		c-0.18,0.107,0,0.144-0.072,0.324c-0.071,0.035-0.144,0.035-0.144,0.107c0,0.036,0.072,0.036,0.072,0.072
		c-0.036,0-0.072,0.036-0.108,0.036c0.036,0.144-0.036,0.468,0.072,0.54l-0.036,0.035v0.072h-0.108
		c-0.035,0.216,0.072,0.108,0.145,0.288c-0.108-0.036-0.072,0.036-0.145,0.036v0.252c0.036,0,0.072,0.072,0.145,0.072
		c0-0.145,0.107-0.288,0.18-0.433c-0.036,0-0.144-0.071-0.144-0.107c0.071,0,0.107,0,0.107-0.036l0.036,0.036l0.036-0.036H43.961z
		 M53.932,36.291c0.144,0.072,0.108-0.288,0.216-0.216c-0.036-0.072,0-0.108,0-0.108v-0.107c0.036-0.145,0.145-0.252,0.216-0.396
		l0.216-0.432c0.108-0.108,0.108-0.324,0.145-0.504c0.072-0.216,0.396-1.296,0.396-1.548c0-0.108,0.072-0.108,0.072-0.216
		c0.072-0.72,0.432-1.296,0.432-2.088c0.072-0.072,0.036-0.252,0.036-0.36l0.145-0.288c0.035-0.108,0-0.288,0.035-0.396
		c0.072-0.504,0.181-1.08,0.072-1.656c0-0.108-0.036-0.108-0.072-0.216c-0.035-0.18,0-0.468-0.107-0.468
		c0.072-0.216-0.072-0.612-0.072-0.828c-0.18-0.18-0.216-0.36-0.396-0.36c-0.216,0.072-0.396,0.36-0.576,0.36l-0.072,0.252
		c-0.144,0.252-0.252,0.576-0.396,0.828c-0.18,0.252-0.36,0.612-0.468,0.936c-0.072,0.072-0.072,0.18-0.145,0.252
		c0.036,0.216-0.036,0.288,0.036,0.432c-0.144,0.18-0.18,0.468-0.216,0.684l-0.145,0.828c-0.071,0.792,0,1.62-0.035,2.304
		c-0.036,0.144-0.036,0.252-0.036,0.36c0,0.18,0.036,0.323,0.036,0.504c0.035,0.216-0.036,0.504,0,0.756
		c0,0.432-0.145,1.871-0.145,2.268c0.036,0.359,0,0.684,0.108,0.972c-0.108,0.072-0.036,0.216,0,0.288
		c0.071-0.468,0.359-0.576,0.396-1.08C53.752,36.795,53.859,36.651,53.932,36.291z"/>
	<path fill="#ED1C24" d="M59.621,35.355c0.071-0.108,0.18-0.288,0.252-0.324c0,0.072,0.071,0.107,0.071,0.18
		c0.108-0.036,0.072-0.18,0.145-0.216c0.144,0,0.107,0.036,0.144,0.072c0.072-0.072,0.036-0.288,0.216-0.324
		c0.036,0.216,0.685,0.432,0.828,0.216c-0.036,0.216,0.396,0.072,0.468,0.324c0.145-0.18,0.216,0.144,0.36,0.252
		c0.18,0.18,0.396,0.252,0.576,0.468c0,0.108,0.035,0.216,0.035,0.324c-0.107,0.144-0.071,0.396,0,0.611
		c-0.107,0.108-0.216,0.433-0.252,0.612c-0.144,0.108-0.18,0.612-0.396,0.612c0,0.071-0.036,0.144-0.072,0.18
		c-0.252,0.144-0.396,0.324-0.54,0.576c-0.216,0.071-0.899,1.151-1.044,1.296c0,0.107,0.072,0.107,0.072,0.18
		c-0.107,0.072,0.072,0.216,0.108,0.324l0.504,0.647l0.504,0.9c0.216,0.323,0.432,0.468,0.72,0.72l0.828,0.756
		c0.216,0.18,0.504,0.324,0.756,0.432c0.18,0,0.216-0.036,0.288-0.107c0.036,0.035,0.216-0.145,0.252-0.145
		c0.432-0.359,0.036-0.107,0.504-0.396l0.396-0.288c0.504-0.36,0.252-0.108,0.684-0.432c0.072-0.036,0.145-0.108,0.217-0.072
		c0.252-0.18,0.468-0.324,0.792-0.468c0.216-0.252,0.539-0.36,0.791-0.612c0.072-0.108,0.072-0.216,0.145-0.288
		c0.144,0,0.216-0.072,0.252-0.107c0.072-0.072,0.144-0.072,0.252-0.181c0.072-0.144,0.18-0.396,0.432-0.288
		c-0.071,0.217,0.072,0.324,0.036,0.612l-0.107-0.072c-0.253,0.396-0.685,0.721-0.864,0.973L67.72,42.59
		c0,0.036-0.108,0.072-0.145,0.108c-0.144,0.18-0.252,0.432-0.504,0.396c-0.252,0.396-0.575,0.54-0.827,0.828
		c-0.181-0.072-0.145,0.324-0.36,0.288c0,0,0.036,0.036,0,0.108c-0.144,0.035-0.18,0.035-0.18,0.035l-0.108,0.217
		c-0.252,0.036-0.288,0.323-0.432,0.432c-0.108,0-0.072,0.036-0.108,0.072l-0.216,0.144c0.072,0.288,0.288,0.108,0.288,0.396
		c0.216,0.18,0.612,0.611,0.756,0.936c0.108,0.288,0.216,0.72,0.252,1.188c0,0.036,0.072,0.072,0.108,0.108
		c0,0.107-0.036,0.216,0,0.288c0,0.18,0.144,0.359,0.144,0.504c0.036,0.216-0.036,0.468,0.072,0.647
		c-0.072,0.036-0.145,0.396-0.072,0.504l-0.18,0.145c0.107,0.18-0.108,0.216,0,0.323c-0.036,0.108-0.108,0.145-0.181,0.252
		c-0.035,0.145-0.18,0.324-0.18,0.54c0,0.108-0.396,0.288-0.288,0.36c0,0.036-0.036,0.072-0.107,0.072l0.107,0.107
		c-0.144,0.108-0.18,0.504-0.323,0.504c-0.108,0.072-0.217,0.108-0.252,0.252c-0.072,0.108-0.396,0.252-0.504,0.36
		c-0.181,0.144-0.469,0.18-0.648,0.359c0,0-0.036,0.036,0,0.072c-0.288,0.036-0.432,0.18-0.504,0.324
		c-0.036,0.036-0.324,0-0.36-0.036c-0.035,0.18-0.144,0.18-0.323,0.216c-0.145,0.036,0-0.072-0.108-0.072
		c-0.144,0-0.107,0.072-0.144,0.145c-0.181,0.036-0.072,0.324-0.181,0.18c-0.071,0-0.359-0.036-0.396,0
		c-0.18-0.18-0.54,0.324-0.756,0.145c-0.432,0.071-0.72-0.145-1.116-0.145c-0.107,0-0.288-0.396-0.288-0.359
		c-0.071-0.217-0.396-0.181-0.575-0.108c-0.145-0.072-0.36-0.144-0.504-0.252l-0.396-0.396l-0.252-0.504
		c-0.18-0.324-0.288-0.396-0.359-0.828c-0.072-0.36-0.252-0.72-0.108-1.044c-0.072-0.145,0.036-0.18,0-0.324
		c0.072,0-0.036-0.107,0-0.107c0.036-0.181,0.108-0.288,0.252-0.36c0-0.144,0.144-0.18,0.216-0.288
		c0.072-0.18,0.108-0.432,0.36-0.576c0.107-0.396,0.288-0.575,0.611-0.863c0.036-0.145,0.324-0.252,0.324-0.433
		c0.216-0.071,0.144-0.287,0.324-0.287c0.18-0.217,0.432-0.396,0.756-0.396c0.144-0.18,0-0.324,0.252-0.36
		c-0.036-0.071,0.324-0.359,0.324-0.432c0-0.107-0.036-0.359-0.072-0.468c0-0.036-0.072-0.036-0.072-0.072s0.036-0.107,0-0.144
		c-0.072-0.18-0.107,0.072-0.18-0.18c-0.072-0.288-0.504-0.757-0.72-0.9c-0.072-0.324-0.252-0.288-0.36-0.54
		c-0.108-0.036-0.144-0.107-0.252-0.252c-0.108-0.18-0.324-0.359-0.468-0.647c-0.072-0.216-0.252-0.433-0.36-0.612
		c-0.107-0.288-0.252-0.647-0.468-0.899c0.036-0.504-0.647-0.685-0.54-1.225c-0.036-0.107-0.107-0.107-0.144-0.216
		c0.144-0.288-0.108-1.224,0.107-1.512c-0.035-0.144-0.107-0.288-0.035-0.396c0.071,0,0.035,0.107,0.071,0.107
		c0.072-0.036,0.181-0.323,0.036-0.396c0.145,0,0.145-0.18,0.252-0.396c0.108-0.252,0.216-0.396,0.18-0.72
		c0.108,0.072,0.108-0.18,0.217-0.216c-0.108-0.072,0.287-0.36,0.359-0.468c0.108,0,0.072,0.144,0.18,0.107
		c0.072-0.107-0.071-0.18,0-0.323c0.108-0.108,0.036,0.107,0.108,0.036c0.108-0.108,0.504-0.36,0.54-0.433
		c0.107,0,0.072,0.108,0.144,0.145c0.108-0.036,0.036-0.108,0.108-0.108v0.036h0.036C59.585,35.283,59.621,35.319,59.621,35.355z
		 M58.829,50.401h-0.036v0.036c-0.181,0-0.181,0.216-0.145,0.359c0,0.108,0.108,0.288,0.252,0.324c0.036,0-0.036,0.145,0.036,0.108
		c0.072,0.036,0.108,0.036,0.18,0v0.071h0.072c0,0.108,0.145,0.072,0.108,0.181c0.071,0.036,0.071-0.036,0.144-0.036
		c0,0.107,0.072,0.107,0.072,0.216l0.468-0.108c0.36,0,0.972-0.035,1.08-0.396c0.107,0.072,0.072,0,0.144,0
		c0.108-0.108,0.108-0.288,0.181-0.432c0.035-0.036,0.107-0.036,0.144-0.108v-0.144c0.072-0.181,0.324-0.36,0.36-0.504
		c0.036-0.072-0.036-0.108-0.036-0.145c0,0,0.036-0.036,0.036-0.072c0.071-0.216,0.071-0.504,0.036-0.72
		c0-0.036-0.072-0.072-0.072-0.144c0,0,0.036-0.036,0.036-0.108c-0.036-0.144-0.288-0.647-0.324-0.828
		c-0.036-0.216-0.108-0.504-0.252-0.611c0,0.072-0.036,0-0.072,0c-0.072,0.072-0.18,0.18-0.252,0.216
		c-0.144,0.108-0.432,0.252-0.611,0.36c-0.396,0.216-0.685,0.756-0.864,1.151c-0.108,0.036-0.072,0.108-0.145,0.145
		c0.036,0.18-0.107,0.323-0.071,0.396c0,0.036-0.072,0.072-0.181,0.036c0,0.072-0.107,0.18,0,0.288
		c-0.107,0.036-0.18,0.107-0.323,0.18c-0.036,0.108,0.107,0,0.144,0.072c-0.18,0.071-0.144,0.071-0.252,0.071
		c-0.036,0.108,0.108,0.036,0.145,0.072v0.036h0.035C58.864,50.401,58.864,50.401,58.829,50.401z M61.96,36.615
		c-0.396-0.072-0.756,0.396-0.827,0.323c-0.145,0.145-0.145,0.396-0.324,0.469c0.072,0.107,0.036,0.107-0.036,0.216
		c0.036,0,0.144,0,0.072,0.072c-0.036-0.036-0.252,0.287-0.324,0.252c0.036,0.432-0.36,0.72-0.072,0.936
		c0.108-0.036,0.433-0.252,0.433-0.432c0.107,0,0.144-0.072,0.18-0.217l0.036,0.036l0.036-0.036
		c0.144-0.107,0.323-0.323,0.468-0.539l0.396-0.648L61.96,36.615z"/>
</g>
</svg>
