<?xml version="1.0" encoding="utf-8"?>
<!-- Generator: Adobe Illustrator 16.0.0, SVG Export Plug-In . SVG Version: 6.00 Build 0)  -->
<!DOCTYPE svg PUBLIC "-//W3C//DTD SVG 1.1//EN" "http://www.w3.org/Graphics/SVG/1.1/DTD/svg11.dtd">
<svg version="1.1" id="Layer_1" xmlns="http://www.w3.org/2000/svg" xmlns:xlink="http://www.w3.org/1999/xlink" x="0px" y="0px"
	 width="144px" height="72px" viewBox="0 0 144 72" enable-background="new 0 0 144 72" xml:space="preserve">
<g opacity="0.8" enable-background="new    ">
	<path fill="#A425EF" d="M41.307,37.778c0.349,0,0.07-0.069,0.21-0.349l0.139-0.14c0-0.278-0.069-0.558,0-0.837l0.279-1.604
		c0-0.14,0-0.907,0.209-1.326c0.21,0.14,0.21,0.14,0.559,0.07c0,0,0.069,0.07,0.209,0c0.349-0.07,0.349-0.627,0.558-0.907
		c0.488,0.279,0.907,0.558,1.465,0.488c0.14-0.07,0.07,0.14,0.14,0.279c0.279,0.209,0.837,0.139,1.186,0.418
		c1.256,0.837,0.768,3.766,0.768,5.51c0.349-0.07,0.418,0.349,0.558,0.14c0.349,0.418,0.279,0.209,0.698,0.139
		c0.488-0.139,1.046-0.209,1.674-0.418l0.209-0.279c0.418-0.209,1.046-0.14,1.465-0.837c1.046,0.07,1.604-1.395,2.511-1.395
		c0.628,0.349,1.883,0.768,1.186,1.812c-0.488,0.698-1.395,1.326-1.953,1.604c0.14,0.349-0.278,0.559-0.418,0.768
		c-0.697-0.488-1.396,0.209-1.953,0.558c-0.14-0.069-0.349-0.069-0.628-0.139c-0.278,0.349-1.046,0.139-1.465,0.558
		c-0.139-0.209-0.139-0.07-0.418-0.209c-0.209,0.209-0.488,0.349-0.697,0.418c-0.698-0.279-0.559,0.07-1.187-0.14
		c-0.558-0.209-0.069-0.14-0.488,0.14c-0.627,1.256-1.046,2.65-1.395,4.185c-0.14,0.07-0.14,0.35-0.349,0.419
		c0.069,0.349-0.069,0.349-0.069,0.768c-0.488,0.418-0.488,1.325-1.116,1.743c0,0.209-0.14,0.279-0.14,0.559
		c-0.349,0.069-0.488,0.349-0.697,0.558c-0.14,0.977-0.837,1.465-1.604,1.953c-0.558-0.14-0.906,0.14-1.256,0.278
		c-0.209,0-0.349-0.139-0.488-0.139c-0.209,0-0.488,0.278-0.767,0.278c-0.14,0.07-0.279,0-0.488,0
		c-0.14,0.07-0.279,0.279-0.349,0.279c-0.07,0-0.14-0.209-0.21-0.209c-0.069,0-0.139,0.209-0.278,0.278
		c-0.14,0-0.488-0.069-0.559-0.069c-0.418,0-0.488,0.14-0.837,0.279c0-0.21-0.488-0.14-0.488-0.21c-0.139,0.07,0-0.139,0.14-0.139
		c-0.209-0.21-0.837,0-0.767-0.279c-2.441-0.349-2.791-2.859-3.976-4.534c-0.558,0-0.349,0.698-0.837,0.768
		c0,0.209-0.14,0.349-0.07,0.628c-0.349,0.349-0.279,0.837-0.488,1.255c-0.418,0.907-1.325,1.396-1.604,2.512
		c-0.558,0.627-1.325,0.977-1.883,1.604c-1.186,0.279-2.302,0-3.069,0.279l-0.767,0.349c-0.07,0.07-0.07,0.279-0.14,0.279
		c-0.07,0.069-0.14-0.14-0.279,0c-0.279,0-0.768,0.209-0.977,0.349c-0.767,0.069-1.535,0-1.953-0.349c-0.14,0.14-0.14,0-0.349,0.069
		c-0.349-0.069-0.349-0.349-0.558-0.558c-0.558-0.14-1.255,0-1.325-0.628c-0.488,0.14-0.488-0.279-0.767-0.279
		c-0.349-0.837-0.977-1.604-1.325-2.58c-0.349-0.768-0.418-1.953-0.628-2.999c-0.209-1.116-0.279-2.441-0.279-3.767
		c0-0.837-0.279-1.884,0.14-2.65c-0.07-1.396,0.209-3.139,0.558-4.743c0.14-0.349,0-1.115,0.209-1.464c0-0.07,0.14-0.279,0.14-0.349
		c0.139-0.139,0-0.418,0-0.697c0.209-0.698,0.558-1.465,0.627-2.023v-0.488l0.349-0.768c0.14-0.488,0.07-1.255,0.209-1.883
		c0.14-0.139,0.279-0.139,0.279-0.209c0.14-0.349,0-0.698,0.14-1.046c0.349-0.07,0.628-0.279,0.697-0.627
		c0.209-0.07,0.279-0.07,0.349-0.07c0.209-0.14,0.279-0.488,0.349-0.488c0.139-0.07,0.139,0.07,0.139,0.07
		c0.07,0.139,0.07-0.07,0.07-0.07l0.07,0.07c0,0,0.209-0.14,0.279-0.14c0.627-0.279,0.976,0.279,1.534,0.07
		c0.279,0.209,0.837,0.488,1.116,0.488c0.069,0.209,0.279,0.627,0.627,0.627c0.558,0.768,1.116,1.674,1.674,2.581
		c-0.069,0.837,0.419,2.022,0.07,2.999c0,0.07,0.07,0.279,0.14,0.279c0,0.209-0.209,0.07-0.209,0.279
		c0.07,1.534-0.139,3.277,0.488,4.533c-0.069,0.837-0.139,1.813,0.209,2.511c-0.349,0.419-0.488,1.325,0.279,1.396
		c-0.209,0.418,0,1.395,0,1.813c0,0.209,0.14,0.209,0.209,0.279c-0.07,1.115,0.349,2.371,0.837,3.277c0,0.488-0.07,0.837,0.07,1.465
		c0.558,0.07,0.279-0.628,0.558-0.906v-0.07h0.139c0.349-0.418,0.349-0.906,0.767-1.115c0.279-1.047,0.488-1.884,0.907-2.86
		c0.209-0.418,0.488-0.767,0.628-1.115c0.209-0.559,0.14-1.256,0.488-1.604c0-0.977,0.628-1.813,0.767-2.859
		c0.14-0.837,0-1.744,0.209-2.581c0.139-1.395,0.558-2.72,0.767-4.115c0.07,0,0.07-0.209,0.14-0.209c0-0.14,0-0.279-0.07-0.279
		c0.14-0.07,0.07-0.349,0.279-0.349c0.14-1.255,0.558-2.162,0.418-3.278c0.209,0.07,0.209-0.07,0.349-0.209
		c0.418-1.046,0.488-2.023,1.046-2.86c0.14,0,0.349-0.07,0.488-0.07c0,0.209,0.279,0.209,0.209,0.418
		c0.488,0,0.628,0.488,0.977,0.279c0.488,0.139,0.628,0.697,0.907,1.116c0.209,0.209,0.558,0.349,0.767,0.628
		c0.559,0.837,0.419,2.929,0.349,4.464v2.092c0,0.349,0.21,0.628,0.279,0.977c0.419,1.395,0,3.069,0.209,4.394l0.21,1.674
		l0.627,2.022c0.279,1.116,0.838,2.302,1.047,3.418c0.278,0.279,0.349,0.488,0.349,0.837h0.558c0,0.279-0.14,0.279,0,0.697
		l-0.14,0.07l0.14,0.209h-0.14c-0.069,0.279,0.559,0.558,0.559,0.558c0.418-0.139,0-0.976,0.279-1.325
		c0.627-0.209,0.767-1.046,0.976-1.464c-0.209-0.07-0.209-0.07,0-0.35v0.07c0.35-0.628,0.488-1.046,0.837-1.884
		c-0.069-0.278-0.278,0.14-0.349-0.069c0-0.349,0.279-0.069,0.349-0.069c0.279-0.349,0.21-0.628,0.488-0.837
		c0.07-0.14-0.139-0.07-0.209-0.14c0.07-0.279,0.279-0.349,0.419-0.559c-0.14-0.349,0.14-0.558,0.14-0.627
		c0.069-0.279,0-0.21,0.069-0.279c0.14,0,0.279-0.488,0.349-0.697c0-0.419,0.14-0.977,0-1.396c-0.418,0-0.14,0.488-0.558,0.488
		c-0.21-0.279,0.14-0.628,0-0.906c-0.07-0.21-0.419-0.628-0.488-0.977c-0.14,0,0,0.139-0.21,0.139v0.07h-0.069
		C41.377,38.406,41.586,38.057,41.307,37.778z M42.702,33.523c-0.07,0-0.209-0.069-0.14-0.069
		C42.771,33.384,42.702,33.454,42.702,33.523z"/>
	<path fill="#A425EF" d="M67.815,52.146l-0.14,0.697c-1.325,0.558-2.58,2.371-4.533,1.534c-0.279,0-0.279,0.488-0.419,0.698
		c-0.278,0.069-0.278-0.279-0.558-0.35c-0.558,0.14-1.186,0.488-1.883,0.419c-0.488-0.069-0.977-0.488-1.465-0.768
		c-0.349-0.069-0.279,0.21-0.559,0c-0.488-0.209-1.534-0.349-2.022-0.837c-0.418-0.278-0.697-0.837-0.906-1.115
		c-0.21,0-0.349-0.07-0.488-0.21c0-0.069,0.069-0.069,0.14-0.14c-0.14-0.139-0.279-0.418-0.628-0.487
		c-0.349-0.768-0.488-1.675-0.837-2.232c-0.07-0.697-0.14-1.256-0.488-1.674c-0.07-1.116-0.419-2.371-0.349-3.627
		c0-1.256,0-2.302,0.209-3.278l0.14-0.906c0-0.21,0.069-0.279,0.14-0.559c0.278-0.488,0.209-1.115,0.627-1.465V37.43
		c0-0.14,0.14-0.209,0.21-0.349c0-0.907,0.558-1.813,0.906-2.651c0.349-0.558,0.488-1.116,0.977-1.395c-0.069-0.279,0-0.279,0-0.488
		c0.349-0.209,0.419-0.698,0.628-0.977l0.697-0.907c0.349-0.767,0.768-1.325,1.256-1.883c-0.07-0.627,0.349-0.627,0.418-1.046
		c0.209,0,0.209,0.14,0.279,0.14c0.279-1.046,1.116-1.116,1.604-2.092c0.488,0.07,0.767,0.349,1.115,0.349
		c0.279,0.07,0.419,0.488,0.698,0.628c0.418,0.418,1.255,0.209,1.674,0.837c0.209-0.14,0.278-0.418,0.349-0.628
		c0.558,0.14,0.977,0.628,1.674,0.279c0,0.627,0.628,0.488,0.628,1.116c0.209,0,0.349,0.07,0.488,0.07
		c0.418,0.837,1.186,1.395,1.115,2.79c-0.349,0.349-0.349,0.907-0.488,1.325c0.698-0.628,2.372-1.325,2.512,0.279
		c0.697-0.07,0.906,0.349,1.325,0.07c0.278,0.488,0.767,0.837,1.255,0.977c0.07,0.837,0.768,1.534,0.837,2.441
		c0.07,0.907-0.209,1.953,0.349,2.581c-0.209,0.558-0.349,1.186,0,1.465c0.628-0.698,0.559-0.21,1.116-1.047
		c0.837,0.14,1.046-0.837,1.813-0.906c0.279-0.279,1.046-1.047,1.396-1.186c0.139-0.209,0.488-0.279,0.627-0.209
		c0.559-0.279,1.116-0.559,1.465-0.977c0.488,0.07,0.837-0.279,1.465,0c0.069,0,0.14,0.07,0.14,0.14
		c-0.14,0.418-0.628,0.837-0.977,1.394c-0.558,0.279-0.906,0.768-1.395,1.047c-0.837,0.628-1.396,0.977-2.162,2.162
		c-0.21,0.279-0.768,0.559-0.977,0.837c-0.977,0.07-0.907,0.14-1.396,0.697c-0.418,0-0.697,0.419-1.046,0.559
		c-0.279,0.349-0.628,0.278-0.697,0.418c-0.279,0.419,0,0.907-0.21,1.396c-0.069,0.349-0.349,0.558-0.488,0.837
		c-0.209,0.628-0.139,1.186-0.418,1.325c0.14,1.116-0.697,1.116-0.768,2.022c-0.906,0.488-1.395,1.465-2.371,1.883
		c-0.209,0.14-0.419,0.488-0.768,0.559l-0.349,0.767C68.095,51.938,68.095,52.146,67.815,52.146z M62.515,44.823
		c0.07,0.488-0.069,0.906,0.209,1.325c-0.139,0.139-0.139,0.488-0.278,0.627c0.069,0.21,0.418,0.21,0.418,0.419
		c-0.488,0.349-0.069,1.046-0.278,1.116c0.349,0.209,0.349,0.697,0.418,1.325c0.209,0.14,0.488-0.279,0.488,0.14
		c0.14,0.278-0.069,0.278,0,0.488c0.14,0,1.046,0.209,0.977,0.558c0.418-0.07,1.325,0.069,1.534-0.419
		c0.14,0.21,0.14,0.349,0.349,0.279c0.14-0.349,0.07-0.418,0.21-0.768c0.209,0.488,0.767,0.279,1.046,0c0-0.069-0.279-0.209,0-0.349
		c0.14,0,0.069,0.279,0.279,0.279c0-0.279,0.349-0.419,0.627-0.558l0.14-0.628c0.349-0.488,1.325-0.977,0.837-1.813h0.349
		c0.21-1.116,0.907-1.953,0.977-3.487c-0.14,0.209-0.069-0.21-0.278-0.14c-0.419,0.418-0.977-0.419-1.535-0.07
		c-0.069-0.418-0.837-0.837-1.325-0.558c0.07-0.279-0.906-0.977-0.767-1.116c-1.047-0.488-0.488-0.837-1.256-1.534
		c0-0.209-0.906-1.534-0.837-1.743c-0.419,0.278-0.768,2.511-1.325,2.58v0.419c-0.558,0.349-0.349,1.395-0.697,1.883
		c0.14,0.488-0.07,0.768-0.209,1.395v0.07l0.139,0.14C62.724,44.753,62.585,44.823,62.515,44.823z M70.257,36.802
		c-0.14-0.14-0.349,0-0.628,0c-0.279,0.977-0.837,3.139,0.349,3.836c0-0.069,0-0.209,0.07-0.278
		c0.069,0.069,0.069,0.278,0.209,0.488c0.279-0.279,0.209,0.418,0.558,0.418c0-1.046,0.14-2.441-0.14-3.348
		C70.257,37.918,70.117,37.43,70.257,36.802z"/>
	<path fill="#A425EF" d="M103.6,37.987c-0.21-0.14,0.139-0.14,0.209-0.14c0.349-0.209,0.558-0.558,1.116-0.488
		c0.069,0.209,0.069,0.488,0.069,0.697c0,0.35,0.069,0.629-0.14,0.978c-0.069,0.069-0.209,0.139-0.209,0.209
		c-0.14,0.349-0.07,0.697-0.14,0.977c-0.209,0-0.14,0.209-0.349,0.14c0,0.488-0.279,0.558-0.488,0.906
		c-0.069,0.14,0.069,0.209,0.069,0.349c-0.278-0.069-0.278,0.209-0.418,0.279l-0.07,0.418c-0.418,0.279-0.487,1.116-0.906,1.396
		c0,0.069,0.069,0.14,0.069,0.279c-0.488,0.278-0.558,1.186-0.906,1.464c-0.069,0.14,0.069,0.21,0,0.279
		c-0.419,0.209-0.488,0.768-0.768,1.116c0,0.14,0.14,0.209,0.07,0.418c-0.14,0.419-0.21,0.419-0.419,0.698
		c0,0.627-0.14,0.069-0.14,0.697c-0.209,0.069-0.349,0.14-0.349,0.488c-0.488,0.349-0.418,1.255-0.906,1.604v0.35
		c-0.21,0.139-0.279,0.418-0.559,0.418c-0.139,0.837-0.697,1.116-0.977,1.744c-0.139-0.07-0.209,0-0.278,0
		c-0.14,0.278-0.628,0.697-1.116,0.837c-0.14,0.418-0.488,0.627-0.906,0.767c-0.07,0-0.07,0.14-0.07,0.21
		c-0.209-0.07-0.349,0.209-0.488,0.278c-0.628,0.14-0.488,0.559-1.046,0.628h-0.697c-0.07,0-0.07-0.069-0.14-0.069
		c-0.279,0.14-0.559,0.209-1.047,0.349c-0.627-0.209-1.674-0.349-2.301-0.488l-0.07-0.419c-0.209,0-0.488-0.069-0.768-0.209
		c-0.069-0.069-0.139-0.279-0.278-0.349c-0.209-0.14-0.488-0.209-0.697-0.419c-0.35-0.349-0.419-0.906-0.768-1.255
		c0.069-0.419-0.279-0.837-0.349-1.325c0-0.349,0.069-0.837,0-1.325c0-0.349-0.07-0.628-0.07-0.977c0-0.279,0.07-0.559,0.07-0.837
		c0-0.07-0.07-0.209,0-0.279c0-0.209,0.14-0.488,0.14-0.697c0-0.07-0.07-0.209-0.07-0.279l0.279-0.767
		c0.14-0.419,0.069-0.768,0.349-1.047c0.069-0.14-0.069-0.14,0-0.278c0.209-0.07,0.069-0.559,0.349-0.559
		c-0.069-0.279,0.07-0.279,0-0.488c0.209-0.209,0.349-0.418,0.349-0.767c0.907-0.977,0.559-1.325,1.535-2.232
		c0.139-0.209,0.139-0.558,0.349-0.558c0-0.279-0.559-0.349-0.419-0.488c-0.279,0-0.837,0.418-1.186,0.418l-1.186-0.209
		l-1.535,0.069c-0.278-0.139-0.767,0.07-1.115,0h-0.837l-1.396-0.418c-0.977,0.279-0.349-0.279-1.883-0.768
		c0.279-0.209-0.697-0.558-0.488-0.906c-0.488-0.559-0.349-1.325-0.488-1.674l0.14-0.279c-0.14-0.488-0.419-0.977-0.279-1.674
		l0.349-1.813c0.07-0.488,0.907-1.046,0.907-1.744c0.14,0,0.14-0.209,0.278-0.279c-0.069-0.209,0.07-0.279,0.07-0.488
		c0.209-0.418,0.418-0.697,0.628-1.046c0.069-0.209,0.069-0.418,0.209-0.628c0.209-0.349,0.768-0.558,0.768-1.046
		c0.209-0.139,0.418-0.279,0.418-0.627c0.14,0,0.349,0,0.419,0.07c0.069-0.209,0.069-0.418,0.209-0.558
		c0.279,0.07,0.279,0.418,0.418,0.558c0.21,0.07,0.21-0.14,0.349-0.14c0.35,0.14,0.698,0.628,1.187,0.697
		c0.349,0.07,0.558,0.209,0.837,0c0.209-0.069,0.069,0.279,0.209,0.349s0.209,0.07,0.418,0c0,0.488,0.419,0.558,0.768,0.697
		l0.349,1.395c0,0.488,0.14,0.907-0.209,1.116c-0.069,0.349,0.069,0.488-0.14,0.627c0,0.349-0.697,1.883-0.768,2.162
		c-0.069,0.279,0.14,0.279,0.14,0.488c-0.418,0.837-0.14,1.325-0.278,2.301c0.349,0.279,0.627,0.488,0.767,0.907
		c0.21,0,0.349-0.069,0.419-0.14c0.279,0.279,0.628,0.209,0.906,0.559c0.349-0.279,0.698-0.07,0.977-0.35
		c0.559,0.209,0.697-0.209,1.325-0.069c0.279-0.21,1.116,0.069,1.186-0.278c0.21-0.07,0.628,0.209,0.559-0.141
		c0.14,0,0.069,0.209,0.209,0.209c0.14-0.068,0.14-0.209,0.279,0c0-0.068,0.069-0.139,0.069-0.209c0.488,0,0.419-0.209,0.977,0.07
		c0.069,0.558,1.046-0.07,0.837,0.279c0,0.278,0.14,0.418,0.419,0.488c0.697,0.348,0.349,1.464,0.209,2.44
		c-0.419,0.419,0.14,0.07,0.069,0.698c-0.069,0.278-0.349,0.278-0.14,0.558c-0.349,0.209-0.418,0.697-0.697,0.906
		c0.21,0.419-0.209,0.628,0,0.907c-0.069,0.14-0.14,0.488,0,0.697c-0.278,0.069-0.278,0.558-0.418,0.907
		c0.069,0.069,0.209,0.069,0.209,0.139c0,0.21-0.279,0.14-0.279,0.279c0.07,0.349-0.209,0.419-0.209,0.697
		c0.209,0.768-0.069,1.604,0.069,2.302c-0.069,0.349-0.349,0.697-0.069,0.977c-0.14,0.488,0,1.116,0,1.604
		c0,0.069,0.069,0.069,0.14,0.069l-0.209,0.279c0.209,0.628,0.349,1.186,0.697,0.14c0.14,0,0.069,0.209,0.209,0.209
		c0.279-0.069,0.768-0.209,0.837-0.488c0.488-0.279,0.349-0.279,0.628-0.768c0.069-0.069,0.279-0.069,0.419-0.139v-0.419
		c0.209,0,0.139-0.279,0.349-0.279c0-0.209,0.069-0.278,0.069-0.488c0.279-0.349,0.488-0.767,0.558-1.395
		c0.419-0.558,0.768-1.186,1.187-1.883c0-0.21-0.07-0.21-0.07-0.35c0.07,0,0.14,0,0.14-0.069c0.279-0.906,0.558-1.256,1.116-2.093
		l0.069-0.418c0.628-0.907,1.047-2.022,1.813-2.79c0-0.069-0.069-0.14-0.069-0.14c0-0.418,0.837-0.697,0.628-1.186
		C103.041,38.964,103.738,38.127,103.6,37.987z"/>
	<path fill="#A425EF" d="M123.131,56.122c-0.488,0.279-1.256,0.628-1.396,0.768c-0.418,0-0.837,0-0.977,0.278
		c-2.231,0-3.905-0.767-4.673-2.441c0.14-0.278-0.209-0.418-0.279-0.627c0-0.14,0.07-0.14,0.07-0.21l-0.559-2.231
		c-0.209-1.046-0.558-2.581-0.487-3.418c0.069-0.278,0.278-0.697,0.069-1.115c0-0.14-0.209-0.07-0.279-0.14
		c0-0.14,0.07-0.14,0.07-0.349c-0.349-0.279-0.419-1.047-0.628-0.768c0.14,0.418-0.907,0.977-0.628,1.116
		c-0.488,0.837,0.488,0.697-0.418,1.046c0.069,0.697-0.768,0.628-0.628,1.256c-0.559,0.349-0.279,0.488-0.21,1.186
		c-0.069,0.069-0.069,0.349-0.139,0.418c0.209,0.419,0,0.698,0,1.047c0,0.209,0.069,0.349,0,0.349c0,0.14-0.279,0.349,0,0.558
		c-0.349,0.07-0.488,0.558-0.279,0.837c-0.209,0.488-0.209,1.256,0.069,1.813c-0.139,0.419,0.14,0.488,0.07,0.907
		c-0.07,0-0.07,0.139-0.07,0.209c-0.349,0-0.558,0.279-0.697,0.488c-0.14,0-0.209-0.07-0.279-0.14
		c-0.069,0.14-0.487,0.14-0.558,0.419c-0.14,0-0.14-0.279-0.279-0.279c-0.488,0.279-0.906,0.418-1.115,0.837
		c-0.837,0-1.465,0-2.232-0.07c-0.209-0.069-0.209-0.139-0.279-0.139c-0.139-0.14-0.487,0-0.627-0.14
		c-1.116-0.279-1.535-1.186-1.884-2.302c-0.418-0.977-0.14-2.371-0.977-3.418c0-0.488-0.139-0.767-0.418-1.116
		c0.069-0.627-0.419-1.464-0.559-2.231c0-0.209,0-0.279-0.069-0.349c0.069-0.419,0-0.559-0.14-0.907c0.07-0.209,0-0.767-0.209-1.046
		c0.279-0.419-0.209-1.046,0-1.534c0.14-0.21-0.069-0.21-0.069-0.419c0.418-1.395,0.349-3.348,0.487-4.882
		c0.14-0.907,0.279-1.744,0.35-2.512c0.069-0.976,0.278-1.883,0.488-2.72c0.069-0.907,0-1.813,0.139-2.511
		c0-0.209,0-0.209,0.14-0.209c0.07-1.046,0.07-1.604,0.279-2.511c0-0.07,0-0.14-0.14-0.14c0.488-0.837,0.488-1.813,0.558-2.79
		c0.07-0.697,0.14-1.325,0.35-1.953c-0.07-0.768,0.209-1.674,0.349-2.302h-0.14c0.349-1.046,0.697-2.441,1.116-3.697
		c0.139-0.07,0.139-0.139,0.209-0.139c-0.07-0.279,0.209-0.419,0-0.419c0.279-0.209,0.209-0.627,0.349-0.907
		c0.209-0.349,0.488-0.697,0.697-1.186v-0.349c0.07-0.209,0.279-0.349,0.14-0.628c0.279-0.209,0.488-0.767,0.837-1.046
		c0-0.14,0.209-0.209-0.069-0.209c0.069-0.209,0.209,0,0.278,0c0.07-0.279,0.07-0.558,0.21-0.837c0,0,0.278-0.07,0.349-0.14
		l0.069-0.279c0.419-0.209,0.697-0.767,1.186-0.837c0.07-0.14-0.069-0.418,0-0.488c0.07,0,0.07,0,0.07,0.07
		c0.418-0.488,0.906-0.488,1.465-0.768c0.349,0.07,0.767-0.139,1.255-0.139c0.768,0,1.604,0.349,2.093,0.209
		c0,0.349,0.558,0,0.558,0.349c0.14-0.07,0.279-0.14,0.349-0.14c0.21,0.209,0.21,0.488,0.419,0.558
		c-0.07,0.069,0.349,0.209,0.279,0.418c0.069,0.209,0.487,0.279,0.627,0.488c-0.069,0.767,0.488,1.116,0.14,1.674
		c0.279,0.14,0.279,0.349,0.279,0.488l0.628,0.697c-0.07,0.07,0,0.418-0.07,0.349c0.07,0.14,0.07,0,0.14,0.14
		c0,0.418,0.07,0.767,0.07,1.046c0.487,0.279,0.209,0.767,0.558,1.116c-0.14,0.14,0,0.349-0.14,0.628h0.209
		c-0.278,0.349-0.14,0.697,0,1.186c-0.069-0.07-0.069-0.07-0.14-0.07c0.14,0.488-0.069,0.698,0,1.325
		c-0.069,0-0.069-0.07-0.139-0.07c0,0.837-0.14,1.256-0.349,1.604c0.139,0.14,0.349,0.907-0.07,0.837c0.419,0.418,0,0.837,0,1.325
		c-0.349,0-0.349-0.209-0.488,0c0.07,0.279,0.488-0.14,0.488,0.279c-0.069,0,0,0.07,0,0.07c-0.069,0.07-0.069,0-0.349,0
		c0,0.209,0.069,0.279,0.069,0.418c-0.209,0.07-0.558,0.279-0.558,0c-0.14,0.07-0.069,0.279,0,0.349v0.139
		c0.14,0.418-0.14,0.837,0,1.046l-0.209,0.349c0.069,0.07,0.14,0.14,0.209,0.14l-0.279,0.418c-0.069,0.418-0.069,0.767-0.278,1.186
		c0,0.07-0.21,0.349-0.349,0.558c0,0.209-0.21,0.418-0.279,0.558c-0.07,0.279,0,0.697-0.14,0.907c0,0.139-0.279,0.558-0.419,0.907
		c0,0.07-0.209,0.209-0.418,0.349c0.349,0.07-0.069,0.279-0.069,0.349c-0.07,0.07,0.069,0.07,0.069,0.209
		c0,0.209-0.279,0.349,0,0.488c-0.069,0.139-0.279,0.139-0.349,0.209v0.07l-0.07-0.07v0.07c-0.139,0.07-0.209,0-0.209,0
		c-0.209,0.07,0.279,0.209,0,0.349c-0.697-0.279-0.488,0.698-0.558,1.046h-0.21c-0.069-0.07-0.278-0.07-0.278-0.14
		c-0.14,0.349,0,0.907-0.349,1.325h-0.279c-0.14,0.907-0.14,1.395-0.558,1.953c0.278,0.139,0.349,0.697,0.069,1.046
		c0.209,0.419,0.558,0.837,0.279,1.116c-0.14,0-0.14-0.069-0.14-0.14c-0.349,0.209-0.279,0.837-0.558,1.046
		c0,0.21,0.069,1.396,0.209,1.465c-0.14,0.279,0,1.674,0.14,1.953c0.278-0.069,0.209-0.558,0.349-0.837
		c-0.07-0.14-0.21,0-0.14-0.418c0.279,0,0.14-0.07,0.209-0.07c0.14-0.069,0.07-0.488,0.07-0.628c0.627-0.977,0.837-2.44,1.534-3.208
		v-0.279c0.279-0.14,0.418-0.628,0.697-0.976c-0.069-0.279-0.14-0.279,0.07-0.559h0.069v-0.07c0.558,0,0.349-0.488,0.697-0.558
		c0-0.07-0.14-0.139-0.14-0.279h0.14l0.07-0.07c0,0.07,0.069,0.07,0.139,0.07c-0.069-0.14,0.559-0.418,0.07-0.558
		c0.209-0.209,0.418-0.14,0.558-0.07h0.07c0.209-0.139,0.278-0.488,0.349-0.488c0.209-0.209,0.488-0.209,0.767-0.279
		c0.488-0.14,0.837-0.558,1.325-0.697c0.907-0.14,1.744,0.418,2.79,0.697c0.21,0.349,0.559,0.767,0.907,1.116
		c0.349,1.186-0.279,2.092-0.279,3.278c-1.116-0.21-1.604,0.837-2.231,1.604c-0.837,0.14-0.907,0.907-1.465,1.256
		c0,0.279,0.069,0.697-0.21,0.697c-0.139-0.14,0-0.279-0.069-0.488c-0.418,0.07-0.768,0.419-0.488,0.697
		c-0.14,0.07-0.279-0.139-0.418,0c0,0.419,0.488,0.349,0.488,0.768c0.627,0.419,1.115,1.046,1.743,1.465c0,0,0.069,0,0.069-0.07
		c-0.069,0.419,0.279,0.698,0.419,1.047c0.069,0.767,0.419,1.255,0.977,1.604c0,0.14-0.209,0.14-0.209,0.21
		c0,0.278,0.209,0.278,0.278,0.418c-0.349,0.977,0.488,1.535,0.21,2.441c-0.14,0.069-0.21,0.069-0.279,0.209
		c0.069,0.279,0.279,0.279,0.488,0.419c-0.209,0.488-0.07,0.279,0,0.767c0.14,0.14,0.14,0,0.418,0c0,0.279,0.349-0.209,0.419,0
		l0.837-1.325c0.069-0.069,0.279-0.069,0.419-0.139v-0.419c0.209,0,0.139-0.279,0.349-0.279c0-0.209,0.069-0.278,0.069-0.488
		c0.279-0.349,0.488-0.767,0.558-1.395c0.419-0.558,0.768-1.186,1.187-1.883c0-0.21-0.07-0.21-0.07-0.35c0.07,0,0.14,0,0.14-0.069
		c0.279-0.906,0.558-1.256,1.116-2.093l0.069-0.418c0.628-0.907,1.047-2.022,1.813-2.79c0-0.069-0.069-0.14-0.069-0.14
		c0-0.418,0.837-0.697,0.628-1.186c0.278-0.14,0.976-0.977,0.837-1.116c-0.21-0.14,0.139-0.14,0.209-0.14
		c0.349-0.209,0.558-0.558,1.116-0.488c0.069,0.209,0.069,0.488,0.069,0.697c0,0.35,0.069,0.629-0.14,0.978
		c-0.069,0.069-0.209,0.139-0.209,0.209c-0.14,0.349-0.07,0.697-0.14,0.977c-0.209,0-0.14,0.209-0.349,0.14
		c0,0.488-0.279,0.558-0.488,0.906c-0.069,0.14,0.069,0.209,0.069,0.349c-0.278-0.069-0.278,0.209-0.418,0.279l-0.07,0.418
		c-0.418,0.279-0.487,1.116-0.906,1.396c0,0.069,0.069,0.14,0.069,0.279c-0.488,0.278-0.558,1.186-0.906,1.464
		c-0.069,0.14,0.069,0.21,0,0.279c-0.419,0.209-0.488,0.768-0.768,1.116c0,0.14,0.14,0.209,0.07,0.418
		c-0.14,0.419-0.21,0.419-0.419,0.698c0,0.627-0.14,0.069-0.14,0.697c-0.209,0.069-0.349,0.14-0.349,0.488
		c-0.488,0.349-0.418,1.255-0.906,1.604v0.35c-0.21,0.139-0.349,0.837-0.628,0.837c-0.14,0.837-0.209,1.186-0.488,1.813
		c-0.14-0.07-0.628,1.255-0.697,1.255l-0.837,1.047V56.122z M114.133,16.226c-0.628,0.209-0.209,0.279-0.488,0.628
		c0,0.209,0.07,0.279,0.14,0.488c-0.069,0.07-0.209,0.139-0.279,0.418c0.14,0,0.21,0.07,0.21,0.209
		c-0.07,0.14-0.279,0.07-0.349,0.279c0.069,0.07,0.069,0.279,0.139,0.349c-0.487,0.209,0.14,0.977-0.278,1.255
		c0.14,0.14,0.209,0.209,0.209,0.488c-0.279,0.209-0.418,0.977-0.488,1.325c0.07-0.209,0.07,0.209,0,0.209
		c0,0.069-0.069,0.069-0.069,0.069c0,0.07,0.069,0.07,0.069,0.14h-0.14c0,0.07,0.07,0.14,0.07,0.349c0,0.14-0.21,0.279-0.21,0.488
		c0,0.07,0.14,0.209,0.14,0.279c0,0.069-0.209,0.279-0.209,0.349c0,0.349-0.069,0.767-0.069,1.255
		c0.069,0.349,0.278,0.697,0.139,0.907c-0.069,0.279-0.069,0.07,0,0.418c0.14,0.349-0.139,0.907-0.069,1.325c0,0,0.069,0,0.069,0.07
		c-0.209,0.558,0.279,0.977,0,1.255c0.14,0,0.279,0,0.279,0.14l-0.14,0.279c-0.14,0.14,0.14,0.07,0.14,0.209
		c-0.279,0.279-0.279,0.697-0.279,0.977c0,0.418-0.069,0.837,0.21,1.186c0.14-0.14,0.278-0.418,0.14-0.698
		c0.418-0.697,0.906-2.022,0.906-2.859c0.419-0.209,0.209-0.767,0.209-1.046c0-0.139,0.14-0.209,0.14-0.279l-0.069-0.14h0.14
		c0-0.209-0.07-0.349-0.07-0.488c0,0,0.209-0.209,0.209-0.279l0.14-1.116c0.279,0.279,0-0.488,0.279-0.418
		c-0.069-0.209-0.069-0.139-0.069-0.488c0.069,0.14,0.209,0.14,0.209-0.069c0.069-0.558,0.558-1.535,0.278-2.023
		c0.279,0,0.14-0.488,0.279-0.628c0-0.069,0.14-0.069,0.14-0.139c0.069-0.209,0-0.349,0-0.349s0.14,0.069,0.14,0
		c0.279-0.698,0-1.256-0.14-1.953c0.069-0.279,0.069-0.488-0.279-0.628c-0.209-0.418-0.278-0.907-0.697-1.116
		c-0.069-0.488-0.069-0.279,0.14-0.349c-0.349-0.628-0.349-0.698-0.349-0.698v-0.07c0.069-0.139-0.209-0.279-0.209-0.139
		c0.139,0-0.07,0.139,0.139,0.139l-0.139,0.14l0.069,0.279L114.133,16.226z M119.573,38.476c0.14-0.14,0.419-0.14,0.559-0.419
		c-0.279,0-0.279-0.209-0.559-0.209c0,0.07,0,0.14-0.069,0.14l-0.07,0.069h-0.139c-0.21-0.139-0.279-0.209-0.14-0.348
		c-0.419,0.069-0.628,0.278-0.977,0.488c0,0.139,0.209,0.139,0.14,0.278c-0.14-0.14-0.21,0-0.349,0.069
		c0-0.278-0.21-0.348-0.419-0.558c0,0.279,0.209,0.349-0.069,0.349c-0.628-0.139-1.047,0.768-1.187,1.604
		c-0.209,0.069-0.418,0.209-0.558,0.488c0,0.069-0.14,0.069-0.14,0.069c-0.14,0.14,0.07,0.35,0,0.488
		c-0.14,0.35-0.418,0.628-0.279,1.047c0.07,0.14,0.07,0.349,0.14,0.418c0,0.14-0.14,0.07-0.14,0.349
		c0.35-0.139,0.279-0.488,0.488-0.627c0.698-0.14,1.116-0.698,1.535-1.187c0.069,0,0.069,0.07,0.14,0.07
		c0.069-0.209-0.21-0.14-0.21-0.279c0.07,0,0-0.14,0-0.209c0.14,0.069,0.14-0.07,0.279-0.07v0.279h0.349
		c0-0.349,0.279-0.418,0.14-0.697c0.697-0.14,0.837-0.628,0.906-1.256c-0.209,0-0.349,0-0.349-0.209
		c0.279-0.07,0.419-0.209,0.628-0.349c0.07-0.21,0.209-0.069,0.209-0.069h0.07C119.573,38.336,119.295,38.406,119.573,38.476z"/>
</g>
</svg>
